<?xml version="1.0" encoding="utf-8" standalone="no"?>
<!DOCTYPE svg PUBLIC "-//W3C//DTD SVG 1.1//EN"
  "http://www.w3.org/Graphics/SVG/1.1/DTD/svg11.dtd">
<svg height="340.31875pt" version="1.1" viewBox="0 0 529.371959 340.31875" width="529.371959pt" xmlns="http://www.w3.org/2000/svg" xmlns:xlink="http://www.w3.org/1999/xlink">
 <metadata>
  <rdf:RDF xmlns:cc="http://creativecommons.org/ns#" xmlns:dc="http://purl.org/dc/elements/1.1/" xmlns:rdf="http://www.w3.org/1999/02/22-rdf-syntax-ns#">
   <cc:Work>
    <dc:type rdf:resource="http://purl.org/dc/dcmitype/StillImage"/>
    <dc:date>2021-10-20T18:07:44.683107</dc:date>
    <dc:format>image/svg+xml</dc:format>
    <dc:creator>
     <cc:Agent>
      <dc:title>Matplotlib v3.4.3, https://matplotlib.org/</dc:title>
     </cc:Agent>
    </dc:creator>
   </cc:Work>
  </rdf:RDF>
 </metadata>
 <defs>
  <style type="text/css">*{stroke-linecap:butt;stroke-linejoin:round;}</style>
 </defs>
 <g id="figure_1">
  <g id="patch_1">
   <path d="M 0 340.31875 
L 529.371959 340.31875 
L 529.371959 -0 
L 0 -0 
z
" style="fill:#ffffff;"/>
  </g>
  <g id="axes_1">
   <g id="patch_2">
    <path d="M 53.192607 86.01475 
C 53.192607 83.199643 52.410881 80.439069 50.9349 78.041924 
C 49.458918 75.644778 47.345867 73.703934 44.832185 72.436562 
C 42.318503 71.169191 39.50158 70.624393 36.696614 70.863131 
C 33.891649 71.101869 31.207315 72.114892 28.943977 73.788848 
L 37.986207 86.01475 
L 53.192607 86.01475 
z
" style="fill:#c7c7c7;"/>
   </g>
   <g id="patch_3">
    <path d="M 28.943977 73.788848 
C 25.971234 75.987478 23.900088 79.19661 23.121111 82.811077 
C 22.342134 86.425543 22.907575 90.202903 24.710805 93.430834 
C 26.514035 96.658765 29.434102 99.120752 32.920349 100.352521 
C 36.406597 101.584291 40.225183 101.503222 43.656011 100.124602 
L 37.986207 86.01475 
L 28.943977 73.788848 
z
" style="fill:#8c564b;"/>
   </g>
   <g id="patch_4">
    <path d="M 43.656011 100.124602 
C 44.855666 99.642541 45.988959 99.009446 47.028436 98.240652 
C 48.067913 97.471859 49.005112 96.573627 49.817329 95.567715 
L 37.986207 86.01475 
L 43.656011 100.124602 
z
" style="fill:#98df8a;"/>
   </g>
   <g id="patch_5">
    <path d="M 49.817329 95.567715 
C 50.629546 94.561804 51.31017 93.456401 51.842711 92.278286 
C 52.375253 91.100171 52.755377 89.858935 52.973876 88.584645 
L 37.986207 86.01475 
L 49.817329 95.567715 
z
" style="fill:#1f77b4;"/>
   </g>
   <g id="patch_6">
    <path d="M 52.973876 88.584645 
C 53.046622 88.160391 53.101321 87.733239 53.137826 87.304344 
C 53.17433 86.875449 53.192607 86.445197 53.192607 86.014751 
L 37.986207 86.01475 
L 52.973876 88.584645 
z
" style="fill:#9467bd;"/>
   </g>
   <g id="matplotlib.axis_1"/>
   <g id="matplotlib.axis_2"/>
  </g>
  <g id="axes_2">
   <g id="patch_7">
    <path d="M 127.079503 86.01475 
C 127.079503 84.017864 126.68616 82.040395 125.921985 80.195513 
C 125.15781 78.35063 124.037664 76.674213 122.625652 75.262201 
C 121.21364 73.85019 119.537223 72.730044 117.692341 71.965868 
C 115.847459 71.201693 113.86999 70.80835 111.873103 70.80835 
C 109.876217 70.80835 107.898748 71.201693 106.053866 71.965868 
C 104.208984 72.730044 102.532567 73.85019 101.120555 75.262201 
C 99.708543 76.674213 98.588397 78.35063 97.824222 80.195513 
C 97.060046 82.040395 96.666703 84.017864 96.666703 86.01475 
C 96.666703 88.011636 97.060046 89.989105 97.824222 91.833987 
C 98.588397 93.67887 99.708543 95.355287 101.120555 96.767299 
C 102.532567 98.17931 104.208984 99.299456 106.053866 100.063632 
C 107.898748 100.827807 109.876217 101.22115 111.873103 101.22115 
C 113.86999 101.22115 115.847459 100.827807 117.692341 100.063632 
C 119.537223 99.299456 121.21364 98.17931 122.625652 96.767299 
C 124.037664 95.355287 125.15781 93.67887 125.921985 91.833987 
C 126.68616 89.989105 127.079503 88.011636 127.079503 86.01475 
M 111.873103 86.01475 
M 127.079503 86.01475 
z
" style="fill:#2ca02c;"/>
   </g>
   <g id="matplotlib.axis_3"/>
   <g id="matplotlib.axis_4"/>
  </g>
  <g id="axes_3">
   <g id="patch_8">
    <path d="M 200.9664 86.01475 
C 200.9664 84.093671 200.602355 82.189877 199.89357 80.404332 
C 199.184786 78.618787 198.144018 76.983623 196.82646 75.585557 
C 195.508902 74.187491 193.938266 73.051683 192.197846 72.238366 
C 190.457425 71.42505 188.578541 70.948862 186.660836 70.835056 
C 184.743131 70.721251 182.821114 70.971875 180.996716 71.573638 
C 179.172318 72.1754 177.47837 73.117473 176.004707 74.349894 
C 174.531044 75.582316 173.304185 77.082908 172.389193 78.77209 
C 171.474202 80.461272 170.887544 82.308647 170.660332 84.216242 
C 170.43312 86.123838 170.569443 88.057326 171.06207 89.914168 
C 171.554698 91.771011 172.394765 93.517793 173.537722 95.061877 
C 174.680678 96.605962 176.105955 97.919562 177.737966 98.933015 
C 179.369977 99.946467 181.179353 100.641534 183.070138 100.981354 
C 184.960923 101.321174 186.899091 101.299632 188.781856 100.91787 
C 190.664621 100.536108 192.458101 99.800996 194.067183 98.75152 
C 195.676265 97.702044 197.071993 96.357088 198.180347 94.787981 
C 199.288701 93.218874 200.089735 91.453852 200.54097 89.586518 
L 185.76 86.01475 
L 200.9664 86.01475 
z
" style="fill:#1f77b4;"/>
   </g>
   <g id="patch_9">
    <path d="M 200.54097 89.586518 
C 200.682156 89.00225 200.788576 88.410123 200.859668 87.813256 
C 200.93076 87.21639 200.9664 86.615833 200.9664 86.014747 
L 185.76 86.01475 
L 200.54097 89.586518 
z
" style="fill:#98df8a;"/>
   </g>
   <g id="matplotlib.axis_5"/>
   <g id="matplotlib.axis_6"/>
  </g>
  <g id="axes_4">
   <g id="patch_10">
    <path d="M 274.853297 86.01475 
C 274.853297 83.631444 274.292991 81.281183 273.217737 79.154219 
C 272.142483 77.027255 270.582097 75.182569 268.662892 73.769488 
C 266.743686 72.356407 264.518882 71.414116 262.168574 71.018892 
C 259.818266 70.623669 257.407631 70.786472 255.131806 71.494125 
L 259.646897 86.01475 
L 274.853297 86.01475 
z
" style="fill:#98df8a;"/>
   </g>
   <g id="patch_11">
    <path d="M 255.131806 71.494125 
C 251.769605 72.539579 248.872683 74.721022 246.938979 77.663497 
C 245.005274 80.605972 244.152313 84.130644 244.526706 87.631673 
L 259.646897 86.01475 
L 255.131806 71.494125 
z
" style="fill:#17becf;"/>
   </g>
   <g id="patch_12">
    <path d="M 244.526706 87.631673 
C 244.538312 87.740203 244.551086 87.848605 244.565026 87.95686 
C 244.578966 88.065115 244.594072 88.173217 244.61034 88.281147 
L 259.646897 86.01475 
L 244.526706 87.631673 
z
"/>
   </g>
   <g id="patch_13">
    <path d="M 244.61034 88.281147 
C 245.100815 91.535239 246.634621 94.543816 248.979989 96.852263 
C 251.325358 99.160711 254.357891 100.646589 257.619356 101.085373 
C 260.880821 101.524157 264.198229 100.892575 267.0703 99.28606 
C 269.942372 97.679546 272.216773 95.18331 273.549827 92.174548 
L 259.646897 86.01475 
L 244.61034 88.281147 
z
" style="fill:#9467bd;"/>
   </g>
   <g id="patch_14">
    <path d="M 273.549827 92.174548 
C 273.601023 92.058998 273.650775 91.942814 273.699074 91.826024 
C 273.747373 91.709234 273.794214 91.591846 273.839586 91.473887 
L 259.646897 86.01475 
L 273.549827 92.174548 
z
" style="fill:#aec7e8;"/>
   </g>
   <g id="patch_15">
    <path d="M 273.839586 91.473887 
C 274.021109 91.001963 274.178981 90.521278 274.312613 90.033624 
C 274.446246 89.54597 274.555473 89.051955 274.639887 88.553419 
L 259.646897 86.01475 
L 273.839586 91.473887 
z
" style="fill:#c7c7c7;"/>
   </g>
   <g id="patch_16">
    <path d="M 274.639887 88.553419 
C 274.645641 88.519435 274.65128 88.485432 274.656803 88.451409 
C 274.662326 88.417387 274.667733 88.383346 274.673025 88.349287 
L 259.646897 86.01475 
L 274.639887 88.553419 
z
" style="fill:#1f77b4;"/>
   </g>
   <g id="patch_17">
    <path d="M 274.673025 88.349287 
C 274.673907 88.34361 274.674786 88.337933 274.675661 88.332256 
C 274.676537 88.326578 274.677409 88.3209 274.678278 88.315222 
L 259.646897 86.01475 
L 274.673025 88.349287 
z
"/>
   </g>
   <g id="patch_18">
    <path d="M 274.678278 88.315222 
C 274.689576 88.241401 274.70033 88.167497 274.710539 88.093518 
C 274.720748 88.019539 274.730412 87.945485 274.73953 87.871363 
L 259.646897 86.01475 
L 274.678278 88.315222 
z
" style="fill:#2ca02c;"/>
   </g>
   <g id="patch_19">
    <path d="M 274.73953 87.871363 
C 274.743738 87.837153 274.74783 87.802929 274.751806 87.768692 
C 274.755782 87.734454 274.759641 87.700203 274.763383 87.665939 
L 259.646897 86.01475 
L 274.73953 87.871363 
z
" style="fill:#ff7f0e;"/>
   </g>
   <g id="patch_20">
    <path d="M 274.763383 87.665939 
C 274.774612 87.563146 274.784791 87.460241 274.79392 87.357241 
C 274.803049 87.25424 274.811127 87.15115 274.818153 87.047984 
L 259.646897 86.01475 
L 274.763383 87.665939 
z
" style="fill:#ff9896;"/>
   </g>
   <g id="patch_21">
    <path d="M 274.818153 87.047984 
C 274.821666 86.996402 274.824916 86.944802 274.827903 86.893187 
C 274.830889 86.841571 274.833613 86.789941 274.836073 86.738298 
L 259.646897 86.01475 
L 274.818153 87.047984 
z
" style="fill:#7f7f7f;"/>
   </g>
   <g id="patch_22">
    <path d="M 274.836073 86.738298 
C 274.838533 86.686655 274.84073 86.634999 274.842663 86.583334 
C 274.844596 86.531668 274.846266 86.479993 274.847672 86.42831 
L 259.646897 86.01475 
L 274.836073 86.738298 
z
" style="fill:#dbdb8d;"/>
   </g>
   <g id="patch_23">
    <path d="M 274.847672 86.42831 
C 274.847828 86.422568 274.847981 86.416825 274.848131 86.411083 
C 274.84828 86.40534 274.848427 86.399597 274.84857 86.393854 
L 259.646897 86.01475 
L 274.847672 86.42831 
z
" style="fill:#e377c2;"/>
   </g>
   <g id="patch_24">
    <path d="M 274.84857 86.393854 
C 274.849286 86.36514 274.849921 86.336424 274.850474 86.307706 
C 274.851028 86.278988 274.8515 86.250269 274.85189 86.221548 
L 259.646897 86.01475 
L 274.84857 86.393854 
z
" style="fill:#c49c94;"/>
   </g>
   <g id="patch_25">
    <path d="M 274.85189 86.221548 
C 274.851968 86.215804 274.852043 86.21006 274.852115 86.204316 
C 274.852187 86.198572 274.852255 86.192828 274.85232 86.187083 
L 259.646897 86.01475 
L 274.85189 86.221548 
z
"/>
   </g>
   <g id="patch_26">
    <path d="M 274.85232 86.187083 
C 274.852385 86.181339 274.852447 86.175595 274.852506 86.169851 
C 274.852564 86.164106 274.852619 86.158362 274.852672 86.152617 
L 259.646897 86.01475 
L 274.85232 86.187083 
z
"/>
   </g>
   <g id="patch_27">
    <path d="M 274.852672 86.152617 
C 274.852724 86.146873 274.852772 86.141129 274.852818 86.135384 
C 274.852864 86.12964 274.852906 86.123895 274.852945 86.118151 
L 259.646897 86.01475 
L 274.852672 86.152617 
z
"/>
   </g>
   <g id="patch_28">
    <path d="M 274.852945 86.118151 
C 274.853023 86.106662 274.853088 86.095173 274.85314 86.083684 
C 274.853192 86.072194 274.853231 86.060705 274.853257 86.049216 
L 259.646897 86.01475 
L 274.852945 86.118151 
z
"/>
   </g>
   <g id="patch_29">
    <path d="M 274.853257 86.049216 
C 274.853271 86.043471 274.85328 86.037727 274.853287 86.031982 
C 274.853293 86.026238 274.853297 86.020493 274.853297 86.014748 
L 259.646897 86.01475 
L 274.853257 86.049216 
z
"/>
   </g>
   <g id="matplotlib.axis_7"/>
   <g id="matplotlib.axis_8"/>
  </g>
  <g id="axes_5">
   <g id="patch_30">
    <path d="M 348.740193 86.01475 
C 348.740193 83.706771 348.214747 81.428796 347.2038 79.354006 
C 346.192854 77.279216 344.722692 75.461556 342.905083 74.039211 
C 341.087474 72.616867 338.969675 71.626819 336.712691 71.144336 
C 334.455707 70.661853 332.11822 70.699479 329.877934 71.254354 
L 333.533793 86.01475 
L 348.740193 86.01475 
z
" style="fill:#98df8a;"/>
   </g>
   <g id="patch_31">
    <path d="M 329.877934 71.254354 
C 326.589529 72.068827 323.665762 73.959314 321.573609 76.623871 
C 319.481456 79.288429 318.338565 82.577221 318.327475 85.964971 
L 333.533793 86.01475 
L 329.877934 71.254354 
z
" style="fill:#17becf;"/>
   </g>
   <g id="patch_32">
    <path d="M 318.327475 85.964971 
C 318.327131 86.070063 318.327876 86.175155 318.329711 86.280231 
C 318.331545 86.385308 318.334469 86.490362 318.338482 86.595378 
L 333.533793 86.01475 
L 318.327475 85.964971 
z
"/>
   </g>
   <g id="patch_33">
    <path d="M 318.338482 86.595378 
C 318.459501 89.762498 319.567716 92.813912 321.507303 95.320562 
C 323.44689 97.827213 326.12247 99.665837 329.157832 100.577908 
C 332.193194 101.489978 335.439076 101.430644 338.439076 100.408248 
C 341.439077 99.385853 344.045672 97.450671 345.892352 94.874808 
L 333.533793 86.01475 
L 318.338482 86.595378 
z
" style="fill:#9467bd;"/>
   </g>
   <g id="patch_34">
    <path d="M 345.892352 94.874808 
C 346.105075 94.578089 346.307043 94.273805 346.497863 93.962548 
C 346.688683 93.651291 346.868232 93.333263 347.036161 93.009082 
L 333.533793 86.01475 
L 345.892352 94.874808 
z
" style="fill:#1f77b4;"/>
   </g>
   <g id="patch_35">
    <path d="M 347.036161 93.009082 
C 347.092131 92.901032 347.146803 92.792314 347.200164 92.682951 
C 347.253525 92.573589 347.305571 92.46359 347.356292 92.352978 
L 333.533793 86.01475 
L 347.036161 93.009082 
z
" style="fill:#aec7e8;"/>
   </g>
   <g id="patch_36">
    <path d="M 347.356292 92.352978 
C 347.609967 91.79976 347.830201 91.231811 348.015806 90.652197 
C 348.20141 90.072583 348.352051 89.482349 348.466914 88.88468 
L 333.533793 86.01475 
L 347.356292 92.352978 
z
" style="fill:#c7c7c7;"/>
   </g>
   <g id="patch_37">
    <path d="M 348.466914 88.88468 
C 348.467958 88.879248 348.468999 88.873816 348.470037 88.868383 
C 348.471075 88.86295 348.47211 88.857517 348.473142 88.852083 
L 333.533793 86.01475 
L 348.466914 88.88468 
z
"/>
   </g>
   <g id="patch_38">
    <path d="M 348.473142 88.852083 
C 348.490687 88.759705 348.507374 88.667165 348.523203 88.574477 
C 348.539031 88.481789 348.553999 88.388957 348.568105 88.295991 
L 333.533793 86.01475 
L 348.473142 88.852083 
z
" style="fill:#8c564b;"/>
   </g>
   <g id="patch_39">
    <path d="M 348.568105 88.295991 
C 348.579722 88.219431 348.590754 88.142784 348.6012 88.066055 
C 348.611646 87.989327 348.621506 87.91252 348.630778 87.835641 
L 333.533793 86.01475 
L 348.568105 88.295991 
z
" style="fill:#2ca02c;"/>
   </g>
   <g id="patch_40">
    <path d="M 348.630778 87.835641 
C 348.634752 87.802693 348.638618 87.769732 348.642376 87.736759 
C 348.646134 87.703786 348.649785 87.6708 348.653327 87.637803 
L 333.533793 86.01475 
L 348.630778 87.835641 
z
" style="fill:#ff7f0e;"/>
   </g>
   <g id="patch_41">
    <path d="M 348.653327 87.637803 
C 348.663953 87.538811 348.673608 87.439716 348.682288 87.340534 
C 348.690968 87.241353 348.698674 87.142088 348.705405 87.042755 
L 333.533793 86.01475 
L 348.653327 87.637803 
z
" style="fill:#ff9896;"/>
   </g>
   <g id="patch_42">
    <path d="M 348.705405 87.042755 
C 348.709144 86.98757 348.712582 86.932365 348.715719 86.877143 
C 348.718856 86.82192 348.721692 86.766681 348.724226 86.711428 
L 333.533793 86.01475 
L 348.705405 87.042755 
z
" style="fill:#7f7f7f;"/>
   </g>
   <g id="patch_43">
    <path d="M 348.724226 86.711428 
C 348.726506 86.6617 348.728543 86.611961 348.730335 86.562213 
C 348.732127 86.512465 348.733675 86.462709 348.734979 86.412946 
L 333.533793 86.01475 
L 348.724226 86.711428 
z
" style="fill:#dbdb8d;"/>
   </g>
   <g id="patch_44">
    <path d="M 348.734979 86.412946 
C 348.735123 86.407416 348.735265 86.401887 348.735404 86.396358 
C 348.735543 86.390828 348.735679 86.385299 348.735811 86.379769 
L 333.533793 86.01475 
L 348.734979 86.412946 
z
" style="fill:#e377c2;"/>
   </g>
   <g id="patch_45">
    <path d="M 348.735811 86.379769 
C 348.736475 86.352122 348.737064 86.324472 348.737577 86.296821 
C 348.73809 86.26917 348.738527 86.241518 348.738889 86.213865 
L 333.533793 86.01475 
L 348.735811 86.379769 
z
" style="fill:#c49c94;"/>
   </g>
   <g id="patch_46">
    <path d="M 348.738889 86.213865 
C 348.738962 86.208334 348.739031 86.202804 348.739098 86.197273 
C 348.739164 86.191742 348.739227 86.186211 348.739288 86.180681 
L 333.533793 86.01475 
L 348.738889 86.213865 
z
"/>
   </g>
   <g id="patch_47">
    <path d="M 348.739288 86.180681 
C 348.739348 86.17515 348.739405 86.169619 348.73946 86.164088 
C 348.739514 86.158557 348.739565 86.153026 348.739614 86.147495 
L 333.533793 86.01475 
L 348.739288 86.180681 
z
"/>
   </g>
   <g id="patch_48">
    <path d="M 348.739614 86.147495 
C 348.739662 86.141965 348.739707 86.136434 348.739749 86.130903 
C 348.739792 86.125372 348.739831 86.119841 348.739867 86.11431 
L 333.533793 86.01475 
L 348.739614 86.147495 
z
"/>
   </g>
   <g id="patch_49">
    <path d="M 348.739867 86.11431 
C 348.73994 86.103248 348.74 86.092186 348.740048 86.081123 
C 348.740097 86.070061 348.740133 86.058999 348.740157 86.047937 
L 333.533793 86.01475 
L 348.739867 86.11431 
z
"/>
   </g>
   <g id="patch_50">
    <path d="M 348.740157 86.047937 
C 348.740169 86.042406 348.740178 86.036875 348.740184 86.031344 
C 348.74019 86.025812 348.740193 86.020281 348.740193 86.01475 
L 333.533793 86.01475 
L 348.740157 86.047937 
z
"/>
   </g>
   <g id="matplotlib.axis_9"/>
   <g id="matplotlib.axis_10"/>
  </g>
  <g id="axes_6"/>
  <g id="axes_7"/>
  <g id="axes_8"/>
  <g id="axes_9">
   <g id="patch_51">
    <path d="M 274.853297 131.63395 
C 274.853297 129.740196 274.499534 127.863 273.810248 126.099144 
C 273.120962 124.335289 272.108206 122.715616 270.824194 121.323634 
C 269.540182 119.931651 268.007367 118.791698 266.304777 117.962548 
C 264.602187 117.133398 262.759594 116.62955 260.871996 116.47698 
C 258.984399 116.32441 257.084804 116.525787 255.271149 117.070728 
C 253.457495 117.615669 251.761495 118.494644 250.270591 119.662338 
C 248.779687 120.830031 247.519949 122.266023 246.556326 123.896279 
C 245.592702 125.526534 244.942044 127.322545 244.637896 129.191715 
C 244.333749 131.060885 244.38143 132.970529 244.778483 134.822191 
C 245.175536 136.673853 245.915017 138.435154 246.9588 140.015287 
C 248.002583 141.595419 249.332417 142.966753 250.879739 144.058585 
C 252.427061 145.150417 254.164814 145.943656 256.003404 146.397404 
C 257.841995 146.851152 259.749273 146.957475 261.626904 146.710892 
C 263.504535 146.464308 265.319687 145.86913 266.978775 144.956043 
C 268.637864 144.042955 270.111877 142.827925 271.32482 141.373596 
C 272.537762 139.919267 273.468424 138.25107 274.068823 136.455012 
L 259.646897 131.63395 
L 274.853297 131.63395 
z
" style="fill:#2ca02c;"/>
   </g>
   <g id="patch_52">
    <path d="M 274.068823 136.455012 
C 274.130544 136.270378 274.188713 136.084576 274.243299 135.897708 
C 274.297885 135.71084 274.348878 135.522941 274.396248 135.334115 
L 259.646897 131.63395 
L 274.068823 136.455012 
z
" style="fill:#c7c7c7;"/>
   </g>
   <g id="patch_53">
    <path d="M 274.396248 135.334115 
C 274.42467 135.220822 274.451786 135.107205 274.47759 134.993287 
C 274.503393 134.879369 274.527884 134.765157 274.551056 134.650675 
L 259.646897 131.63395 
L 274.396248 135.334115 
z
" style="fill:#ff7f0e;"/>
   </g>
   <g id="patch_54">
    <path d="M 274.551056 134.650675 
C 274.55878 134.612514 274.566358 134.574324 274.573788 134.536106 
C 274.581219 134.497887 274.588503 134.45964 274.59564 134.421365 
L 259.646897 131.63395 
L 274.551056 134.650675 
z
" style="fill:#9467bd;"/>
   </g>
   <g id="patch_55">
    <path d="M 274.59564 134.421365 
C 274.624188 134.268264 274.650382 134.114734 274.674213 133.960828 
C 274.698044 133.806922 274.71951 133.652659 274.738602 133.498093 
L 259.646897 131.63395 
L 274.59564 134.421365 
z
" style="fill:#7f7f7f;"/>
   </g>
   <g id="patch_56">
    <path d="M 274.738602 133.498093 
C 274.748148 133.420812 274.7571 133.343458 274.765458 133.266039 
C 274.773815 133.18862 274.781578 133.111138 274.788745 133.0336 
L 259.646897 131.63395 
L 274.738602 133.498093 
z
"/>
   </g>
   <g id="patch_57">
    <path d="M 274.788745 133.0336 
C 274.80308 132.878521 274.815032 132.723231 274.824596 132.567785 
C 274.83416 132.412339 274.841335 132.256755 274.84612 132.101088 
L 259.646897 131.63395 
L 274.788745 133.0336 
z
" style="fill:#c49c94;"/>
   </g>
   <g id="patch_58">
    <path d="M 274.84612 132.101088 
C 274.847316 132.062172 274.848362 132.023252 274.849259 131.984328 
C 274.850157 131.945404 274.850904 131.906477 274.851502 131.867547 
L 259.646897 131.63395 
L 274.84612 132.101088 
z
"/>
   </g>
   <g id="patch_59">
    <path d="M 274.851502 131.867547 
C 274.8521 131.828617 274.852549 131.789685 274.852848 131.750752 
C 274.853147 131.711819 274.853297 131.672885 274.853297 131.633951 
L 259.646897 131.63395 
L 274.851502 131.867547 
z
"/>
   </g>
   <g id="matplotlib.axis_11"/>
   <g id="matplotlib.axis_12"/>
  </g>
  <g id="axes_10">
   <g id="patch_60">
    <path d="M 348.740193 131.63395 
C 348.740193 129.740196 348.386431 127.863 347.697145 126.099144 
C 347.007859 124.335289 345.995102 122.715616 344.711091 121.323634 
C 343.427079 119.931651 341.894264 118.791698 340.191674 117.962548 
C 338.489084 117.133398 336.64649 116.62955 334.758893 116.47698 
C 332.871295 116.32441 330.9717 116.525787 329.158046 117.070728 
C 327.344392 117.615669 325.648392 118.494644 324.157488 119.662338 
C 322.666584 120.830031 321.406846 122.266023 320.443222 123.896279 
C 319.479599 125.526534 318.82894 127.322545 318.524793 129.191715 
C 318.220645 131.060885 318.268327 132.970529 318.66538 134.822191 
C 319.062432 136.673853 319.801913 138.435154 320.845696 140.015287 
C 321.88948 141.595419 323.219314 142.966753 324.766636 144.058585 
C 326.313957 145.150417 328.051711 145.943656 329.890301 146.397404 
C 331.728892 146.851152 333.636169 146.957475 335.513801 146.710892 
C 337.391432 146.464308 339.206584 145.86913 340.865672 144.956043 
C 342.52476 144.042955 343.998774 142.827925 345.211716 141.373596 
C 346.424659 139.919267 347.355321 138.25107 347.955719 136.455012 
L 333.533793 131.63395 
L 348.740193 131.63395 
z
" style="fill:#2ca02c;"/>
   </g>
   <g id="patch_61">
    <path d="M 347.955719 136.455012 
C 348.01744 136.270378 348.07561 136.084576 348.130196 135.897708 
C 348.184782 135.71084 348.235774 135.522941 348.283145 135.334115 
L 333.533793 131.63395 
L 347.955719 136.455012 
z
" style="fill:#c7c7c7;"/>
   </g>
   <g id="patch_62">
    <path d="M 348.283145 135.334115 
C 348.311567 135.220822 348.338682 135.107205 348.364486 134.993287 
C 348.39029 134.879369 348.41478 134.765157 348.437953 134.650675 
L 333.533793 131.63395 
L 348.283145 135.334115 
z
" style="fill:#ff7f0e;"/>
   </g>
   <g id="patch_63">
    <path d="M 348.437953 134.650675 
C 348.445677 134.612514 348.453254 134.574324 348.460685 134.536106 
C 348.468115 134.497887 348.475399 134.45964 348.482536 134.421365 
L 333.533793 131.63395 
L 348.437953 134.650675 
z
" style="fill:#9467bd;"/>
   </g>
   <g id="patch_64">
    <path d="M 348.482536 134.421365 
C 348.511084 134.268264 348.537278 134.114734 348.56111 133.960828 
C 348.584941 133.806922 348.606406 133.652659 348.625498 133.498093 
L 333.533793 131.63395 
L 348.482536 134.421365 
z
" style="fill:#7f7f7f;"/>
   </g>
   <g id="patch_65">
    <path d="M 348.625498 133.498093 
C 348.635044 133.420812 348.643996 133.343458 348.652354 133.266039 
C 348.660712 133.18862 348.668474 133.111138 348.675642 133.0336 
L 333.533793 131.63395 
L 348.625498 133.498093 
z
"/>
   </g>
   <g id="patch_66">
    <path d="M 348.675642 133.0336 
C 348.689977 132.878521 348.701928 132.723231 348.711492 132.567785 
C 348.721056 132.412339 348.728232 132.256755 348.733016 132.101088 
L 333.533793 131.63395 
L 348.675642 133.0336 
z
" style="fill:#c49c94;"/>
   </g>
   <g id="patch_67">
    <path d="M 348.733016 132.101088 
C 348.734212 132.062172 348.735259 132.023252 348.736156 131.984328 
C 348.737053 131.945404 348.737801 131.906477 348.738399 131.867547 
L 333.533793 131.63395 
L 348.733016 132.101088 
z
"/>
   </g>
   <g id="patch_68">
    <path d="M 348.738399 131.867547 
C 348.738997 131.828617 348.739445 131.789685 348.739745 131.750752 
C 348.740044 131.711819 348.740193 131.672885 348.740193 131.633951 
L 333.533793 131.63395 
L 348.738399 131.867547 
z
"/>
   </g>
   <g id="matplotlib.axis_13"/>
   <g id="matplotlib.axis_14"/>
  </g>
  <g id="axes_11"/>
  <g id="axes_12">
   <g id="patch_69">
    <path d="M 127.079503 177.25315 
C 127.079503 175.256264 126.68616 173.278795 125.921985 171.433913 
C 125.15781 169.58903 124.037664 167.912613 122.625652 166.500601 
C 121.21364 165.08859 119.537223 163.968444 117.692341 163.204268 
C 115.847459 162.440093 113.86999 162.04675 111.873103 162.04675 
C 109.876217 162.04675 107.898748 162.440093 106.053866 163.204268 
C 104.208984 163.968444 102.532567 165.08859 101.120555 166.500601 
C 99.708543 167.912613 98.588397 169.58903 97.824222 171.433913 
C 97.060046 173.278795 96.666703 175.256264 96.666703 177.25315 
C 96.666703 179.250036 97.060046 181.227505 97.824222 183.072387 
C 98.588397 184.91727 99.708543 186.593687 101.120555 188.005699 
C 102.532567 189.41771 104.208984 190.537856 106.053866 191.302032 
C 107.898748 192.066207 109.876217 192.45955 111.873103 192.45955 
C 113.86999 192.45955 115.847459 192.066207 117.692341 191.302032 
C 119.537223 190.537856 121.21364 189.41771 122.625652 188.005699 
C 124.037664 186.593687 125.15781 184.91727 125.921985 183.072387 
C 126.68616 181.227505 127.079503 179.250036 127.079503 177.25315 
M 111.873103 177.25315 
M 127.079503 177.25315 
z
" style="fill:#9467bd;"/>
   </g>
   <g id="matplotlib.axis_15"/>
   <g id="matplotlib.axis_16"/>
  </g>
  <g id="axes_13"/>
  <g id="axes_14">
   <g id="patch_70">
    <path d="M 274.853297 177.25315 
C 274.853297 173.221709 273.250105 169.351261 270.399445 166.500601 
C 267.548786 163.649942 263.678338 162.04675 259.646897 162.04675 
L 259.646897 177.25315 
L 274.853297 177.25315 
z
" style="fill:#ff7f0e;"/>
   </g>
   <g id="patch_71">
    <path d="M 259.646897 162.04675 
C 256.494349 162.04675 253.418484 163.027116 250.84739 164.851405 
C 248.276295 166.675694 246.33505 169.255157 245.293829 172.230794 
C 244.252609 175.206432 244.162066 178.433483 245.034803 181.462821 
C 245.90754 184.492159 247.701099 187.17641 250.165861 189.141992 
L 259.646897 177.25315 
L 259.646897 162.04675 
z
" style="fill:#7f7f7f;"/>
   </g>
   <g id="patch_72">
    <path d="M 250.165861 189.141992 
C 252.858635 191.289408 256.202708 192.45955 259.646896 192.45955 
C 263.091084 192.45955 266.435157 191.289409 269.127931 189.141993 
L 259.646897 177.25315 
L 250.165861 189.141992 
z
" style="fill:#17becf;"/>
   </g>
   <g id="patch_73">
    <path d="M 269.127931 189.141993 
C 270.464997 188.075718 271.612657 186.791486 272.522523 185.343443 
C 273.432389 183.8954 274.091491 182.304186 274.47204 180.636893 
L 259.646897 177.25315 
L 269.127931 189.141993 
z
" style="fill:#98df8a;"/>
   </g>
   <g id="patch_74">
    <path d="M 274.47204 180.636893 
C 274.598625 180.082288 274.693989 179.521017 274.757682 178.955727 
C 274.821375 178.390437 274.853297 177.822018 274.853297 177.25315 
L 259.646897 177.25315 
L 274.47204 180.636893 
z
"/>
   </g>
   <g id="matplotlib.axis_17"/>
   <g id="matplotlib.axis_18"/>
  </g>
  <g id="axes_15">
   <g id="patch_75">
    <path d="M 348.740193 177.25315 
C 348.740193 173.363975 347.248155 169.619241 344.573571 166.795717 
C 341.898987 163.972193 338.240523 162.279607 334.357051 162.069052 
L 333.533793 177.25315 
L 348.740193 177.25315 
z
" style="fill:#ff7f0e;"/>
   </g>
   <g id="patch_76">
    <path d="M 334.357051 162.069052 
C 331.31927 161.904348 328.300844 162.654996 325.694075 164.223437 
C 323.087307 165.791877 321.010244 168.107082 319.732839 170.868148 
C 318.455433 173.629213 318.035534 176.711104 318.527714 179.713271 
C 319.019894 182.715438 320.401865 185.501927 322.494015 187.710582 
L 333.533793 177.25315 
L 334.357051 162.069052 
z
" style="fill:#7f7f7f;"/>
   </g>
   <g id="patch_77">
    <path d="M 322.494015 187.710582 
C 324.779486 190.123326 327.794093 191.721569 331.073671 192.259229 
C 334.353249 192.796888 337.720372 192.244877 340.656599 190.688188 
L 333.533793 177.25315 
L 322.494015 187.710582 
z
" style="fill:#17becf;"/>
   </g>
   <g id="patch_78">
    <path d="M 340.656599 190.688188 
C 342.115222 189.914875 343.438222 188.909156 344.573571 187.710583 
C 345.70892 186.51201 346.641537 185.136502 347.334748 183.638152 
L 333.533793 177.25315 
L 340.656599 190.688188 
z
" style="fill:#98df8a;"/>
   </g>
   <g id="patch_79">
    <path d="M 347.334748 183.638152 
C 347.565368 183.139674 347.768813 182.629067 347.944186 182.108577 
C 348.11956 181.588087 348.266605 181.058477 348.384676 180.522076 
L 333.533793 177.25315 
L 347.334748 183.638152 
z
" style="fill:#9467bd;"/>
   </g>
   <g id="patch_80">
    <path d="M 348.384676 180.522076 
C 348.502747 179.985676 348.591669 179.443273 348.651053 178.897251 
C 348.710436 178.351229 348.740193 177.802391 348.740193 177.25315 
L 333.533793 177.25315 
L 348.384676 180.522076 
z
"/>
   </g>
   <g id="matplotlib.axis_19"/>
   <g id="matplotlib.axis_20"/>
  </g>
  <g id="axes_16"/>
  <g id="axes_17"/>
  <g id="axes_18"/>
  <g id="axes_19">
   <g id="patch_81">
    <path d="M 274.853297 222.87235 
C 274.853297 220.875464 274.459954 218.897995 273.695778 217.053113 
C 272.931603 215.20823 271.811457 213.531813 270.399445 212.119801 
C 268.987433 210.70779 267.311016 209.587644 265.466134 208.823468 
C 263.621252 208.059293 261.643783 207.66595 259.646897 207.66595 
C 257.65001 207.66595 255.672541 208.059293 253.827659 208.823468 
C 251.982777 209.587644 250.30636 210.70779 248.894348 212.119801 
C 247.482336 213.531813 246.36219 215.20823 245.598015 217.053113 
C 244.83384 218.897995 244.440497 220.875464 244.440497 222.87235 
C 244.440497 224.869236 244.83384 226.846705 245.598015 228.691587 
C 246.36219 230.53647 247.482336 232.212887 248.894348 233.624899 
C 250.30636 235.03691 251.982777 236.157056 253.827659 236.921232 
C 255.672541 237.685407 257.65001 238.07875 259.646897 238.07875 
C 261.643783 238.07875 263.621252 237.685407 265.466134 236.921232 
C 267.311016 236.157056 268.987433 235.03691 270.399445 233.624899 
C 271.811457 232.212887 272.931603 230.53647 273.695778 228.691587 
C 274.459954 226.846705 274.853297 224.869236 274.853297 222.87235 
M 259.646897 222.87235 
M 274.853297 222.87235 
z
" style="fill:#2ca02c;"/>
   </g>
   <g id="matplotlib.axis_21"/>
   <g id="matplotlib.axis_22"/>
  </g>
  <g id="axes_20">
   <g id="patch_82">
    <path d="M 348.740193 222.87235 
C 348.740193 220.875464 348.34685 218.897995 347.582675 217.053113 
C 346.8185 215.20823 345.698353 213.531813 344.286342 212.119801 
C 342.87433 210.70779 341.197913 209.587644 339.35303 208.823468 
C 337.508148 208.059293 335.530679 207.66595 333.533793 207.66595 
C 331.536907 207.66595 329.559438 208.059293 327.714556 208.823468 
C 325.869674 209.587644 324.193256 210.70779 322.781245 212.119801 
C 321.369233 213.531813 320.249087 215.20823 319.484911 217.053113 
C 318.720736 218.897995 318.327393 220.875464 318.327393 222.87235 
C 318.327393 224.869236 318.720736 226.846705 319.484911 228.691587 
C 320.249087 230.53647 321.369233 232.212887 322.781245 233.624899 
C 324.193256 235.03691 325.869674 236.157056 327.714556 236.921232 
C 329.559438 237.685407 331.536907 238.07875 333.533793 238.07875 
C 335.530679 238.07875 337.508148 237.685407 339.35303 236.921232 
C 341.197913 236.157056 342.87433 235.03691 344.286342 233.624899 
C 345.698353 232.212887 346.8185 230.53647 347.582675 228.691587 
C 348.34685 226.846705 348.740193 224.869236 348.740193 222.87235 
M 333.533793 222.87235 
M 348.740193 222.87235 
z
" style="fill:#2ca02c;"/>
   </g>
   <g id="matplotlib.axis_23"/>
   <g id="matplotlib.axis_24"/>
  </g>
  <g id="axes_21">
   <g id="patch_83">
    <path d="M 53.192607 268.49155 
C 53.192607 266.494664 52.799264 264.517195 52.035089 262.672313 
C 51.270913 260.82743 50.150767 259.151013 48.738755 257.739001 
C 47.326744 256.32699 45.650326 255.206844 43.805444 254.442668 
C 41.960562 253.678493 39.983093 253.28515 37.986207 253.28515 
C 35.989321 253.28515 34.011852 253.678493 32.16697 254.442668 
C 30.322087 255.206844 28.64567 256.32699 27.233658 257.739001 
C 25.821647 259.151013 24.7015 260.82743 23.937325 262.672313 
C 23.17315 264.517195 22.779807 266.494664 22.779807 268.49155 
C 22.779807 270.488436 23.17315 272.465905 23.937325 274.310787 
C 24.7015 276.15567 25.821647 277.832087 27.233658 279.244099 
C 28.64567 280.65611 30.322087 281.776256 32.16697 282.540432 
C 34.011852 283.304607 35.989321 283.69795 37.986207 283.69795 
C 39.983093 283.69795 41.960562 283.304607 43.805444 282.540432 
C 45.650326 281.776256 47.326744 280.65611 48.738755 279.244099 
C 50.150767 277.832087 51.270913 276.15567 52.035089 274.310787 
C 52.799264 272.465905 53.192607 270.488436 53.192607 268.49155 
M 37.986207 268.49155 
M 53.192607 268.49155 
z
" style="fill:#2ca02c;"/>
   </g>
   <g id="matplotlib.axis_25"/>
   <g id="matplotlib.axis_26"/>
  </g>
  <g id="axes_22">
   <g id="patch_84">
    <path d="M 127.079503 268.49155 
C 127.079503 266.494664 126.68616 264.517195 125.921985 262.672313 
C 125.15781 260.82743 124.037664 259.151013 122.625652 257.739001 
C 121.21364 256.32699 119.537223 255.206844 117.692341 254.442668 
C 115.847459 253.678493 113.86999 253.28515 111.873103 253.28515 
C 109.876217 253.28515 107.898748 253.678493 106.053866 254.442668 
C 104.208984 255.206844 102.532567 256.32699 101.120555 257.739001 
C 99.708543 259.151013 98.588397 260.82743 97.824222 262.672313 
C 97.060046 264.517195 96.666703 266.494664 96.666703 268.49155 
C 96.666703 270.488436 97.060046 272.465905 97.824222 274.310787 
C 98.588397 276.15567 99.708543 277.832087 101.120555 279.244099 
C 102.532567 280.65611 104.208984 281.776256 106.053866 282.540432 
C 107.898748 283.304607 109.876217 283.69795 111.873103 283.69795 
C 113.86999 283.69795 115.847459 283.304607 117.692341 282.540432 
C 119.537223 281.776256 121.21364 280.65611 122.625652 279.244099 
C 124.037664 277.832087 125.15781 276.15567 125.921985 274.310787 
C 126.68616 272.465905 127.079503 270.488436 127.079503 268.49155 
M 111.873103 268.49155 
M 127.079503 268.49155 
z
" style="fill:#9467bd;"/>
   </g>
   <g id="matplotlib.axis_27"/>
   <g id="matplotlib.axis_28"/>
  </g>
  <g id="axes_23"/>
  <g id="axes_24">
   <g id="patch_85">
    <path d="M 274.853297 268.49155 
C 274.853297 266.895872 274.602134 265.310093 274.109042 263.792514 
C 273.615951 262.274934 272.887048 260.844383 271.949132 259.553452 
L 259.646897 268.49155 
L 274.853297 268.49155 
z
" style="fill:#7f7f7f;"/>
   </g>
   <g id="patch_86">
    <path d="M 271.949132 259.553452 
C 270.300897 257.284851 268.056827 255.515768 265.466134 254.442668 
C 262.875441 253.369568 260.037714 253.033701 257.268092 253.472366 
C 254.49847 253.911031 251.903419 255.107366 249.77113 256.928513 
C 247.638841 258.74966 246.05128 261.125612 245.184751 263.792514 
C 244.318222 266.459415 244.206036 269.314746 244.86065 272.041413 
C 245.515265 274.76808 246.911517 277.261267 248.894347 279.244098 
C 250.877178 281.226929 253.370365 282.623181 256.097032 283.277796 
C 258.823699 283.932411 261.67903 283.820225 264.345932 282.953696 
L 259.646897 268.49155 
L 271.949132 259.553452 
z
" style="fill:#c7c7c7;"/>
   </g>
   <g id="patch_87">
    <path d="M 264.345932 282.953696 
C 267.399562 281.961512 270.061884 280.027222 271.949132 277.429648 
C 273.83638 274.832075 274.853296 271.702328 274.853297 268.491551 
L 259.646897 268.49155 
L 264.345932 282.953696 
z
" style="fill:#98df8a;"/>
   </g>
   <g id="matplotlib.axis_29"/>
   <g id="matplotlib.axis_30"/>
  </g>
  <g id="axes_25">
   <g id="patch_88">
    <path d="M 348.740193 268.49155 
C 348.740193 267.428974 348.628819 266.369318 348.407897 265.329962 
C 348.186975 264.290605 347.857719 263.277261 347.425531 262.30655 
L 333.533793 268.49155 
L 348.740193 268.49155 
z
" style="fill:#7f7f7f;"/>
   </g>
   <g id="patch_89">
    <path d="M 347.425531 262.30655 
C 345.897544 258.874636 343.150706 256.127798 339.718793 254.599812 
C 336.286879 253.071826 332.407588 252.868521 328.834757 254.029404 
C 325.261926 255.190288 322.243013 257.634955 320.364664 260.88835 
C 318.486316 264.141745 317.878628 267.978535 318.65969 271.653139 
L 333.533793 268.49155 
L 347.425531 262.30655 
z
" style="fill:#c7c7c7;"/>
   </g>
   <g id="patch_90">
    <path d="M 318.65969 271.653139 
C 319.327248 274.793753 320.972653 277.643679 323.358726 279.792108 
C 325.744799 281.940537 328.751104 283.27903 331.944292 283.614648 
L 333.533793 268.49155 
L 318.65969 271.653139 
z
" style="fill:#98df8a;"/>
   </g>
   <g id="patch_91">
    <path d="M 331.944292 283.614648 
C 335.137481 283.950265 338.356379 283.266067 341.136994 281.660678 
C 343.917609 280.055289 346.119591 277.60974 347.425531 274.676549 
L 333.533793 268.49155 
L 331.944292 283.614648 
z
" style="fill:#9467bd;"/>
   </g>
   <g id="patch_92">
    <path d="M 347.425531 274.676549 
C 347.85772 273.705837 348.186975 272.692494 348.407897 271.653137 
C 348.628819 270.613781 348.740193 269.554125 348.740193 268.491549 
L 333.533793 268.49155 
L 347.425531 274.676549 
z
" style="fill:#2ca02c;"/>
   </g>
   <g id="matplotlib.axis_31"/>
   <g id="matplotlib.axis_32"/>
  </g>
  <g id="axes_26">
   <g id="patch_93">
    <path d="M 53.192607 314.11075 
C 53.192607 311.37061 52.451962 308.680749 51.049325 306.326821 
C 49.646688 303.972893 47.633534 302.041283 45.223653 300.73712 
C 42.813772 299.432958 40.095601 298.804104 37.357802 298.91734 
C 34.620003 299.030576 31.963047 299.881747 29.669094 301.380462 
L 37.986207 314.11075 
L 53.192607 314.11075 
z
" style="fill:#c7c7c7;"/>
   </g>
   <g id="patch_94">
    <path d="M 29.669094 301.380462 
C 26.656806 303.348488 24.43867 306.323204 23.411975 309.771814 
C 22.38528 313.220423 22.615213 316.92396 24.060591 320.219092 
C 25.50597 323.514223 28.075022 326.191728 31.307608 327.772043 
C 34.540194 329.352358 38.231066 329.735143 41.719157 328.851838 
L 37.986207 314.11075 
L 29.669094 301.380462 
z
" style="fill:#8c564b;"/>
   </g>
   <g id="patch_95">
    <path d="M 41.719157 328.851838 
C 42.939414 328.542827 44.116593 328.08349 45.223653 327.48438 
C 46.330713 326.885269 47.35911 326.151007 48.285221 325.298462 
L 37.986207 314.11075 
L 41.719157 328.851838 
z
" style="fill:#98df8a;"/>
   </g>
   <g id="patch_96">
    <path d="M 48.285221 325.298462 
C 49.211332 324.445917 50.02801 323.481667 50.716495 322.427863 
C 51.40498 321.374059 51.959958 320.238832 52.368682 319.048261 
L 37.986207 314.11075 
L 48.285221 325.298462 
z
" style="fill:#1f77b4;"/>
   </g>
   <g id="patch_97">
    <path d="M 52.368682 319.048261 
C 52.504768 318.651854 52.624408 318.249991 52.727295 317.843701 
C 52.830182 317.437411 52.916227 317.027041 52.985211 316.613642 
L 37.986207 314.11075 
L 52.368682 319.048261 
z
" style="fill:#9467bd;"/>
   </g>
   <g id="patch_98">
    <path d="M 52.985211 316.613642 
C 53.054195 316.200243 53.106059 315.784169 53.140669 315.366485 
C 53.17528 314.948802 53.192607 314.529866 53.192607 314.110751 
L 37.986207 314.11075 
L 52.985211 316.613642 
z
" style="fill:#2ca02c;"/>
   </g>
   <g id="matplotlib.axis_33"/>
   <g id="matplotlib.axis_34"/>
  </g>
  <g id="axes_27">
   <g id="patch_99">
    <path d="M 127.079503 314.11075 
C 127.079503 311.441668 126.376773 308.819043 125.042232 306.50755 
C 123.707691 304.196057 121.787796 302.276162 119.476303 300.941621 
C 117.16481 299.60708 114.542185 298.90435 111.873103 298.90435 
C 109.204021 298.90435 106.581395 299.607081 104.269903 300.941622 
L 111.873103 314.11075 
L 127.079503 314.11075 
z
" style="fill:#2ca02c;"/>
   </g>
   <g id="patch_100">
    <path d="M 104.269903 300.941622 
C 101.95841 302.276163 100.038515 304.196058 98.703974 306.507551 
C 97.369433 308.819044 96.666703 311.441669 96.666703 314.110751 
C 96.666704 316.779834 97.369434 319.402459 98.703976 321.713951 
C 100.038517 324.025444 101.958412 325.945339 104.269905 327.27988 
C 106.581398 328.61442 109.204024 329.31715 111.873106 329.31715 
C 114.542188 329.31715 117.164813 328.614419 119.476306 327.279878 
C 121.787798 325.945336 123.707693 324.025441 125.042233 321.713948 
C 126.376774 319.402455 127.079504 316.779829 127.079503 314.110747 
L 111.873103 314.11075 
L 104.269903 300.941622 
z
" style="fill:#9467bd;"/>
   </g>
   <g id="matplotlib.axis_35"/>
   <g id="matplotlib.axis_36"/>
  </g>
  <g id="axes_28">
   <g id="patch_101">
    <path d="M 200.9664 314.11075 
C 200.9664 312.188267 200.601823 310.283108 199.89203 308.496454 
C 199.182238 306.709799 198.140022 305.073848 196.820734 303.675485 
C 195.501447 302.277122 193.928863 301.141547 192.186502 300.329071 
C 190.444141 299.516595 188.563403 299.041859 186.644173 298.930077 
C 184.724943 298.818294 182.801809 299.07148 180.976906 299.676187 
C 179.152003 300.280894 177.458221 301.226224 175.985514 302.461972 
C 174.512807 303.69772 173.287716 305.201616 172.375305 306.893788 
C 171.462894 308.58596 170.879607 310.435912 170.65642 312.345396 
C 170.433234 314.254879 170.574171 316.189481 171.071746 318.046457 
C 171.569321 319.903433 172.414567 321.649316 173.562595 323.191383 
C 174.710622 324.733451 176.14074 326.043913 177.776997 327.053171 
C 179.413255 328.06243 181.226162 328.752295 183.119438 329.086131 
C 185.012714 329.419966 186.952238 329.391755 188.835003 329.002995 
C 190.717768 328.614235 192.509844 327.871933 194.116055 326.815511 
C 195.722266 325.759089 197.113664 324.407587 198.216355 322.832781 
C 199.319045 321.257975 200.113155 319.488247 200.55651 317.617585 
L 185.76 314.11075 
L 200.9664 314.11075 
z
" style="fill:#1f77b4;"/>
   </g>
   <g id="patch_102">
    <path d="M 200.55651 317.617585 
C 200.692561 317.043539 200.795091 316.462062 200.86358 315.876103 
C 200.932069 315.290144 200.9664 314.700696 200.9664 314.110748 
L 185.76 314.11075 
L 200.55651 317.617585 
z
" style="fill:#98df8a;"/>
   </g>
   <g id="matplotlib.axis_37"/>
   <g id="matplotlib.axis_38"/>
  </g>
  <g id="axes_29">
   <g id="patch_103">
    <path d="M 274.853297 314.11075 
C 274.853297 310.232099 273.369323 306.496713 270.707631 303.675485 
C 268.045939 300.854257 264.403158 299.1556 260.53107 298.930077 
L 259.646897 314.11075 
L 274.853297 314.11075 
z
" style="fill:#98df8a;"/>
   </g>
   <g id="patch_104">
    <path d="M 260.53107 298.930077 
C 257.688547 298.764519 254.855864 299.400619 252.357039 300.765617 
C 249.858214 302.130615 247.792302 304.170401 246.395615 306.651652 
L 259.646897 314.11075 
L 260.53107 298.930077 
z
" style="fill:#17becf;"/>
   </g>
   <g id="patch_105">
    <path d="M 246.395615 306.651652 
C 246.348151 306.735973 246.301493 306.820745 246.255647 306.905957 
C 246.209802 306.991168 246.16477 307.076816 246.120559 307.162887 
L 259.646897 314.11075 
L 246.395615 306.651652 
z
"/>
   </g>
   <g id="patch_106">
    <path d="M 246.120559 307.162887 
C 244.917099 309.505824 244.342776 312.121735 244.454079 314.753328 
C 244.565382 317.384922 245.358538 319.942995 246.755535 322.175946 
C 248.152532 324.408898 250.106016 326.241037 252.42385 327.492163 
C 254.741685 328.743288 257.345303 329.37099 259.978622 329.313531 
L 259.646897 314.11075 
L 246.120559 307.162887 
z
" style="fill:#9467bd;"/>
   </g>
   <g id="patch_107">
    <path d="M 259.978622 329.313531 
C 260.079967 329.31132 260.181288 329.308095 260.282569 329.303858 
C 260.38385 329.29962 260.485086 329.29437 260.586262 329.288108 
L 259.646897 314.11075 
L 259.978622 329.313531 
z
" style="fill:#aec7e8;"/>
   </g>
   <g id="patch_108">
    <path d="M 260.586262 329.288108 
C 261.046228 329.259639 261.504662 329.210276 261.960145 329.140171 
C 262.415628 329.070065 262.867688 328.97929 263.314926 328.868126 
L 259.646897 314.11075 
L 260.586262 329.288108 
z
" style="fill:#c7c7c7;"/>
   </g>
   <g id="patch_109">
    <path d="M 263.314926 328.868126 
C 263.341756 328.861458 263.368567 328.854716 263.39536 328.847901 
C 263.422153 328.841086 263.448928 328.834198 263.475683 328.827237 
L 259.646897 314.11075 
L 263.314926 328.868126 
z
" style="fill:#1f77b4;"/>
   </g>
   <g id="patch_110">
    <path d="M 263.475683 328.827237 
C 263.489061 328.823757 263.502433 328.820258 263.515802 328.816741 
C 263.52917 328.813224 263.542533 328.809689 263.555891 328.806136 
L 259.646897 314.11075 
L 263.475683 328.827237 
z
"/>
   </g>
   <g id="patch_111">
    <path d="M 263.555891 328.806136 
C 266.40746 328.047614 268.977527 326.475245 270.951153 324.281708 
C 272.924778 322.088172 274.21791 319.366885 274.672086 316.45132 
L 259.646897 314.11075 
L 263.555891 328.806136 
z
" style="fill:#2ca02c;"/>
   </g>
   <g id="patch_112">
    <path d="M 274.672086 316.45132 
C 274.683434 316.378476 274.694251 316.30555 274.704538 316.232548 
C 274.714825 316.159546 274.724581 316.08647 274.733805 316.013327 
L 259.646897 314.11075 
L 274.672086 316.45132 
z
" style="fill:#ff7f0e;"/>
   </g>
   <g id="patch_113">
    <path d="M 274.733805 316.013327 
C 274.744182 315.93104 274.753886 315.848669 274.762915 315.766224 
C 274.771944 315.683778 274.780299 315.60126 274.787978 315.518678 
L 259.646897 314.11075 
L 274.733805 316.013327 
z
" style="fill:#ff9896;"/>
   </g>
   <g id="patch_114">
    <path d="M 274.787978 315.518678 
C 274.798643 315.40398 274.808005 315.289164 274.816061 315.174253 
C 274.824118 315.059342 274.830868 314.944344 274.836311 314.829279 
L 259.646897 314.11075 
L 274.787978 315.518678 
z
" style="fill:#7f7f7f;"/>
   </g>
   <g id="patch_115">
    <path d="M 274.836311 314.829279 
C 274.838271 314.787857 274.840061 314.746426 274.841681 314.704989 
C 274.843302 314.663551 274.844753 314.622107 274.846034 314.580658 
L 259.646897 314.11075 
L 274.836311 314.829279 
z
" style="fill:#dbdb8d;"/>
   </g>
   <g id="patch_116">
    <path d="M 274.846034 314.580658 
C 274.846177 314.576053 274.846317 314.571447 274.846455 314.566842 
C 274.846593 314.562236 274.846729 314.55763 274.846863 314.553025 
L 259.646897 314.11075 
L 274.846034 314.580658 
z
" style="fill:#e377c2;"/>
   </g>
   <g id="patch_117">
    <path d="M 274.846863 314.553025 
C 274.84807 314.511573 274.849106 314.470117 274.849973 314.428657 
C 274.85084 314.387197 274.851537 314.345733 274.852065 314.304268 
L 259.646897 314.11075 
L 274.846863 314.553025 
z
" style="fill:#c49c94;"/>
   </g>
   <g id="patch_118">
    <path d="M 274.852065 314.304268 
C 274.852124 314.29966 274.85218 314.295053 274.852235 314.290446 
C 274.852289 314.285838 274.852342 314.281231 274.852392 314.276623 
L 259.646897 314.11075 
L 274.852065 314.304268 
z
"/>
   </g>
   <g id="patch_119">
    <path d="M 274.852392 314.276623 
C 274.852442 314.272016 274.85249 314.267409 274.852536 314.262801 
C 274.852582 314.258194 274.852626 314.253586 274.852668 314.248979 
L 259.646897 314.11075 
L 274.852392 314.276623 
z
"/>
   </g>
   <g id="patch_120">
    <path d="M 274.852668 314.248979 
C 274.85271 314.244371 274.85275 314.239764 274.852788 314.235156 
C 274.852825 314.230549 274.852861 314.225941 274.852894 314.221334 
L 259.646897 314.11075 
L 274.852668 314.248979 
z
"/>
   </g>
   <g id="patch_121">
    <path d="M 274.852894 314.221334 
C 274.852961 314.212119 274.85302 314.202903 274.85307 314.193688 
C 274.853121 314.184473 274.853163 314.175258 274.853196 314.166043 
L 259.646897 314.11075 
L 274.852894 314.221334 
z
"/>
   </g>
   <g id="patch_122">
    <path d="M 274.853196 314.166043 
C 274.853213 314.161435 274.853227 314.156827 274.85324 314.15222 
C 274.853253 314.147612 274.853263 314.143004 274.853271 314.138397 
L 259.646897 314.11075 
L 274.853196 314.166043 
z
"/>
   </g>
   <g id="patch_123">
    <path d="M 274.853271 314.138397 
C 274.85328 314.133789 274.853286 314.129181 274.85329 314.124574 
C 274.853294 314.119966 274.853297 314.115358 274.853297 314.110751 
L 259.646897 314.11075 
L 274.853271 314.138397 
z
"/>
   </g>
   <g id="matplotlib.axis_39"/>
   <g id="matplotlib.axis_40"/>
  </g>
  <g id="axes_30">
   <g id="legend_1">
    <g id="patch_124">
     <path d="M 368.782897 333.11875 
L 520.171959 333.11875 
Q 522.171959 333.11875 522.171959 331.11875 
L 522.171959 9.2 
Q 522.171959 7.2 520.171959 7.2 
L 368.782897 7.2 
Q 366.782897 7.2 366.782897 9.2 
L 366.782897 331.11875 
Q 366.782897 333.11875 368.782897 333.11875 
z
" style="fill:#ffffff;opacity:0.8;stroke:#cccccc;stroke-linejoin:miter;"/>
    </g>
    <g id="line2d_1"/>
    <g id="line2d_2">
     <defs>
      <path d="M 0 3 
C 0.795609 3 1.55874 2.683901 2.12132 2.12132 
C 2.683901 1.55874 3 0.795609 3 0 
C 3 -0.795609 2.683901 -1.55874 2.12132 -2.12132 
C 1.55874 -2.683901 0.795609 -3 0 -3 
C -0.795609 -3 -1.55874 -2.683901 -2.12132 -2.12132 
C -2.683901 -1.55874 -3 -0.795609 -3 0 
C -3 0.795609 -2.683901 1.55874 -2.12132 2.12132 
C -1.55874 2.683901 -0.795609 3 0 3 
z
" id="m64496b064a" style="stroke:#1f77b4;"/>
     </defs>
     <g>
      <use style="fill:#1f77b4;stroke:#1f77b4;" x="380.782897" xlink:href="#m64496b064a" y="15.298437"/>
     </g>
    </g>
    <g id="text_1">
     <!-- Aenigmarchaeota -->
     <g transform="translate(398.782897 18.798437)scale(0.1 -0.1)">
      <defs>
       <path d="M 2188 4044 
L 1331 1722 
L 3047 1722 
L 2188 4044 
z
M 1831 4666 
L 2547 4666 
L 4325 0 
L 3669 0 
L 3244 1197 
L 1141 1197 
L 716 0 
L 50 0 
L 1831 4666 
z
" id="DejaVuSans-41" transform="scale(0.015625)"/>
       <path d="M 3597 1894 
L 3597 1613 
L 953 1613 
Q 991 1019 1311 708 
Q 1631 397 2203 397 
Q 2534 397 2845 478 
Q 3156 559 3463 722 
L 3463 178 
Q 3153 47 2828 -22 
Q 2503 -91 2169 -91 
Q 1331 -91 842 396 
Q 353 884 353 1716 
Q 353 2575 817 3079 
Q 1281 3584 2069 3584 
Q 2775 3584 3186 3129 
Q 3597 2675 3597 1894 
z
M 3022 2063 
Q 3016 2534 2758 2815 
Q 2500 3097 2075 3097 
Q 1594 3097 1305 2825 
Q 1016 2553 972 2059 
L 3022 2063 
z
" id="DejaVuSans-65" transform="scale(0.015625)"/>
       <path d="M 3513 2113 
L 3513 0 
L 2938 0 
L 2938 2094 
Q 2938 2591 2744 2837 
Q 2550 3084 2163 3084 
Q 1697 3084 1428 2787 
Q 1159 2491 1159 1978 
L 1159 0 
L 581 0 
L 581 3500 
L 1159 3500 
L 1159 2956 
Q 1366 3272 1645 3428 
Q 1925 3584 2291 3584 
Q 2894 3584 3203 3211 
Q 3513 2838 3513 2113 
z
" id="DejaVuSans-6e" transform="scale(0.015625)"/>
       <path d="M 603 3500 
L 1178 3500 
L 1178 0 
L 603 0 
L 603 3500 
z
M 603 4863 
L 1178 4863 
L 1178 4134 
L 603 4134 
L 603 4863 
z
" id="DejaVuSans-69" transform="scale(0.015625)"/>
       <path d="M 2906 1791 
Q 2906 2416 2648 2759 
Q 2391 3103 1925 3103 
Q 1463 3103 1205 2759 
Q 947 2416 947 1791 
Q 947 1169 1205 825 
Q 1463 481 1925 481 
Q 2391 481 2648 825 
Q 2906 1169 2906 1791 
z
M 3481 434 
Q 3481 -459 3084 -895 
Q 2688 -1331 1869 -1331 
Q 1566 -1331 1297 -1286 
Q 1028 -1241 775 -1147 
L 775 -588 
Q 1028 -725 1275 -790 
Q 1522 -856 1778 -856 
Q 2344 -856 2625 -561 
Q 2906 -266 2906 331 
L 2906 616 
Q 2728 306 2450 153 
Q 2172 0 1784 0 
Q 1141 0 747 490 
Q 353 981 353 1791 
Q 353 2603 747 3093 
Q 1141 3584 1784 3584 
Q 2172 3584 2450 3431 
Q 2728 3278 2906 2969 
L 2906 3500 
L 3481 3500 
L 3481 434 
z
" id="DejaVuSans-67" transform="scale(0.015625)"/>
       <path d="M 3328 2828 
Q 3544 3216 3844 3400 
Q 4144 3584 4550 3584 
Q 5097 3584 5394 3201 
Q 5691 2819 5691 2113 
L 5691 0 
L 5113 0 
L 5113 2094 
Q 5113 2597 4934 2840 
Q 4756 3084 4391 3084 
Q 3944 3084 3684 2787 
Q 3425 2491 3425 1978 
L 3425 0 
L 2847 0 
L 2847 2094 
Q 2847 2600 2669 2842 
Q 2491 3084 2119 3084 
Q 1678 3084 1418 2786 
Q 1159 2488 1159 1978 
L 1159 0 
L 581 0 
L 581 3500 
L 1159 3500 
L 1159 2956 
Q 1356 3278 1631 3431 
Q 1906 3584 2284 3584 
Q 2666 3584 2933 3390 
Q 3200 3197 3328 2828 
z
" id="DejaVuSans-6d" transform="scale(0.015625)"/>
       <path d="M 2194 1759 
Q 1497 1759 1228 1600 
Q 959 1441 959 1056 
Q 959 750 1161 570 
Q 1363 391 1709 391 
Q 2188 391 2477 730 
Q 2766 1069 2766 1631 
L 2766 1759 
L 2194 1759 
z
M 3341 1997 
L 3341 0 
L 2766 0 
L 2766 531 
Q 2569 213 2275 61 
Q 1981 -91 1556 -91 
Q 1019 -91 701 211 
Q 384 513 384 1019 
Q 384 1609 779 1909 
Q 1175 2209 1959 2209 
L 2766 2209 
L 2766 2266 
Q 2766 2663 2505 2880 
Q 2244 3097 1772 3097 
Q 1472 3097 1187 3025 
Q 903 2953 641 2809 
L 641 3341 
Q 956 3463 1253 3523 
Q 1550 3584 1831 3584 
Q 2591 3584 2966 3190 
Q 3341 2797 3341 1997 
z
" id="DejaVuSans-61" transform="scale(0.015625)"/>
       <path d="M 2631 2963 
Q 2534 3019 2420 3045 
Q 2306 3072 2169 3072 
Q 1681 3072 1420 2755 
Q 1159 2438 1159 1844 
L 1159 0 
L 581 0 
L 581 3500 
L 1159 3500 
L 1159 2956 
Q 1341 3275 1631 3429 
Q 1922 3584 2338 3584 
Q 2397 3584 2469 3576 
Q 2541 3569 2628 3553 
L 2631 2963 
z
" id="DejaVuSans-72" transform="scale(0.015625)"/>
       <path d="M 3122 3366 
L 3122 2828 
Q 2878 2963 2633 3030 
Q 2388 3097 2138 3097 
Q 1578 3097 1268 2742 
Q 959 2388 959 1747 
Q 959 1106 1268 751 
Q 1578 397 2138 397 
Q 2388 397 2633 464 
Q 2878 531 3122 666 
L 3122 134 
Q 2881 22 2623 -34 
Q 2366 -91 2075 -91 
Q 1284 -91 818 406 
Q 353 903 353 1747 
Q 353 2603 823 3093 
Q 1294 3584 2113 3584 
Q 2378 3584 2631 3529 
Q 2884 3475 3122 3366 
z
" id="DejaVuSans-63" transform="scale(0.015625)"/>
       <path d="M 3513 2113 
L 3513 0 
L 2938 0 
L 2938 2094 
Q 2938 2591 2744 2837 
Q 2550 3084 2163 3084 
Q 1697 3084 1428 2787 
Q 1159 2491 1159 1978 
L 1159 0 
L 581 0 
L 581 4863 
L 1159 4863 
L 1159 2956 
Q 1366 3272 1645 3428 
Q 1925 3584 2291 3584 
Q 2894 3584 3203 3211 
Q 3513 2838 3513 2113 
z
" id="DejaVuSans-68" transform="scale(0.015625)"/>
       <path d="M 1959 3097 
Q 1497 3097 1228 2736 
Q 959 2375 959 1747 
Q 959 1119 1226 758 
Q 1494 397 1959 397 
Q 2419 397 2687 759 
Q 2956 1122 2956 1747 
Q 2956 2369 2687 2733 
Q 2419 3097 1959 3097 
z
M 1959 3584 
Q 2709 3584 3137 3096 
Q 3566 2609 3566 1747 
Q 3566 888 3137 398 
Q 2709 -91 1959 -91 
Q 1206 -91 779 398 
Q 353 888 353 1747 
Q 353 2609 779 3096 
Q 1206 3584 1959 3584 
z
" id="DejaVuSans-6f" transform="scale(0.015625)"/>
       <path d="M 1172 4494 
L 1172 3500 
L 2356 3500 
L 2356 3053 
L 1172 3053 
L 1172 1153 
Q 1172 725 1289 603 
Q 1406 481 1766 481 
L 2356 481 
L 2356 0 
L 1766 0 
Q 1100 0 847 248 
Q 594 497 594 1153 
L 594 3053 
L 172 3053 
L 172 3500 
L 594 3500 
L 594 4494 
L 1172 4494 
z
" id="DejaVuSans-74" transform="scale(0.015625)"/>
      </defs>
      <use xlink:href="#DejaVuSans-41"/>
      <use x="66.658203" xlink:href="#DejaVuSans-65"/>
      <use x="128.181641" xlink:href="#DejaVuSans-6e"/>
      <use x="191.560547" xlink:href="#DejaVuSans-69"/>
      <use x="219.34375" xlink:href="#DejaVuSans-67"/>
      <use x="282.820312" xlink:href="#DejaVuSans-6d"/>
      <use x="380.232422" xlink:href="#DejaVuSans-61"/>
      <use x="441.511719" xlink:href="#DejaVuSans-72"/>
      <use x="480.375" xlink:href="#DejaVuSans-63"/>
      <use x="535.355469" xlink:href="#DejaVuSans-68"/>
      <use x="598.734375" xlink:href="#DejaVuSans-61"/>
      <use x="660.013672" xlink:href="#DejaVuSans-65"/>
      <use x="721.537109" xlink:href="#DejaVuSans-6f"/>
      <use x="782.71875" xlink:href="#DejaVuSans-74"/>
      <use x="821.927734" xlink:href="#DejaVuSans-61"/>
     </g>
    </g>
    <g id="line2d_3"/>
    <g id="line2d_4">
     <defs>
      <path d="M 0 3 
C 0.795609 3 1.55874 2.683901 2.12132 2.12132 
C 2.683901 1.55874 3 0.795609 3 0 
C 3 -0.795609 2.683901 -1.55874 2.12132 -2.12132 
C 1.55874 -2.683901 0.795609 -3 0 -3 
C -0.795609 -3 -1.55874 -2.683901 -2.12132 -2.12132 
C -2.683901 -1.55874 -3 -0.795609 -3 0 
C -3 0.795609 -2.683901 1.55874 -2.12132 2.12132 
C -1.55874 2.683901 -0.795609 3 0 3 
z
" id="m0b1c27a643" style="stroke:#aec7e8;"/>
     </defs>
     <g>
      <use style="fill:#aec7e8;stroke:#aec7e8;" x="380.782897" xlink:href="#m0b1c27a643" y="29.976562"/>
     </g>
    </g>
    <g id="text_2">
     <!-- Altiarchaeota -->
     <g transform="translate(398.782897 33.476562)scale(0.1 -0.1)">
      <defs>
       <path d="M 603 4863 
L 1178 4863 
L 1178 0 
L 603 0 
L 603 4863 
z
" id="DejaVuSans-6c" transform="scale(0.015625)"/>
      </defs>
      <use xlink:href="#DejaVuSans-41"/>
      <use x="68.408203" xlink:href="#DejaVuSans-6c"/>
      <use x="96.191406" xlink:href="#DejaVuSans-74"/>
      <use x="135.400391" xlink:href="#DejaVuSans-69"/>
      <use x="163.183594" xlink:href="#DejaVuSans-61"/>
      <use x="224.462891" xlink:href="#DejaVuSans-72"/>
      <use x="263.326172" xlink:href="#DejaVuSans-63"/>
      <use x="318.306641" xlink:href="#DejaVuSans-68"/>
      <use x="381.685547" xlink:href="#DejaVuSans-61"/>
      <use x="442.964844" xlink:href="#DejaVuSans-65"/>
      <use x="504.488281" xlink:href="#DejaVuSans-6f"/>
      <use x="565.669922" xlink:href="#DejaVuSans-74"/>
      <use x="604.878906" xlink:href="#DejaVuSans-61"/>
     </g>
    </g>
    <g id="line2d_5"/>
    <g id="line2d_6">
     <defs>
      <path d="M 0 3 
C 0.795609 3 1.55874 2.683901 2.12132 2.12132 
C 2.683901 1.55874 3 0.795609 3 0 
C 3 -0.795609 2.683901 -1.55874 2.12132 -2.12132 
C 1.55874 -2.683901 0.795609 -3 0 -3 
C -0.795609 -3 -1.55874 -2.683901 -2.12132 -2.12132 
C -2.683901 -1.55874 -3 -0.795609 -3 0 
C -3 0.795609 -2.683901 1.55874 -2.12132 2.12132 
C -1.55874 2.683901 -0.795609 3 0 3 
z
" id="mca6ca9389b" style="stroke:#ff7f0e;"/>
     </defs>
     <g>
      <use style="fill:#ff7f0e;stroke:#ff7f0e;" x="380.782897" xlink:href="#mca6ca9389b" y="44.654687"/>
     </g>
    </g>
    <g id="text_3">
     <!-- Asgardarchaeota -->
     <g transform="translate(398.782897 48.154687)scale(0.1 -0.1)">
      <defs>
       <path d="M 2834 3397 
L 2834 2853 
Q 2591 2978 2328 3040 
Q 2066 3103 1784 3103 
Q 1356 3103 1142 2972 
Q 928 2841 928 2578 
Q 928 2378 1081 2264 
Q 1234 2150 1697 2047 
L 1894 2003 
Q 2506 1872 2764 1633 
Q 3022 1394 3022 966 
Q 3022 478 2636 193 
Q 2250 -91 1575 -91 
Q 1294 -91 989 -36 
Q 684 19 347 128 
L 347 722 
Q 666 556 975 473 
Q 1284 391 1588 391 
Q 1994 391 2212 530 
Q 2431 669 2431 922 
Q 2431 1156 2273 1281 
Q 2116 1406 1581 1522 
L 1381 1569 
Q 847 1681 609 1914 
Q 372 2147 372 2553 
Q 372 3047 722 3315 
Q 1072 3584 1716 3584 
Q 2034 3584 2315 3537 
Q 2597 3491 2834 3397 
z
" id="DejaVuSans-73" transform="scale(0.015625)"/>
       <path d="M 2906 2969 
L 2906 4863 
L 3481 4863 
L 3481 0 
L 2906 0 
L 2906 525 
Q 2725 213 2448 61 
Q 2172 -91 1784 -91 
Q 1150 -91 751 415 
Q 353 922 353 1747 
Q 353 2572 751 3078 
Q 1150 3584 1784 3584 
Q 2172 3584 2448 3432 
Q 2725 3281 2906 2969 
z
M 947 1747 
Q 947 1113 1208 752 
Q 1469 391 1925 391 
Q 2381 391 2643 752 
Q 2906 1113 2906 1747 
Q 2906 2381 2643 2742 
Q 2381 3103 1925 3103 
Q 1469 3103 1208 2742 
Q 947 2381 947 1747 
z
" id="DejaVuSans-64" transform="scale(0.015625)"/>
      </defs>
      <use xlink:href="#DejaVuSans-41"/>
      <use x="68.408203" xlink:href="#DejaVuSans-73"/>
      <use x="120.507812" xlink:href="#DejaVuSans-67"/>
      <use x="183.984375" xlink:href="#DejaVuSans-61"/>
      <use x="245.263672" xlink:href="#DejaVuSans-72"/>
      <use x="284.626953" xlink:href="#DejaVuSans-64"/>
      <use x="348.103516" xlink:href="#DejaVuSans-61"/>
      <use x="409.382812" xlink:href="#DejaVuSans-72"/>
      <use x="448.246094" xlink:href="#DejaVuSans-63"/>
      <use x="503.226562" xlink:href="#DejaVuSans-68"/>
      <use x="566.605469" xlink:href="#DejaVuSans-61"/>
      <use x="627.884766" xlink:href="#DejaVuSans-65"/>
      <use x="689.408203" xlink:href="#DejaVuSans-6f"/>
      <use x="750.589844" xlink:href="#DejaVuSans-74"/>
      <use x="789.798828" xlink:href="#DejaVuSans-61"/>
     </g>
    </g>
    <g id="line2d_7"/>
    <g id="line2d_8">
     <defs>
      <path d="M 0 3 
C 0.795609 3 1.55874 2.683901 2.12132 2.12132 
C 2.683901 1.55874 3 0.795609 3 0 
C 3 -0.795609 2.683901 -1.55874 2.12132 -2.12132 
C 1.55874 -2.683901 0.795609 -3 0 -3 
C -0.795609 -3 -1.55874 -2.683901 -2.12132 -2.12132 
C -2.683901 -1.55874 -3 -0.795609 -3 0 
C -3 0.795609 -2.683901 1.55874 -2.12132 2.12132 
C -1.55874 2.683901 -0.795609 3 0 3 
z
" id="mda88a2fdd0" style="stroke:#2ca02c;"/>
     </defs>
     <g>
      <use style="fill:#2ca02c;stroke:#2ca02c;" x="380.782897" xlink:href="#mda88a2fdd0" y="59.332812"/>
     </g>
    </g>
    <g id="text_4">
     <!-- Crenarchaeota -->
     <g transform="translate(398.782897 62.832812)scale(0.1 -0.1)">
      <defs>
       <path d="M 4122 4306 
L 4122 3641 
Q 3803 3938 3442 4084 
Q 3081 4231 2675 4231 
Q 1875 4231 1450 3742 
Q 1025 3253 1025 2328 
Q 1025 1406 1450 917 
Q 1875 428 2675 428 
Q 3081 428 3442 575 
Q 3803 722 4122 1019 
L 4122 359 
Q 3791 134 3420 21 
Q 3050 -91 2638 -91 
Q 1578 -91 968 557 
Q 359 1206 359 2328 
Q 359 3453 968 4101 
Q 1578 4750 2638 4750 
Q 3056 4750 3426 4639 
Q 3797 4528 4122 4306 
z
" id="DejaVuSans-43" transform="scale(0.015625)"/>
      </defs>
      <use xlink:href="#DejaVuSans-43"/>
      <use x="69.824219" xlink:href="#DejaVuSans-72"/>
      <use x="108.6875" xlink:href="#DejaVuSans-65"/>
      <use x="170.210938" xlink:href="#DejaVuSans-6e"/>
      <use x="233.589844" xlink:href="#DejaVuSans-61"/>
      <use x="294.869141" xlink:href="#DejaVuSans-72"/>
      <use x="333.732422" xlink:href="#DejaVuSans-63"/>
      <use x="388.712891" xlink:href="#DejaVuSans-68"/>
      <use x="452.091797" xlink:href="#DejaVuSans-61"/>
      <use x="513.371094" xlink:href="#DejaVuSans-65"/>
      <use x="574.894531" xlink:href="#DejaVuSans-6f"/>
      <use x="636.076172" xlink:href="#DejaVuSans-74"/>
      <use x="675.285156" xlink:href="#DejaVuSans-61"/>
     </g>
    </g>
    <g id="line2d_9"/>
    <g id="line2d_10">
     <defs>
      <path d="M 0 3 
C 0.795609 3 1.55874 2.683901 2.12132 2.12132 
C 2.683901 1.55874 3 0.795609 3 0 
C 3 -0.795609 2.683901 -1.55874 2.12132 -2.12132 
C 1.55874 -2.683901 0.795609 -3 0 -3 
C -0.795609 -3 -1.55874 -2.683901 -2.12132 -2.12132 
C -2.683901 -1.55874 -3 -0.795609 -3 0 
C -3 0.795609 -2.683901 1.55874 -2.12132 2.12132 
C -1.55874 2.683901 -0.795609 3 0 3 
z
" id="m6b7362e24a" style="stroke:#98df8a;"/>
     </defs>
     <g>
      <use style="fill:#98df8a;stroke:#98df8a;" x="380.782897" xlink:href="#m6b7362e24a" y="74.010938"/>
     </g>
    </g>
    <g id="text_5">
     <!-- Euryarchaeota -->
     <g transform="translate(398.782897 77.510938)scale(0.1 -0.1)">
      <defs>
       <path d="M 628 4666 
L 3578 4666 
L 3578 4134 
L 1259 4134 
L 1259 2753 
L 3481 2753 
L 3481 2222 
L 1259 2222 
L 1259 531 
L 3634 531 
L 3634 0 
L 628 0 
L 628 4666 
z
" id="DejaVuSans-45" transform="scale(0.015625)"/>
       <path d="M 544 1381 
L 544 3500 
L 1119 3500 
L 1119 1403 
Q 1119 906 1312 657 
Q 1506 409 1894 409 
Q 2359 409 2629 706 
Q 2900 1003 2900 1516 
L 2900 3500 
L 3475 3500 
L 3475 0 
L 2900 0 
L 2900 538 
Q 2691 219 2414 64 
Q 2138 -91 1772 -91 
Q 1169 -91 856 284 
Q 544 659 544 1381 
z
M 1991 3584 
L 1991 3584 
z
" id="DejaVuSans-75" transform="scale(0.015625)"/>
       <path d="M 2059 -325 
Q 1816 -950 1584 -1140 
Q 1353 -1331 966 -1331 
L 506 -1331 
L 506 -850 
L 844 -850 
Q 1081 -850 1212 -737 
Q 1344 -625 1503 -206 
L 1606 56 
L 191 3500 
L 800 3500 
L 1894 763 
L 2988 3500 
L 3597 3500 
L 2059 -325 
z
" id="DejaVuSans-79" transform="scale(0.015625)"/>
      </defs>
      <use xlink:href="#DejaVuSans-45"/>
      <use x="63.183594" xlink:href="#DejaVuSans-75"/>
      <use x="126.5625" xlink:href="#DejaVuSans-72"/>
      <use x="167.675781" xlink:href="#DejaVuSans-79"/>
      <use x="226.855469" xlink:href="#DejaVuSans-61"/>
      <use x="288.134766" xlink:href="#DejaVuSans-72"/>
      <use x="326.998047" xlink:href="#DejaVuSans-63"/>
      <use x="381.978516" xlink:href="#DejaVuSans-68"/>
      <use x="445.357422" xlink:href="#DejaVuSans-61"/>
      <use x="506.636719" xlink:href="#DejaVuSans-65"/>
      <use x="568.160156" xlink:href="#DejaVuSans-6f"/>
      <use x="629.341797" xlink:href="#DejaVuSans-74"/>
      <use x="668.550781" xlink:href="#DejaVuSans-61"/>
     </g>
    </g>
    <g id="line2d_11"/>
    <g id="line2d_12">
     <defs>
      <path d="M 0 3 
C 0.795609 3 1.55874 2.683901 2.12132 2.12132 
C 2.683901 1.55874 3 0.795609 3 0 
C 3 -0.795609 2.683901 -1.55874 2.12132 -2.12132 
C 1.55874 -2.683901 0.795609 -3 0 -3 
C -0.795609 -3 -1.55874 -2.683901 -2.12132 -2.12132 
C -2.683901 -1.55874 -3 -0.795609 -3 0 
C -3 0.795609 -2.683901 1.55874 -2.12132 2.12132 
C -1.55874 2.683901 -0.795609 3 0 3 
z
" id="mea9594550b" style="stroke:#ff9896;"/>
     </defs>
     <g>
      <use style="fill:#ff9896;stroke:#ff9896;" x="380.782897" xlink:href="#mea9594550b" y="88.689062"/>
     </g>
    </g>
    <g id="text_6">
     <!-- Hadarchaeota -->
     <g transform="translate(398.782897 92.189062)scale(0.1 -0.1)">
      <defs>
       <path d="M 628 4666 
L 1259 4666 
L 1259 2753 
L 3553 2753 
L 3553 4666 
L 4184 4666 
L 4184 0 
L 3553 0 
L 3553 2222 
L 1259 2222 
L 1259 0 
L 628 0 
L 628 4666 
z
" id="DejaVuSans-48" transform="scale(0.015625)"/>
      </defs>
      <use xlink:href="#DejaVuSans-48"/>
      <use x="75.195312" xlink:href="#DejaVuSans-61"/>
      <use x="136.474609" xlink:href="#DejaVuSans-64"/>
      <use x="199.951172" xlink:href="#DejaVuSans-61"/>
      <use x="261.230469" xlink:href="#DejaVuSans-72"/>
      <use x="300.09375" xlink:href="#DejaVuSans-63"/>
      <use x="355.074219" xlink:href="#DejaVuSans-68"/>
      <use x="418.453125" xlink:href="#DejaVuSans-61"/>
      <use x="479.732422" xlink:href="#DejaVuSans-65"/>
      <use x="541.255859" xlink:href="#DejaVuSans-6f"/>
      <use x="602.4375" xlink:href="#DejaVuSans-74"/>
      <use x="641.646484" xlink:href="#DejaVuSans-61"/>
     </g>
    </g>
    <g id="line2d_13"/>
    <g id="line2d_14">
     <defs>
      <path d="M 0 3 
C 0.795609 3 1.55874 2.683901 2.12132 2.12132 
C 2.683901 1.55874 3 0.795609 3 0 
C 3 -0.795609 2.683901 -1.55874 2.12132 -2.12132 
C 1.55874 -2.683901 0.795609 -3 0 -3 
C -0.795609 -3 -1.55874 -2.683901 -2.12132 -2.12132 
C -2.683901 -1.55874 -3 -0.795609 -3 0 
C -3 0.795609 -2.683901 1.55874 -2.12132 2.12132 
C -1.55874 2.683901 -0.795609 3 0 3 
z
" id="m673cb18cdf" style="stroke:#9467bd;"/>
     </defs>
     <g>
      <use style="fill:#9467bd;stroke:#9467bd;" x="380.782897" xlink:href="#m673cb18cdf" y="103.367188"/>
     </g>
    </g>
    <g id="text_7">
     <!-- Halobacterota -->
     <g transform="translate(398.782897 106.867188)scale(0.1 -0.1)">
      <defs>
       <path d="M 3116 1747 
Q 3116 2381 2855 2742 
Q 2594 3103 2138 3103 
Q 1681 3103 1420 2742 
Q 1159 2381 1159 1747 
Q 1159 1113 1420 752 
Q 1681 391 2138 391 
Q 2594 391 2855 752 
Q 3116 1113 3116 1747 
z
M 1159 2969 
Q 1341 3281 1617 3432 
Q 1894 3584 2278 3584 
Q 2916 3584 3314 3078 
Q 3713 2572 3713 1747 
Q 3713 922 3314 415 
Q 2916 -91 2278 -91 
Q 1894 -91 1617 61 
Q 1341 213 1159 525 
L 1159 0 
L 581 0 
L 581 4863 
L 1159 4863 
L 1159 2969 
z
" id="DejaVuSans-62" transform="scale(0.015625)"/>
      </defs>
      <use xlink:href="#DejaVuSans-48"/>
      <use x="75.195312" xlink:href="#DejaVuSans-61"/>
      <use x="136.474609" xlink:href="#DejaVuSans-6c"/>
      <use x="164.257812" xlink:href="#DejaVuSans-6f"/>
      <use x="225.439453" xlink:href="#DejaVuSans-62"/>
      <use x="288.916016" xlink:href="#DejaVuSans-61"/>
      <use x="350.195312" xlink:href="#DejaVuSans-63"/>
      <use x="405.175781" xlink:href="#DejaVuSans-74"/>
      <use x="444.384766" xlink:href="#DejaVuSans-65"/>
      <use x="505.908203" xlink:href="#DejaVuSans-72"/>
      <use x="544.771484" xlink:href="#DejaVuSans-6f"/>
      <use x="605.953125" xlink:href="#DejaVuSans-74"/>
      <use x="645.162109" xlink:href="#DejaVuSans-61"/>
     </g>
    </g>
    <g id="line2d_15"/>
    <g id="line2d_16">
     <defs>
      <path d="M 0 3 
C 0.795609 3 1.55874 2.683901 2.12132 2.12132 
C 2.683901 1.55874 3 0.795609 3 0 
C 3 -0.795609 2.683901 -1.55874 2.12132 -2.12132 
C 1.55874 -2.683901 0.795609 -3 0 -3 
C -0.795609 -3 -1.55874 -2.683901 -2.12132 -2.12132 
C -2.683901 -1.55874 -3 -0.795609 -3 0 
C -3 0.795609 -2.683901 1.55874 -2.12132 2.12132 
C -1.55874 2.683901 -0.795609 3 0 3 
z
" id="m9462fa8f84" style="stroke:#8c564b;"/>
     </defs>
     <g>
      <use style="fill:#8c564b;stroke:#8c564b;" x="380.782897" xlink:href="#m9462fa8f84" y="118.045312"/>
     </g>
    </g>
    <g id="text_8">
     <!-- Iainarchaeota -->
     <g transform="translate(398.782897 121.545312)scale(0.1 -0.1)">
      <defs>
       <path d="M 628 4666 
L 1259 4666 
L 1259 0 
L 628 0 
L 628 4666 
z
" id="DejaVuSans-49" transform="scale(0.015625)"/>
      </defs>
      <use xlink:href="#DejaVuSans-49"/>
      <use x="29.492188" xlink:href="#DejaVuSans-61"/>
      <use x="90.771484" xlink:href="#DejaVuSans-69"/>
      <use x="118.554688" xlink:href="#DejaVuSans-6e"/>
      <use x="181.933594" xlink:href="#DejaVuSans-61"/>
      <use x="243.212891" xlink:href="#DejaVuSans-72"/>
      <use x="282.076172" xlink:href="#DejaVuSans-63"/>
      <use x="337.056641" xlink:href="#DejaVuSans-68"/>
      <use x="400.435547" xlink:href="#DejaVuSans-61"/>
      <use x="461.714844" xlink:href="#DejaVuSans-65"/>
      <use x="523.238281" xlink:href="#DejaVuSans-6f"/>
      <use x="584.419922" xlink:href="#DejaVuSans-74"/>
      <use x="623.628906" xlink:href="#DejaVuSans-61"/>
     </g>
    </g>
    <g id="line2d_17"/>
    <g id="line2d_18">
     <defs>
      <path d="M 0 3 
C 0.795609 3 1.55874 2.683901 2.12132 2.12132 
C 2.683901 1.55874 3 0.795609 3 0 
C 3 -0.795609 2.683901 -1.55874 2.12132 -2.12132 
C 1.55874 -2.683901 0.795609 -3 0 -3 
C -0.795609 -3 -1.55874 -2.683901 -2.12132 -2.12132 
C -2.683901 -1.55874 -3 -0.795609 -3 0 
C -3 0.795609 -2.683901 1.55874 -2.12132 2.12132 
C -1.55874 2.683901 -0.795609 3 0 3 
z
" id="m5a949a37c0" style="stroke:#c49c94;"/>
     </defs>
     <g>
      <use style="fill:#c49c94;stroke:#c49c94;" x="380.782897" xlink:href="#m5a949a37c0" y="132.723437"/>
     </g>
    </g>
    <g id="text_9">
     <!-- Korarchaeota -->
     <g transform="translate(398.782897 136.223437)scale(0.1 -0.1)">
      <defs>
       <path d="M 628 4666 
L 1259 4666 
L 1259 2694 
L 3353 4666 
L 4166 4666 
L 1850 2491 
L 4331 0 
L 3500 0 
L 1259 2247 
L 1259 0 
L 628 0 
L 628 4666 
z
" id="DejaVuSans-4b" transform="scale(0.015625)"/>
      </defs>
      <use xlink:href="#DejaVuSans-4b"/>
      <use x="60.576172" xlink:href="#DejaVuSans-6f"/>
      <use x="121.757812" xlink:href="#DejaVuSans-72"/>
      <use x="162.871094" xlink:href="#DejaVuSans-61"/>
      <use x="224.150391" xlink:href="#DejaVuSans-72"/>
      <use x="263.013672" xlink:href="#DejaVuSans-63"/>
      <use x="317.994141" xlink:href="#DejaVuSans-68"/>
      <use x="381.373047" xlink:href="#DejaVuSans-61"/>
      <use x="442.652344" xlink:href="#DejaVuSans-65"/>
      <use x="504.175781" xlink:href="#DejaVuSans-6f"/>
      <use x="565.357422" xlink:href="#DejaVuSans-74"/>
      <use x="604.566406" xlink:href="#DejaVuSans-61"/>
     </g>
    </g>
    <g id="line2d_19"/>
    <g id="line2d_20">
     <defs>
      <path d="M 0 3 
C 0.795609 3 1.55874 2.683901 2.12132 2.12132 
C 2.683901 1.55874 3 0.795609 3 0 
C 3 -0.795609 2.683901 -1.55874 2.12132 -2.12132 
C 1.55874 -2.683901 0.795609 -3 0 -3 
C -0.795609 -3 -1.55874 -2.683901 -2.12132 -2.12132 
C -2.683901 -1.55874 -3 -0.795609 -3 0 
C -3 0.795609 -2.683901 1.55874 -2.12132 2.12132 
C -1.55874 2.683901 -0.795609 3 0 3 
z
" id="mb3c1aee3b4" style="stroke:#e377c2;"/>
     </defs>
     <g>
      <use style="fill:#e377c2;stroke:#e377c2;" x="380.782897" xlink:href="#mb3c1aee3b4" y="147.401562"/>
     </g>
    </g>
    <g id="text_10">
     <!-- Methanonatronarchaeia -->
     <g transform="translate(398.782897 150.901562)scale(0.1 -0.1)">
      <defs>
       <path d="M 628 4666 
L 1569 4666 
L 2759 1491 
L 3956 4666 
L 4897 4666 
L 4897 0 
L 4281 0 
L 4281 4097 
L 3078 897 
L 2444 897 
L 1241 4097 
L 1241 0 
L 628 0 
L 628 4666 
z
" id="DejaVuSans-4d" transform="scale(0.015625)"/>
      </defs>
      <use xlink:href="#DejaVuSans-4d"/>
      <use x="86.279297" xlink:href="#DejaVuSans-65"/>
      <use x="147.802734" xlink:href="#DejaVuSans-74"/>
      <use x="187.011719" xlink:href="#DejaVuSans-68"/>
      <use x="250.390625" xlink:href="#DejaVuSans-61"/>
      <use x="311.669922" xlink:href="#DejaVuSans-6e"/>
      <use x="375.048828" xlink:href="#DejaVuSans-6f"/>
      <use x="436.230469" xlink:href="#DejaVuSans-6e"/>
      <use x="499.609375" xlink:href="#DejaVuSans-61"/>
      <use x="560.888672" xlink:href="#DejaVuSans-74"/>
      <use x="600.097656" xlink:href="#DejaVuSans-72"/>
      <use x="638.960938" xlink:href="#DejaVuSans-6f"/>
      <use x="700.142578" xlink:href="#DejaVuSans-6e"/>
      <use x="763.521484" xlink:href="#DejaVuSans-61"/>
      <use x="824.800781" xlink:href="#DejaVuSans-72"/>
      <use x="863.664062" xlink:href="#DejaVuSans-63"/>
      <use x="918.644531" xlink:href="#DejaVuSans-68"/>
      <use x="982.023438" xlink:href="#DejaVuSans-61"/>
      <use x="1043.302734" xlink:href="#DejaVuSans-65"/>
      <use x="1104.826172" xlink:href="#DejaVuSans-69"/>
      <use x="1132.609375" xlink:href="#DejaVuSans-61"/>
     </g>
    </g>
    <g id="line2d_21"/>
    <g id="line2d_22">
     <defs>
      <path d="M 0 3 
C 0.795609 3 1.55874 2.683901 2.12132 2.12132 
C 2.683901 1.55874 3 0.795609 3 0 
C 3 -0.795609 2.683901 -1.55874 2.12132 -2.12132 
C 1.55874 -2.683901 0.795609 -3 0 -3 
C -0.795609 -3 -1.55874 -2.683901 -2.12132 -2.12132 
C -2.683901 -1.55874 -3 -0.795609 -3 0 
C -3 0.795609 -2.683901 1.55874 -2.12132 2.12132 
C -1.55874 2.683901 -0.795609 3 0 3 
z
" id="ma17cbf81be" style="stroke:#7f7f7f;"/>
     </defs>
     <g>
      <use style="fill:#7f7f7f;stroke:#7f7f7f;" x="380.782897" xlink:href="#ma17cbf81be" y="162.079687"/>
     </g>
    </g>
    <g id="text_11">
     <!-- Micrarchaeota -->
     <g transform="translate(398.782897 165.579687)scale(0.1 -0.1)">
      <use xlink:href="#DejaVuSans-4d"/>
      <use x="86.279297" xlink:href="#DejaVuSans-69"/>
      <use x="114.0625" xlink:href="#DejaVuSans-63"/>
      <use x="169.042969" xlink:href="#DejaVuSans-72"/>
      <use x="210.15625" xlink:href="#DejaVuSans-61"/>
      <use x="271.435547" xlink:href="#DejaVuSans-72"/>
      <use x="310.298828" xlink:href="#DejaVuSans-63"/>
      <use x="365.279297" xlink:href="#DejaVuSans-68"/>
      <use x="428.658203" xlink:href="#DejaVuSans-61"/>
      <use x="489.9375" xlink:href="#DejaVuSans-65"/>
      <use x="551.460938" xlink:href="#DejaVuSans-6f"/>
      <use x="612.642578" xlink:href="#DejaVuSans-74"/>
      <use x="651.851562" xlink:href="#DejaVuSans-61"/>
     </g>
    </g>
    <g id="line2d_23"/>
    <g id="line2d_24">
     <defs>
      <path d="M 0 3 
C 0.795609 3 1.55874 2.683901 2.12132 2.12132 
C 2.683901 1.55874 3 0.795609 3 0 
C 3 -0.795609 2.683901 -1.55874 2.12132 -2.12132 
C 1.55874 -2.683901 0.795609 -3 0 -3 
C -0.795609 -3 -1.55874 -2.683901 -2.12132 -2.12132 
C -2.683901 -1.55874 -3 -0.795609 -3 0 
C -3 0.795609 -2.683901 1.55874 -2.12132 2.12132 
C -1.55874 2.683901 -0.795609 3 0 3 
z
" id="mdd9c6713d7" style="stroke:#c7c7c7;"/>
     </defs>
     <g>
      <use style="fill:#c7c7c7;stroke:#c7c7c7;" x="380.782897" xlink:href="#mdd9c6713d7" y="176.757812"/>
     </g>
    </g>
    <g id="text_12">
     <!-- Nanoarchaeota -->
     <g transform="translate(398.782897 180.257812)scale(0.1 -0.1)">
      <defs>
       <path d="M 628 4666 
L 1478 4666 
L 3547 763 
L 3547 4666 
L 4159 4666 
L 4159 0 
L 3309 0 
L 1241 3903 
L 1241 0 
L 628 0 
L 628 4666 
z
" id="DejaVuSans-4e" transform="scale(0.015625)"/>
      </defs>
      <use xlink:href="#DejaVuSans-4e"/>
      <use x="74.804688" xlink:href="#DejaVuSans-61"/>
      <use x="136.083984" xlink:href="#DejaVuSans-6e"/>
      <use x="199.462891" xlink:href="#DejaVuSans-6f"/>
      <use x="260.644531" xlink:href="#DejaVuSans-61"/>
      <use x="321.923828" xlink:href="#DejaVuSans-72"/>
      <use x="360.787109" xlink:href="#DejaVuSans-63"/>
      <use x="415.767578" xlink:href="#DejaVuSans-68"/>
      <use x="479.146484" xlink:href="#DejaVuSans-61"/>
      <use x="540.425781" xlink:href="#DejaVuSans-65"/>
      <use x="601.949219" xlink:href="#DejaVuSans-6f"/>
      <use x="663.130859" xlink:href="#DejaVuSans-74"/>
      <use x="702.339844" xlink:href="#DejaVuSans-61"/>
     </g>
    </g>
    <g id="line2d_25"/>
    <g id="line2d_26">
     <defs>
      <path d="M 0 3 
C 0.795609 3 1.55874 2.683901 2.12132 2.12132 
C 2.683901 1.55874 3 0.795609 3 0 
C 3 -0.795609 2.683901 -1.55874 2.12132 -2.12132 
C 1.55874 -2.683901 0.795609 -3 0 -3 
C -0.795609 -3 -1.55874 -2.683901 -2.12132 -2.12132 
C -2.683901 -1.55874 -3 -0.795609 -3 0 
C -3 0.795609 -2.683901 1.55874 -2.12132 2.12132 
C -1.55874 2.683901 -0.795609 3 0 3 
z
" id="m4fec77a95e" style="stroke:#dbdb8d;"/>
     </defs>
     <g>
      <use style="fill:#dbdb8d;stroke:#dbdb8d;" x="380.782897" xlink:href="#m4fec77a95e" y="191.435937"/>
     </g>
    </g>
    <g id="text_13">
     <!-- Nanohaloarchaeota -->
     <g transform="translate(398.782897 194.935937)scale(0.1 -0.1)">
      <use xlink:href="#DejaVuSans-4e"/>
      <use x="74.804688" xlink:href="#DejaVuSans-61"/>
      <use x="136.083984" xlink:href="#DejaVuSans-6e"/>
      <use x="199.462891" xlink:href="#DejaVuSans-6f"/>
      <use x="260.644531" xlink:href="#DejaVuSans-68"/>
      <use x="324.023438" xlink:href="#DejaVuSans-61"/>
      <use x="385.302734" xlink:href="#DejaVuSans-6c"/>
      <use x="413.085938" xlink:href="#DejaVuSans-6f"/>
      <use x="474.267578" xlink:href="#DejaVuSans-61"/>
      <use x="535.546875" xlink:href="#DejaVuSans-72"/>
      <use x="574.410156" xlink:href="#DejaVuSans-63"/>
      <use x="629.390625" xlink:href="#DejaVuSans-68"/>
      <use x="692.769531" xlink:href="#DejaVuSans-61"/>
      <use x="754.048828" xlink:href="#DejaVuSans-65"/>
      <use x="815.572266" xlink:href="#DejaVuSans-6f"/>
      <use x="876.753906" xlink:href="#DejaVuSans-74"/>
      <use x="915.962891" xlink:href="#DejaVuSans-61"/>
     </g>
    </g>
    <g id="line2d_27"/>
    <g id="line2d_28">
     <defs>
      <path d="M 0 3 
C 0.795609 3 1.55874 2.683901 2.12132 2.12132 
C 2.683901 1.55874 3 0.795609 3 0 
C 3 -0.795609 2.683901 -1.55874 2.12132 -2.12132 
C 1.55874 -2.683901 0.795609 -3 0 -3 
C -0.795609 -3 -1.55874 -2.683901 -2.12132 -2.12132 
C -2.683901 -1.55874 -3 -0.795609 -3 0 
C -3 0.795609 -2.683901 1.55874 -2.12132 2.12132 
C -1.55874 2.683901 -0.795609 3 0 3 
z
" id="m9d9bdf14dc" style="stroke:#17becf;"/>
     </defs>
     <g>
      <use style="fill:#17becf;stroke:#17becf;" x="380.782897" xlink:href="#m9d9bdf14dc" y="206.114062"/>
     </g>
    </g>
    <g id="text_14">
     <!-- Thermoplasmatota -->
     <g transform="translate(398.782897 209.614062)scale(0.1 -0.1)">
      <defs>
       <path d="M -19 4666 
L 3928 4666 
L 3928 4134 
L 2272 4134 
L 2272 0 
L 1638 0 
L 1638 4134 
L -19 4134 
L -19 4666 
z
" id="DejaVuSans-54" transform="scale(0.015625)"/>
       <path d="M 1159 525 
L 1159 -1331 
L 581 -1331 
L 581 3500 
L 1159 3500 
L 1159 2969 
Q 1341 3281 1617 3432 
Q 1894 3584 2278 3584 
Q 2916 3584 3314 3078 
Q 3713 2572 3713 1747 
Q 3713 922 3314 415 
Q 2916 -91 2278 -91 
Q 1894 -91 1617 61 
Q 1341 213 1159 525 
z
M 3116 1747 
Q 3116 2381 2855 2742 
Q 2594 3103 2138 3103 
Q 1681 3103 1420 2742 
Q 1159 2381 1159 1747 
Q 1159 1113 1420 752 
Q 1681 391 2138 391 
Q 2594 391 2855 752 
Q 3116 1113 3116 1747 
z
" id="DejaVuSans-70" transform="scale(0.015625)"/>
      </defs>
      <use xlink:href="#DejaVuSans-54"/>
      <use x="61.083984" xlink:href="#DejaVuSans-68"/>
      <use x="124.462891" xlink:href="#DejaVuSans-65"/>
      <use x="185.986328" xlink:href="#DejaVuSans-72"/>
      <use x="225.349609" xlink:href="#DejaVuSans-6d"/>
      <use x="322.761719" xlink:href="#DejaVuSans-6f"/>
      <use x="383.943359" xlink:href="#DejaVuSans-70"/>
      <use x="447.419922" xlink:href="#DejaVuSans-6c"/>
      <use x="475.203125" xlink:href="#DejaVuSans-61"/>
      <use x="536.482422" xlink:href="#DejaVuSans-73"/>
      <use x="588.582031" xlink:href="#DejaVuSans-6d"/>
      <use x="685.994141" xlink:href="#DejaVuSans-61"/>
      <use x="747.273438" xlink:href="#DejaVuSans-74"/>
      <use x="786.482422" xlink:href="#DejaVuSans-6f"/>
      <use x="847.664062" xlink:href="#DejaVuSans-74"/>
      <use x="886.873047" xlink:href="#DejaVuSans-61"/>
     </g>
    </g>
    <g id="line2d_29"/>
    <g id="line2d_30">
     <defs>
      <path d="M 0 3 
C 0.795609 3 1.55874 2.683901 2.12132 2.12132 
C 2.683901 1.55874 3 0.795609 3 0 
C 3 -0.795609 2.683901 -1.55874 2.12132 -2.12132 
C 1.55874 -2.683901 0.795609 -3 0 -3 
C -0.795609 -3 -1.55874 -2.683901 -2.12132 -2.12132 
C -2.683901 -1.55874 -3 -0.795609 -3 0 
C -3 0.795609 -2.683901 1.55874 -2.12132 2.12132 
C -1.55874 2.683901 -0.795609 3 0 3 
z
" id="m853efee579" style="stroke:#000000;"/>
     </defs>
     <g>
      <use style="stroke:#000000;" x="380.782897" xlink:href="#m853efee579" y="220.792187"/>
     </g>
    </g>
    <g id="text_15">
     <!-- archaeon -->
     <g transform="translate(398.782897 224.292187)scale(0.1 -0.1)">
      <use xlink:href="#DejaVuSans-61"/>
      <use x="61.279297" xlink:href="#DejaVuSans-72"/>
      <use x="100.142578" xlink:href="#DejaVuSans-63"/>
      <use x="155.123047" xlink:href="#DejaVuSans-68"/>
      <use x="218.501953" xlink:href="#DejaVuSans-61"/>
      <use x="279.78125" xlink:href="#DejaVuSans-65"/>
      <use x="341.304688" xlink:href="#DejaVuSans-6f"/>
      <use x="402.486328" xlink:href="#DejaVuSans-6e"/>
     </g>
    </g>
    <g id="line2d_31"/>
    <g id="line2d_32">
     <g>
      <use style="stroke:#000000;" x="380.782897" xlink:href="#m853efee579" y="235.470312"/>
     </g>
    </g>
    <g id="text_16">
     <!-- groundwater -->
     <g transform="translate(398.782897 238.970312)scale(0.1 -0.1)">
      <defs>
       <path d="M 269 3500 
L 844 3500 
L 1563 769 
L 2278 3500 
L 2956 3500 
L 3675 769 
L 4391 3500 
L 4966 3500 
L 4050 0 
L 3372 0 
L 2619 2869 
L 1863 0 
L 1184 0 
L 269 3500 
z
" id="DejaVuSans-77" transform="scale(0.015625)"/>
      </defs>
      <use xlink:href="#DejaVuSans-67"/>
      <use x="63.476562" xlink:href="#DejaVuSans-72"/>
      <use x="102.339844" xlink:href="#DejaVuSans-6f"/>
      <use x="163.521484" xlink:href="#DejaVuSans-75"/>
      <use x="226.900391" xlink:href="#DejaVuSans-6e"/>
      <use x="290.279297" xlink:href="#DejaVuSans-64"/>
      <use x="353.755859" xlink:href="#DejaVuSans-77"/>
      <use x="435.542969" xlink:href="#DejaVuSans-61"/>
      <use x="496.822266" xlink:href="#DejaVuSans-74"/>
      <use x="536.03125" xlink:href="#DejaVuSans-65"/>
      <use x="597.554688" xlink:href="#DejaVuSans-72"/>
     </g>
    </g>
    <g id="line2d_33"/>
    <g id="line2d_34">
     <g>
      <use style="stroke:#000000;" x="380.782897" xlink:href="#m853efee579" y="250.148437"/>
     </g>
    </g>
    <g id="text_17">
     <!-- hydrothermal -->
     <g transform="translate(398.782897 253.648437)scale(0.1 -0.1)">
      <use xlink:href="#DejaVuSans-68"/>
      <use x="63.378906" xlink:href="#DejaVuSans-79"/>
      <use x="122.558594" xlink:href="#DejaVuSans-64"/>
      <use x="186.035156" xlink:href="#DejaVuSans-72"/>
      <use x="224.898438" xlink:href="#DejaVuSans-6f"/>
      <use x="286.080078" xlink:href="#DejaVuSans-74"/>
      <use x="325.289062" xlink:href="#DejaVuSans-68"/>
      <use x="388.667969" xlink:href="#DejaVuSans-65"/>
      <use x="450.191406" xlink:href="#DejaVuSans-72"/>
      <use x="489.554688" xlink:href="#DejaVuSans-6d"/>
      <use x="586.966797" xlink:href="#DejaVuSans-61"/>
      <use x="648.246094" xlink:href="#DejaVuSans-6c"/>
     </g>
    </g>
    <g id="line2d_35"/>
    <g id="line2d_36">
     <g>
      <use style="stroke:#000000;" x="380.782897" xlink:href="#m853efee579" y="264.826562"/>
     </g>
    </g>
    <g id="text_18">
     <!-- marine -->
     <g transform="translate(398.782897 268.326562)scale(0.1 -0.1)">
      <use xlink:href="#DejaVuSans-6d"/>
      <use x="97.412109" xlink:href="#DejaVuSans-61"/>
      <use x="158.691406" xlink:href="#DejaVuSans-72"/>
      <use x="199.804688" xlink:href="#DejaVuSans-69"/>
      <use x="227.587891" xlink:href="#DejaVuSans-6e"/>
      <use x="290.966797" xlink:href="#DejaVuSans-65"/>
     </g>
    </g>
    <g id="line2d_37"/>
    <g id="line2d_38">
     <g>
      <use style="stroke:#000000;" x="380.782897" xlink:href="#m853efee579" y="279.504687"/>
     </g>
    </g>
    <g id="text_19">
     <!-- sediment -->
     <g transform="translate(398.782897 283.004687)scale(0.1 -0.1)">
      <use xlink:href="#DejaVuSans-73"/>
      <use x="52.099609" xlink:href="#DejaVuSans-65"/>
      <use x="113.623047" xlink:href="#DejaVuSans-64"/>
      <use x="177.099609" xlink:href="#DejaVuSans-69"/>
      <use x="204.882812" xlink:href="#DejaVuSans-6d"/>
      <use x="302.294922" xlink:href="#DejaVuSans-65"/>
      <use x="363.818359" xlink:href="#DejaVuSans-6e"/>
      <use x="427.197266" xlink:href="#DejaVuSans-74"/>
     </g>
    </g>
    <g id="line2d_39"/>
    <g id="line2d_40">
     <g>
      <use style="stroke:#000000;" x="380.782897" xlink:href="#m853efee579" y="294.182812"/>
     </g>
    </g>
    <g id="text_20">
     <!-- uncultured -->
     <g transform="translate(398.782897 297.682812)scale(0.1 -0.1)">
      <use xlink:href="#DejaVuSans-75"/>
      <use x="63.378906" xlink:href="#DejaVuSans-6e"/>
      <use x="126.757812" xlink:href="#DejaVuSans-63"/>
      <use x="181.738281" xlink:href="#DejaVuSans-75"/>
      <use x="245.117188" xlink:href="#DejaVuSans-6c"/>
      <use x="272.900391" xlink:href="#DejaVuSans-74"/>
      <use x="312.109375" xlink:href="#DejaVuSans-75"/>
      <use x="375.488281" xlink:href="#DejaVuSans-72"/>
      <use x="414.351562" xlink:href="#DejaVuSans-65"/>
      <use x="475.875" xlink:href="#DejaVuSans-64"/>
     </g>
    </g>
    <g id="line2d_41"/>
    <g id="line2d_42">
     <g>
      <use style="stroke:#000000;" x="380.782897" xlink:href="#m853efee579" y="308.860937"/>
     </g>
    </g>
    <g id="text_21">
     <!-- Candidatus -->
     <g transform="translate(398.782897 312.360937)scale(0.1 -0.1)">
      <use xlink:href="#DejaVuSans-43"/>
      <use x="69.824219" xlink:href="#DejaVuSans-61"/>
      <use x="131.103516" xlink:href="#DejaVuSans-6e"/>
      <use x="194.482422" xlink:href="#DejaVuSans-64"/>
      <use x="257.958984" xlink:href="#DejaVuSans-69"/>
      <use x="285.742188" xlink:href="#DejaVuSans-64"/>
      <use x="349.21875" xlink:href="#DejaVuSans-61"/>
      <use x="410.498047" xlink:href="#DejaVuSans-74"/>
      <use x="449.707031" xlink:href="#DejaVuSans-75"/>
      <use x="513.085938" xlink:href="#DejaVuSans-73"/>
     </g>
    </g>
    <g id="line2d_43"/>
    <g id="line2d_44">
     <g>
      <use style="stroke:#000000;" x="380.782897" xlink:href="#m853efee579" y="323.539062"/>
     </g>
    </g>
    <g id="text_22">
     <!-- 1286008:1289191 -->
     <g transform="translate(398.782897 327.039062)scale(0.1 -0.1)">
      <defs>
       <path d="M 794 531 
L 1825 531 
L 1825 4091 
L 703 3866 
L 703 4441 
L 1819 4666 
L 2450 4666 
L 2450 531 
L 3481 531 
L 3481 0 
L 794 0 
L 794 531 
z
" id="DejaVuSans-31" transform="scale(0.015625)"/>
       <path d="M 1228 531 
L 3431 531 
L 3431 0 
L 469 0 
L 469 531 
Q 828 903 1448 1529 
Q 2069 2156 2228 2338 
Q 2531 2678 2651 2914 
Q 2772 3150 2772 3378 
Q 2772 3750 2511 3984 
Q 2250 4219 1831 4219 
Q 1534 4219 1204 4116 
Q 875 4013 500 3803 
L 500 4441 
Q 881 4594 1212 4672 
Q 1544 4750 1819 4750 
Q 2544 4750 2975 4387 
Q 3406 4025 3406 3419 
Q 3406 3131 3298 2873 
Q 3191 2616 2906 2266 
Q 2828 2175 2409 1742 
Q 1991 1309 1228 531 
z
" id="DejaVuSans-32" transform="scale(0.015625)"/>
       <path d="M 2034 2216 
Q 1584 2216 1326 1975 
Q 1069 1734 1069 1313 
Q 1069 891 1326 650 
Q 1584 409 2034 409 
Q 2484 409 2743 651 
Q 3003 894 3003 1313 
Q 3003 1734 2745 1975 
Q 2488 2216 2034 2216 
z
M 1403 2484 
Q 997 2584 770 2862 
Q 544 3141 544 3541 
Q 544 4100 942 4425 
Q 1341 4750 2034 4750 
Q 2731 4750 3128 4425 
Q 3525 4100 3525 3541 
Q 3525 3141 3298 2862 
Q 3072 2584 2669 2484 
Q 3125 2378 3379 2068 
Q 3634 1759 3634 1313 
Q 3634 634 3220 271 
Q 2806 -91 2034 -91 
Q 1263 -91 848 271 
Q 434 634 434 1313 
Q 434 1759 690 2068 
Q 947 2378 1403 2484 
z
M 1172 3481 
Q 1172 3119 1398 2916 
Q 1625 2713 2034 2713 
Q 2441 2713 2670 2916 
Q 2900 3119 2900 3481 
Q 2900 3844 2670 4047 
Q 2441 4250 2034 4250 
Q 1625 4250 1398 4047 
Q 1172 3844 1172 3481 
z
" id="DejaVuSans-38" transform="scale(0.015625)"/>
       <path d="M 2113 2584 
Q 1688 2584 1439 2293 
Q 1191 2003 1191 1497 
Q 1191 994 1439 701 
Q 1688 409 2113 409 
Q 2538 409 2786 701 
Q 3034 994 3034 1497 
Q 3034 2003 2786 2293 
Q 2538 2584 2113 2584 
z
M 3366 4563 
L 3366 3988 
Q 3128 4100 2886 4159 
Q 2644 4219 2406 4219 
Q 1781 4219 1451 3797 
Q 1122 3375 1075 2522 
Q 1259 2794 1537 2939 
Q 1816 3084 2150 3084 
Q 2853 3084 3261 2657 
Q 3669 2231 3669 1497 
Q 3669 778 3244 343 
Q 2819 -91 2113 -91 
Q 1303 -91 875 529 
Q 447 1150 447 2328 
Q 447 3434 972 4092 
Q 1497 4750 2381 4750 
Q 2619 4750 2861 4703 
Q 3103 4656 3366 4563 
z
" id="DejaVuSans-36" transform="scale(0.015625)"/>
       <path d="M 2034 4250 
Q 1547 4250 1301 3770 
Q 1056 3291 1056 2328 
Q 1056 1369 1301 889 
Q 1547 409 2034 409 
Q 2525 409 2770 889 
Q 3016 1369 3016 2328 
Q 3016 3291 2770 3770 
Q 2525 4250 2034 4250 
z
M 2034 4750 
Q 2819 4750 3233 4129 
Q 3647 3509 3647 2328 
Q 3647 1150 3233 529 
Q 2819 -91 2034 -91 
Q 1250 -91 836 529 
Q 422 1150 422 2328 
Q 422 3509 836 4129 
Q 1250 4750 2034 4750 
z
" id="DejaVuSans-30" transform="scale(0.015625)"/>
       <path d="M 750 794 
L 1409 794 
L 1409 0 
L 750 0 
L 750 794 
z
M 750 3309 
L 1409 3309 
L 1409 2516 
L 750 2516 
L 750 3309 
z
" id="DejaVuSans-3a" transform="scale(0.015625)"/>
       <path d="M 703 97 
L 703 672 
Q 941 559 1184 500 
Q 1428 441 1663 441 
Q 2288 441 2617 861 
Q 2947 1281 2994 2138 
Q 2813 1869 2534 1725 
Q 2256 1581 1919 1581 
Q 1219 1581 811 2004 
Q 403 2428 403 3163 
Q 403 3881 828 4315 
Q 1253 4750 1959 4750 
Q 2769 4750 3195 4129 
Q 3622 3509 3622 2328 
Q 3622 1225 3098 567 
Q 2575 -91 1691 -91 
Q 1453 -91 1209 -44 
Q 966 3 703 97 
z
M 1959 2075 
Q 2384 2075 2632 2365 
Q 2881 2656 2881 3163 
Q 2881 3666 2632 3958 
Q 2384 4250 1959 4250 
Q 1534 4250 1286 3958 
Q 1038 3666 1038 3163 
Q 1038 2656 1286 2365 
Q 1534 2075 1959 2075 
z
" id="DejaVuSans-39" transform="scale(0.015625)"/>
      </defs>
      <use xlink:href="#DejaVuSans-31"/>
      <use x="63.623047" xlink:href="#DejaVuSans-32"/>
      <use x="127.246094" xlink:href="#DejaVuSans-38"/>
      <use x="190.869141" xlink:href="#DejaVuSans-36"/>
      <use x="254.492188" xlink:href="#DejaVuSans-30"/>
      <use x="318.115234" xlink:href="#DejaVuSans-30"/>
      <use x="381.738281" xlink:href="#DejaVuSans-38"/>
      <use x="445.361328" xlink:href="#DejaVuSans-3a"/>
      <use x="479.052734" xlink:href="#DejaVuSans-31"/>
      <use x="542.675781" xlink:href="#DejaVuSans-32"/>
      <use x="606.298828" xlink:href="#DejaVuSans-38"/>
      <use x="669.921875" xlink:href="#DejaVuSans-39"/>
      <use x="733.544922" xlink:href="#DejaVuSans-31"/>
      <use x="797.167969" xlink:href="#DejaVuSans-39"/>
      <use x="860.791016" xlink:href="#DejaVuSans-31"/>
     </g>
    </g>
   </g>
  </g>
 </g>
</svg>
