<?xml version="1.0" encoding="utf-8" standalone="no"?>
<!DOCTYPE svg PUBLIC "-//W3C//DTD SVG 1.1//EN"
  "http://www.w3.org/Graphics/SVG/1.1/DTD/svg11.dtd">
<svg height="340.31875pt" version="1.1" viewBox="0 0 530.014454 340.31875" width="530.014454pt" xmlns="http://www.w3.org/2000/svg" xmlns:xlink="http://www.w3.org/1999/xlink">
 <metadata>
  <rdf:RDF xmlns:cc="http://creativecommons.org/ns#" xmlns:dc="http://purl.org/dc/elements/1.1/" xmlns:rdf="http://www.w3.org/1999/02/22-rdf-syntax-ns#">
   <cc:Work>
    <dc:type rdf:resource="http://purl.org/dc/dcmitype/StillImage"/>
    <dc:date>2021-10-21T10:11:32.719066</dc:date>
    <dc:format>image/svg+xml</dc:format>
    <dc:creator>
     <cc:Agent>
      <dc:title>Matplotlib v3.4.3, https://matplotlib.org/</dc:title>
     </cc:Agent>
    </dc:creator>
   </cc:Work>
  </rdf:RDF>
 </metadata>
 <defs>
  <style type="text/css">*{stroke-linecap:butt;stroke-linejoin:round;}</style>
 </defs>
 <g id="figure_1">
  <g id="patch_1">
   <path d="M 0 340.31875 
L 530.014454 340.31875 
L 530.014454 -0 
L 0 -0 
z
" style="fill:#ffffff;"/>
  </g>
  <g id="axes_1">
   <g id="patch_2">
    <path d="M 61.223791 86.01475 
C 61.223791 83.045209 60.353943 80.139713 58.722153 77.658697 
C 57.090364 75.177681 54.76702 73.228164 52.040339 72.051989 
L 46.017391 86.01475 
L 61.223791 86.01475 
z
"/>
   </g>
   <g id="patch_3">
    <path d="M 52.040339 72.051989 
C 49.359714 70.89568 46.401967 70.535425 43.522156 71.01447 
C 40.642344 71.493515 37.960504 72.791892 35.798572 74.753741 
C 33.63664 76.715589 32.084729 79.259135 31.329137 82.079043 
C 30.573545 84.898951 30.645765 87.877681 31.537129 90.657658 
C 32.428492 93.437635 34.101845 95.902983 36.356312 97.757754 
C 38.610779 99.612526 41.352391 100.779409 44.252034 101.11833 
C 47.151678 101.45725 50.088491 100.954079 52.709929 99.66922 
C 55.331367 98.384361 57.528163 96.371369 59.036607 93.871889 
L 46.017391 86.01475 
L 52.040339 72.051989 
z
" style="fill:#1f77b4;"/>
   </g>
   <g id="patch_4">
    <path d="M 59.036607 93.871889 
C 59.13819 93.703567 59.236499 93.53329 59.331479 93.361155 
C 59.426459 93.189021 59.518092 93.01506 59.606326 92.839372 
L 46.017391 86.01475 
L 59.036607 93.871889 
z
"/>
   </g>
   <g id="patch_5">
    <path d="M 59.606326 92.839372 
C 59.78281 92.487962 59.945597 92.129839 60.094319 91.76581 
C 60.243042 91.401781 60.377587 91.03212 60.497653 90.657661 
L 46.017391 86.01475 
L 59.606326 92.839372 
z
" style="fill:#98df8a;"/>
   </g>
   <g id="patch_6">
    <path d="M 60.497653 90.657661 
C 60.677779 90.095885 60.825061 89.524101 60.938752 88.945212 
C 61.052442 88.366322 61.132348 87.781307 61.178065 87.193133 
L 46.017391 86.01475 
L 60.497653 90.657661 
z
" style="fill:#c7c7c7;"/>
   </g>
   <g id="patch_7">
    <path d="M 61.178065 87.193133 
C 61.1933 86.997124 61.204732 86.800838 61.212355 86.604386 
C 61.219979 86.407934 61.223791 86.211352 61.223791 86.014752 
L 46.017391 86.01475 
L 61.178065 87.193133 
z
"/>
   </g>
   <g id="matplotlib.axis_1"/>
   <g id="matplotlib.axis_2"/>
  </g>
  <g id="axes_2">
   <g id="patch_8">
    <path d="M 154.38553 86.01475 
C 154.38553 84.151754 154.043166 82.30452 153.375528 80.565264 
C 152.70789 78.826007 151.726276 77.224158 150.479688 75.839682 
C 149.2331 74.455206 147.742633 73.311531 146.082692 72.465748 
C 144.42275 71.619966 142.621422 71.086388 140.768632 70.891652 
C 138.915842 70.696916 137.04294 70.844317 135.243424 71.326496 
C 133.443908 71.808674 131.748228 72.617472 130.241033 73.712514 
C 128.733837 74.807556 127.440631 76.170311 126.42597 77.732751 
C 125.41131 79.295191 124.692365 81.030877 124.305027 82.853162 
C 123.917688 84.675447 123.86851 86.553496 124.159946 88.393555 
C 124.451383 90.233615 125.078504 92.004548 126.010002 93.61795 
C 126.9415 95.231352 128.161613 96.659921 129.609433 97.832343 
C 131.057253 99.004764 132.70828 99.901198 134.480095 100.476896 
C 136.251909 101.052593 138.114529 101.297812 139.974972 101.20031 
C 141.835415 101.102808 143.662199 100.664236 145.364131 99.906488 
C 147.066062 99.148739 148.614342 98.084636 149.931679 96.767298 
C 151.249016 95.449961 152.313119 93.901681 153.070868 92.19975 
L 139.17913 86.01475 
L 154.38553 86.01475 
z
" style="fill:#8c564b;"/>
   </g>
   <g id="patch_9">
    <path d="M 153.070868 92.19975 
C 153.503057 91.229038 153.832312 90.215694 154.053234 89.176338 
C 154.274156 88.136981 154.38553 87.077326 154.38553 86.014749 
L 139.17913 86.01475 
L 153.070868 92.19975 
z
" style="fill:#c7c7c7;"/>
   </g>
   <g id="matplotlib.axis_3"/>
   <g id="matplotlib.axis_4"/>
  </g>
  <g id="axes_3">
   <g id="patch_10">
    <path d="M 247.54727 86.01475 
C 247.54727 83.625355 246.984098 81.269261 245.903571 79.138142 
C 244.823044 77.007024 243.255279 75.160282 241.327818 73.748155 
C 239.400358 72.336028 237.166927 71.397877 234.809221 71.010023 
C 232.451516 70.622169 230.035253 70.795422 227.757003 71.515689 
L 232.34087 86.01475 
L 247.54727 86.01475 
z
" style="fill:#98df8a;"/>
   </g>
   <g id="patch_11">
    <path d="M 227.757003 71.515689 
C 224.391133 72.579806 221.498622 74.783468 219.57909 77.746039 
C 217.659558 80.70861 216.830277 84.249095 217.234486 87.755952 
L 232.34087 86.01475 
L 227.757003 71.515689 
z
" style="fill:#17becf;"/>
   </g>
   <g id="patch_12">
    <path d="M 217.234486 87.755952 
C 217.611935 91.030638 219.044145 94.095453 221.314007 96.485801 
C 223.583869 98.876148 226.570581 100.464816 229.821388 101.010977 
C 233.072194 101.557137 236.414089 101.031724 239.340472 99.514386 
C 242.266855 97.997047 244.621986 95.568535 246.048851 92.596988 
L 232.34087 86.01475 
L 217.234486 87.755952 
z
" style="fill:#9467bd;"/>
   </g>
   <g id="patch_13">
    <path d="M 246.048851 92.596988 
C 246.103695 92.48277 246.157111 92.36787 246.209083 92.252317 
C 246.261056 92.136764 246.311583 92.020565 246.360652 91.903749 
L 232.34087 86.01475 
L 246.048851 92.596988 
z
" style="fill:#aec7e8;"/>
   </g>
   <g id="patch_14">
    <path d="M 246.360652 91.903749 
C 246.577051 91.388572 246.76489 90.861859 246.923313 90.326006 
C 247.081737 89.790154 247.210504 89.245976 247.309028 88.69595 
L 232.34087 86.01475 
L 246.360652 91.903749 
z
" style="fill:#c7c7c7;"/>
   </g>
   <g id="patch_15">
    <path d="M 247.309028 88.69595 
C 247.322229 88.622253 247.334886 88.54846 247.346997 88.474576 
C 247.359108 88.400693 247.370673 88.326721 247.381692 88.252667 
L 232.34087 86.01475 
L 247.309028 88.69595 
z
" style="fill:#2ca02c;"/>
   </g>
   <g id="patch_16">
    <path d="M 247.381692 88.252667 
C 247.386777 88.218488 247.391746 88.184292 247.396598 88.150079 
C 247.401451 88.115867 247.406186 88.081637 247.410805 88.047392 
L 232.34087 86.01475 
L 247.381692 88.252667 
z
" style="fill:#ff7f0e;"/>
   </g>
   <g id="patch_17">
    <path d="M 247.410805 88.047392 
C 247.424662 87.944657 247.437469 87.841782 247.449222 87.738785 
C 247.460975 87.635787 247.471675 87.532672 247.481319 87.429456 
L 232.34087 86.01475 
L 247.410805 88.047392 
z
" style="fill:#ff9896;"/>
   </g>
   <g id="patch_18">
    <path d="M 247.481319 87.429456 
C 247.486141 87.377848 247.490699 87.326216 247.494994 87.274561 
C 247.499288 87.222907 247.503318 87.171231 247.507084 87.119535 
L 232.34087 86.01475 
L 247.481319 87.429456 
z
" style="fill:#7f7f7f;"/>
   </g>
   <g id="patch_19">
    <path d="M 247.507084 87.119535 
C 247.510849 87.067839 247.514351 87.016125 247.517588 86.964393 
C 247.520825 86.912662 247.523797 86.860914 247.526505 86.809152 
L 232.34087 86.01475 
L 247.507084 87.119535 
z
" style="fill:#dbdb8d;"/>
   </g>
   <g id="patch_20">
    <path d="M 247.526505 86.809152 
C 247.528009 86.780396 247.529432 86.751635 247.530773 86.72287 
C 247.532114 86.694106 247.533373 86.665337 247.534551 86.636566 
L 232.34087 86.01475 
L 247.526505 86.809152 
z
" style="fill:#1f77b4;"/>
   </g>
   <g id="patch_21">
    <path d="M 247.534551 86.636566 
C 247.535493 86.613548 247.536382 86.590529 247.53722 86.567507 
C 247.538057 86.544486 247.538842 86.521462 247.539575 86.498437 
L 232.34087 86.01475 
L 247.534551 86.636566 
z
"/>
   </g>
   <g id="patch_22">
    <path d="M 247.539575 86.498437 
C 247.539758 86.492681 247.539938 86.486925 247.540115 86.481168 
C 247.540291 86.475412 247.540465 86.469655 247.540635 86.463899 
L 232.34087 86.01475 
L 247.539575 86.498437 
z
" style="fill:#e377c2;"/>
   </g>
   <g id="patch_23">
    <path d="M 247.540635 86.463899 
C 247.541485 86.435115 247.542254 86.40633 247.542941 86.377542 
C 247.543628 86.348754 247.544233 86.319965 247.544757 86.291174 
L 232.34087 86.01475 
L 247.540635 86.463899 
z
" style="fill:#c49c94;"/>
   </g>
   <g id="patch_24">
    <path d="M 247.544757 86.291174 
C 247.545071 86.273899 247.545356 86.256624 247.545611 86.239348 
C 247.545866 86.222072 247.546092 86.204796 247.546288 86.18752 
L 232.34087 86.01475 
L 247.544757 86.291174 
z
" style="fill:#8c564b;"/>
   </g>
   <g id="patch_25">
    <path d="M 247.546288 86.18752 
C 247.546353 86.181761 247.546416 86.176002 247.546475 86.170244 
C 247.546533 86.164485 247.546589 86.158726 247.546641 86.152967 
L 232.34087 86.01475 
L 247.546288 86.18752 
z
"/>
   </g>
   <g id="patch_26">
    <path d="M 247.546641 86.152967 
C 247.546694 86.147208 247.546743 86.141449 247.546789 86.13569 
C 247.546834 86.129931 247.546877 86.124172 247.546916 86.118413 
L 232.34087 86.01475 
L 247.546641 86.152967 
z
"/>
   </g>
   <g id="patch_27">
    <path d="M 247.546916 86.118413 
C 247.546995 86.106895 247.54706 86.095377 247.547113 86.083858 
C 247.547165 86.07234 247.547204 86.060822 247.54723 86.049304 
L 232.34087 86.01475 
L 247.546916 86.118413 
z
"/>
   </g>
   <g id="patch_28">
    <path d="M 247.54723 86.049304 
C 247.547243 86.043544 247.547253 86.037785 247.54726 86.032026 
C 247.547266 86.026267 247.54727 86.020508 247.54727 86.014749 
L 232.34087 86.01475 
L 247.54723 86.049304 
z
"/>
   </g>
   <g id="matplotlib.axis_5"/>
   <g id="matplotlib.axis_6"/>
  </g>
  <g id="axes_4">
   <g id="patch_29">
    <path d="M 340.709009 86.01475 
C 340.709009 83.706771 340.183562 81.428796 339.172616 79.354006 
C 338.161669 77.279216 336.691508 75.461556 334.873898 74.039211 
C 333.056289 72.616867 330.938491 71.626819 328.681507 71.144336 
C 326.424523 70.661853 324.087035 70.699479 321.84675 71.254354 
L 325.502609 86.01475 
L 340.709009 86.01475 
z
" style="fill:#98df8a;"/>
   </g>
   <g id="patch_30">
    <path d="M 321.84675 71.254354 
C 318.558345 72.068827 315.634578 73.959314 313.542425 76.623871 
C 311.450272 79.288429 310.30738 82.577221 310.29629 85.964971 
L 325.502609 86.01475 
L 321.84675 71.254354 
z
" style="fill:#17becf;"/>
   </g>
   <g id="patch_31">
    <path d="M 310.29629 85.964971 
C 310.295946 86.070063 310.296692 86.175155 310.298526 86.280231 
C 310.300361 86.385308 310.303285 86.490362 310.307298 86.595378 
L 325.502609 86.01475 
L 310.29629 85.964971 
z
"/>
   </g>
   <g id="patch_32">
    <path d="M 310.307298 86.595378 
C 310.428317 89.762498 311.536532 92.813912 313.476119 95.320562 
C 315.415706 97.827213 318.091286 99.665837 321.126648 100.577908 
C 324.16201 101.489978 327.407892 101.430644 330.407892 100.408248 
C 333.407892 99.385853 336.014488 97.450671 337.861167 94.874808 
L 325.502609 86.01475 
L 310.307298 86.595378 
z
" style="fill:#9467bd;"/>
   </g>
   <g id="patch_33">
    <path d="M 337.861167 94.874808 
C 338.07389 94.578089 338.275858 94.273805 338.466679 93.962548 
C 338.657499 93.651291 338.837048 93.333263 339.004976 93.009082 
L 325.502609 86.01475 
L 337.861167 94.874808 
z
" style="fill:#1f77b4;"/>
   </g>
   <g id="patch_34">
    <path d="M 339.004976 93.009082 
C 339.060947 92.901032 339.115619 92.792314 339.16898 92.682951 
C 339.22234 92.573589 339.274387 92.46359 339.325107 92.352978 
L 325.502609 86.01475 
L 339.004976 93.009082 
z
" style="fill:#aec7e8;"/>
   </g>
   <g id="patch_35">
    <path d="M 339.325107 92.352978 
C 339.578782 91.79976 339.799017 91.231811 339.984621 90.652197 
C 340.170226 90.072583 340.320866 89.482349 340.43573 88.88468 
L 325.502609 86.01475 
L 339.325107 92.352978 
z
" style="fill:#c7c7c7;"/>
   </g>
   <g id="patch_36">
    <path d="M 340.43573 88.88468 
C 340.436774 88.879248 340.437815 88.873816 340.438852 88.868383 
C 340.43989 88.86295 340.440925 88.857517 340.441957 88.852083 
L 325.502609 86.01475 
L 340.43573 88.88468 
z
"/>
   </g>
   <g id="patch_37">
    <path d="M 340.441957 88.852083 
C 340.459502 88.759705 340.47619 88.667165 340.492018 88.574477 
C 340.507846 88.481789 340.522815 88.388957 340.536921 88.295991 
L 325.502609 86.01475 
L 340.441957 88.852083 
z
" style="fill:#8c564b;"/>
   </g>
   <g id="patch_38">
    <path d="M 340.536921 88.295991 
C 340.548538 88.219431 340.55957 88.142784 340.570015 88.066055 
C 340.580461 87.989327 340.590321 87.91252 340.599594 87.835641 
L 325.502609 86.01475 
L 340.536921 88.295991 
z
" style="fill:#2ca02c;"/>
   </g>
   <g id="patch_39">
    <path d="M 340.599594 87.835641 
C 340.603568 87.802693 340.607434 87.769732 340.611192 87.736759 
C 340.61495 87.703786 340.6186 87.6708 340.622142 87.637803 
L 325.502609 86.01475 
L 340.599594 87.835641 
z
" style="fill:#ff7f0e;"/>
   </g>
   <g id="patch_40">
    <path d="M 340.622142 87.637803 
C 340.632769 87.538811 340.642423 87.439716 340.651104 87.340534 
C 340.659784 87.241353 340.66749 87.142088 340.674221 87.042755 
L 325.502609 86.01475 
L 340.622142 87.637803 
z
" style="fill:#ff9896;"/>
   </g>
   <g id="patch_41">
    <path d="M 340.674221 87.042755 
C 340.67796 86.98757 340.681398 86.932365 340.684535 86.877143 
C 340.687672 86.82192 340.690507 86.766681 340.693041 86.711428 
L 325.502609 86.01475 
L 340.674221 87.042755 
z
" style="fill:#7f7f7f;"/>
   </g>
   <g id="patch_42">
    <path d="M 340.693041 86.711428 
C 340.695322 86.6617 340.697358 86.611961 340.699151 86.562213 
C 340.700943 86.512465 340.702491 86.462709 340.703794 86.412946 
L 325.502609 86.01475 
L 340.693041 86.711428 
z
" style="fill:#dbdb8d;"/>
   </g>
   <g id="patch_43">
    <path d="M 340.703794 86.412946 
C 340.703939 86.407416 340.704081 86.401887 340.70422 86.396358 
C 340.704358 86.390828 340.704494 86.385299 340.704627 86.379769 
L 325.502609 86.01475 
L 340.703794 86.412946 
z
" style="fill:#e377c2;"/>
   </g>
   <g id="patch_44">
    <path d="M 340.704627 86.379769 
C 340.705291 86.352122 340.705879 86.324472 340.706392 86.296821 
C 340.706905 86.26917 340.707343 86.241518 340.707705 86.213865 
L 325.502609 86.01475 
L 340.704627 86.379769 
z
" style="fill:#c49c94;"/>
   </g>
   <g id="patch_45">
    <path d="M 340.707705 86.213865 
C 340.707777 86.208334 340.707847 86.202804 340.707913 86.197273 
C 340.70798 86.191742 340.708043 86.186211 340.708103 86.180681 
L 325.502609 86.01475 
L 340.707705 86.213865 
z
"/>
   </g>
   <g id="patch_46">
    <path d="M 340.708103 86.180681 
C 340.708164 86.17515 340.708221 86.169619 340.708275 86.164088 
C 340.70833 86.158557 340.708381 86.153026 340.708429 86.147495 
L 325.502609 86.01475 
L 340.708103 86.180681 
z
"/>
   </g>
   <g id="patch_47">
    <path d="M 340.708429 86.147495 
C 340.708478 86.141965 340.708523 86.136434 340.708565 86.130903 
C 340.708607 86.125372 340.708647 86.119841 340.708683 86.11431 
L 325.502609 86.01475 
L 340.708429 86.147495 
z
"/>
   </g>
   <g id="patch_48">
    <path d="M 340.708683 86.11431 
C 340.708755 86.103248 340.708816 86.092186 340.708864 86.081123 
C 340.708912 86.070061 340.708948 86.058999 340.708972 86.047937 
L 325.502609 86.01475 
L 340.708683 86.11431 
z
"/>
   </g>
   <g id="patch_49">
    <path d="M 340.708972 86.047937 
C 340.708985 86.042406 340.708994 86.036875 340.709 86.031344 
C 340.709006 86.025812 340.709009 86.020281 340.709009 86.01475 
L 325.502609 86.01475 
L 340.708972 86.047937 
z
"/>
   </g>
   <g id="matplotlib.axis_7"/>
   <g id="matplotlib.axis_8"/>
  </g>
  <g id="axes_5"/>
  <g id="axes_6">
   <g id="patch_50">
    <path d="M 154.38553 131.63395 
C 154.38553 128.626768 153.493491 125.686107 151.82279 123.185727 
C 150.152089 120.685347 147.776642 118.735867 144.998368 117.585068 
C 142.220094 116.43427 139.161909 116.133065 136.212509 116.719737 
C 133.263109 117.306409 130.552981 118.755003 128.426582 120.881401 
C 126.300183 123.0078 124.851589 125.717929 124.264917 128.667329 
C 123.678245 131.616728 123.97945 134.674914 125.130249 137.453187 
C 126.281047 140.231461 128.230527 142.606909 130.730907 144.27761 
C 133.231288 145.94831 136.171949 146.84035 139.17913 146.84035 
L 139.17913 131.63395 
L 154.38553 131.63395 
z
" style="fill:#c7c7c7;"/>
   </g>
   <g id="patch_51">
    <path d="M 139.17913 146.84035 
C 143.210572 146.84035 147.08102 145.237158 149.931679 142.386499 
C 152.782338 139.535839 154.38553 135.665391 154.38553 131.63395 
L 139.17913 131.63395 
L 139.17913 146.84035 
z
" style="fill:#9467bd;"/>
   </g>
   <g id="matplotlib.axis_9"/>
   <g id="matplotlib.axis_10"/>
  </g>
  <g id="axes_7">
   <g id="patch_52">
    <path d="M 247.54727 131.63395 
C 247.54727 129.721384 247.186444 127.825874 246.483761 126.04707 
C 245.781078 124.268265 244.749071 122.637893 243.441994 121.241663 
C 242.134917 119.845433 240.576083 118.708248 238.847441 117.889892 
C 237.1188 117.071536 235.251183 116.586605 233.342772 116.460592 
C 231.434362 116.334579 229.519198 116.569732 227.697961 117.153688 
C 225.876724 117.737644 224.181898 118.659988 222.702583 119.872231 
C 221.223267 121.084475 219.985847 122.564996 219.055374 124.235963 
C 218.124902 125.906929 217.517973 127.738538 217.266494 129.634499 
C 217.015016 131.530459 217.123473 133.456956 217.586164 135.312711 
C 218.048856 137.168465 218.857529 138.920378 219.969671 140.476351 
C 221.081813 142.032323 222.477587 143.364601 224.083617 144.403147 
C 225.689647 145.441692 227.477287 146.167982 229.352559 146.543833 
C 231.227831 146.919684 233.157287 146.938393 235.039495 146.598977 
C 236.921702 146.259561 238.72309 145.568073 240.348956 144.560866 
C 241.974823 143.553658 243.39617 142.248697 244.538275 140.714583 
C 245.68038 139.18047 246.522874 137.444567 247.021464 135.598134 
L 232.34087 131.63395 
L 247.54727 131.63395 
z
" style="fill:#2ca02c;"/>
   </g>
   <g id="patch_53">
    <path d="M 247.021464 135.598134 
C 247.052214 135.484255 247.081639 135.370022 247.109731 135.255458 
C 247.137824 135.140895 247.164582 135.026008 247.190001 134.910822 
L 232.34087 131.63395 
L 247.021464 135.598134 
z
" style="fill:#ff7f0e;"/>
   </g>
   <g id="patch_54">
    <path d="M 247.190001 134.910822 
C 247.223894 134.757239 247.255401 134.603139 247.284513 134.448578 
C 247.313624 134.294018 247.340336 134.139015 247.364638 133.983626 
L 232.34087 131.63395 
L 247.190001 134.910822 
z
" style="fill:#7f7f7f;"/>
   </g>
   <g id="patch_55">
    <path d="M 247.364638 133.983626 
C 247.376789 133.905932 247.388337 133.828145 247.399282 133.750273 
C 247.410226 133.6724 247.420566 133.594444 247.430301 133.516411 
L 232.34087 131.63395 
L 247.364638 133.983626 
z
"/>
   </g>
   <g id="patch_56">
    <path d="M 247.430301 133.516411 
C 247.449771 133.360342 247.466819 133.203981 247.481438 133.047384 
C 247.496057 132.890786 247.508245 132.733972 247.517999 132.576996 
L 232.34087 131.63395 
L 247.430301 133.516411 
z
" style="fill:#c49c94;"/>
   </g>
   <g id="patch_57">
    <path d="M 247.517999 132.576996 
C 247.520438 132.537753 247.522724 132.4985 247.524858 132.45924 
C 247.526992 132.419979 247.528973 132.38071 247.530803 132.341433 
L 232.34087 131.63395 
L 247.517999 132.576996 
z
"/>
   </g>
   <g id="patch_58">
    <path d="M 247.530803 132.341433 
C 247.532632 132.302157 247.534309 132.262874 247.535834 132.223585 
C 247.537358 132.184295 247.53873 132.145 247.53995 132.105701 
L 232.34087 131.63395 
L 247.530803 132.341433 
z
"/>
   </g>
   <g id="patch_59">
    <path d="M 247.53995 132.105701 
C 247.54239 132.0271 247.54422 131.948483 247.54544 131.869854 
C 247.54666 131.791226 247.54727 131.712589 247.54727 131.633951 
L 232.34087 131.63395 
L 247.53995 132.105701 
z
" style="fill:#c7c7c7;"/>
   </g>
   <g id="matplotlib.axis_11"/>
   <g id="matplotlib.axis_12"/>
  </g>
  <g id="axes_8">
   <g id="patch_60">
    <path d="M 340.709009 131.63395 
C 340.709009 129.740196 340.355246 127.863 339.66596 126.099144 
C 338.976674 124.335289 337.963918 122.715616 336.679906 121.323634 
C 335.395894 119.931651 333.863079 118.791698 332.160489 117.962548 
C 330.457899 117.133398 328.615306 116.62955 326.727708 116.47698 
C 324.840111 116.32441 322.940516 116.525787 321.126861 117.070728 
C 319.313207 117.615669 317.617207 118.494644 316.126303 119.662338 
C 314.635399 120.830031 313.375661 122.266023 312.412038 123.896279 
C 311.448415 125.526534 310.797756 127.322545 310.493608 129.191715 
C 310.189461 131.060885 310.237142 132.970529 310.634195 134.822191 
C 311.031248 136.673853 311.770729 138.435154 312.814512 140.015287 
C 313.858295 141.595419 315.188129 142.966753 316.735451 144.058585 
C 318.282773 145.150417 320.020526 145.943656 321.859117 146.397404 
C 323.697707 146.851152 325.604985 146.957475 327.482616 146.710892 
C 329.360247 146.464308 331.175399 145.86913 332.834488 144.956043 
C 334.493576 144.042955 335.967589 142.827925 337.180532 141.373596 
C 338.393474 139.919267 339.324136 138.25107 339.924535 136.455012 
L 325.502609 131.63395 
L 340.709009 131.63395 
z
" style="fill:#2ca02c;"/>
   </g>
   <g id="patch_61">
    <path d="M 339.924535 136.455012 
C 339.986256 136.270378 340.044425 136.084576 340.099011 135.897708 
C 340.153597 135.71084 340.20459 135.522941 340.25196 135.334115 
L 325.502609 131.63395 
L 339.924535 136.455012 
z
" style="fill:#c7c7c7;"/>
   </g>
   <g id="patch_62">
    <path d="M 340.25196 135.334115 
C 340.280382 135.220822 340.307498 135.107205 340.333302 134.993287 
C 340.359106 134.879369 340.383596 134.765157 340.406768 134.650675 
L 325.502609 131.63395 
L 340.25196 135.334115 
z
" style="fill:#ff7f0e;"/>
   </g>
   <g id="patch_63">
    <path d="M 340.406768 134.650675 
C 340.414492 134.612514 340.42207 134.574324 340.4295 134.536106 
C 340.436931 134.497887 340.444215 134.45964 340.451352 134.421365 
L 325.502609 131.63395 
L 340.406768 134.650675 
z
" style="fill:#9467bd;"/>
   </g>
   <g id="patch_64">
    <path d="M 340.451352 134.421365 
C 340.4799 134.268264 340.506094 134.114734 340.529925 133.960828 
C 340.553756 133.806922 340.575222 133.652659 340.594314 133.498093 
L 325.502609 131.63395 
L 340.451352 134.421365 
z
" style="fill:#7f7f7f;"/>
   </g>
   <g id="patch_65">
    <path d="M 340.594314 133.498093 
C 340.60386 133.420812 340.612812 133.343458 340.62117 133.266039 
C 340.629527 133.18862 340.63729 133.111138 340.644457 133.0336 
L 325.502609 131.63395 
L 340.594314 133.498093 
z
"/>
   </g>
   <g id="patch_66">
    <path d="M 340.644457 133.0336 
C 340.658792 132.878521 340.670744 132.723231 340.680308 132.567785 
C 340.689872 132.412339 340.697047 132.256755 340.701832 132.101088 
L 325.502609 131.63395 
L 340.644457 133.0336 
z
" style="fill:#c49c94;"/>
   </g>
   <g id="patch_67">
    <path d="M 340.701832 132.101088 
C 340.703028 132.062172 340.704074 132.023252 340.704972 131.984328 
C 340.705869 131.945404 340.706616 131.906477 340.707214 131.867547 
L 325.502609 131.63395 
L 340.701832 132.101088 
z
"/>
   </g>
   <g id="patch_68">
    <path d="M 340.707214 131.867547 
C 340.707812 131.828617 340.708261 131.789685 340.70856 131.750752 
C 340.708859 131.711819 340.709009 131.672885 340.709009 131.633951 
L 325.502609 131.63395 
L 340.707214 131.867547 
z
"/>
   </g>
   <g id="matplotlib.axis_13"/>
   <g id="matplotlib.axis_14"/>
  </g>
  <g id="axes_9"/>
  <g id="axes_10"/>
  <g id="axes_11">
   <g id="patch_69">
    <path d="M 247.54727 177.25315 
C 247.54727 173.221709 245.944078 169.351261 243.093418 166.500601 
C 240.242759 163.649942 236.372311 162.04675 232.34087 162.04675 
L 232.34087 177.25315 
L 247.54727 177.25315 
z
" style="fill:#ff7f0e;"/>
   </g>
   <g id="patch_70">
    <path d="M 232.34087 162.04675 
C 229.188322 162.04675 226.112457 163.027116 223.541363 164.851405 
C 220.970268 166.675694 219.029023 169.255157 217.987802 172.230794 
C 216.946582 175.206432 216.856039 178.433483 217.728776 181.462821 
C 218.601513 184.492159 220.395072 187.17641 222.859834 189.141992 
L 232.34087 177.25315 
L 232.34087 162.04675 
z
" style="fill:#7f7f7f;"/>
   </g>
   <g id="patch_71">
    <path d="M 222.859834 189.141992 
C 225.552608 191.289408 228.896681 192.45955 232.340869 192.45955 
C 235.785057 192.45955 239.12913 191.289409 241.821904 189.141993 
L 232.34087 177.25315 
L 222.859834 189.141992 
z
" style="fill:#17becf;"/>
   </g>
   <g id="patch_72">
    <path d="M 241.821904 189.141993 
C 243.15897 188.075718 244.30663 186.791486 245.216496 185.343443 
C 246.126362 183.8954 246.785464 182.304186 247.166013 180.636893 
L 232.34087 177.25315 
L 241.821904 189.141993 
z
" style="fill:#98df8a;"/>
   </g>
   <g id="patch_73">
    <path d="M 247.166013 180.636893 
C 247.292598 180.082288 247.387962 179.521017 247.451655 178.955727 
C 247.515348 178.390437 247.54727 177.822018 247.54727 177.25315 
L 232.34087 177.25315 
L 247.166013 180.636893 
z
"/>
   </g>
   <g id="matplotlib.axis_15"/>
   <g id="matplotlib.axis_16"/>
  </g>
  <g id="axes_12">
   <g id="patch_74">
    <path d="M 340.709009 177.25315 
C 340.709009 173.363975 339.216971 169.619241 336.542387 166.795717 
C 333.867803 163.972193 330.209339 162.279607 326.325867 162.069052 
L 325.502609 177.25315 
L 340.709009 177.25315 
z
" style="fill:#ff7f0e;"/>
   </g>
   <g id="patch_75">
    <path d="M 326.325867 162.069052 
C 323.288085 161.904348 320.269659 162.654996 317.662891 164.223437 
C 315.056123 165.791877 312.979059 168.107082 311.701654 170.868148 
C 310.424249 173.629213 310.00435 176.711104 310.49653 179.713271 
C 310.98871 182.715438 312.370681 185.501927 314.46283 187.710582 
L 325.502609 177.25315 
L 326.325867 162.069052 
z
" style="fill:#7f7f7f;"/>
   </g>
   <g id="patch_76">
    <path d="M 314.46283 187.710582 
C 316.748302 190.123326 319.762908 191.721569 323.042486 192.259229 
C 326.322064 192.796888 329.689187 192.244877 332.625415 190.688188 
L 325.502609 177.25315 
L 314.46283 187.710582 
z
" style="fill:#17becf;"/>
   </g>
   <g id="patch_77">
    <path d="M 332.625415 190.688188 
C 334.084038 189.914875 335.407038 188.909156 336.542386 187.710583 
C 337.677735 186.51201 338.610353 185.136502 339.303564 183.638152 
L 325.502609 177.25315 
L 332.625415 190.688188 
z
" style="fill:#98df8a;"/>
   </g>
   <g id="patch_78">
    <path d="M 339.303564 183.638152 
C 339.534184 183.139674 339.737628 182.629067 339.913002 182.108577 
C 340.088375 181.588087 340.235421 181.058477 340.353492 180.522076 
L 325.502609 177.25315 
L 339.303564 183.638152 
z
" style="fill:#9467bd;"/>
   </g>
   <g id="patch_79">
    <path d="M 340.353492 180.522076 
C 340.471562 179.985676 340.560485 179.443273 340.619868 178.897251 
C 340.679252 178.351229 340.709009 177.802391 340.709009 177.25315 
L 325.502609 177.25315 
L 340.353492 180.522076 
z
"/>
   </g>
   <g id="matplotlib.axis_17"/>
   <g id="matplotlib.axis_18"/>
  </g>
  <g id="axes_13"/>
  <g id="axes_14"/>
  <g id="axes_15">
   <g id="patch_80">
    <path d="M 247.54727 222.87235 
C 247.54727 220.875464 247.153927 218.897995 246.389751 217.053113 
C 245.625576 215.20823 244.50543 213.531813 243.093418 212.119801 
C 241.681406 210.70779 240.004989 209.587644 238.160107 208.823468 
C 236.315225 208.059293 234.337756 207.66595 232.34087 207.66595 
C 230.343983 207.66595 228.366514 208.059293 226.521632 208.823468 
C 224.67675 209.587644 223.000333 210.70779 221.588321 212.119801 
C 220.176309 213.531813 219.056163 215.20823 218.291988 217.053113 
C 217.527813 218.897995 217.13447 220.875464 217.13447 222.87235 
C 217.13447 224.869236 217.527813 226.846705 218.291988 228.691587 
C 219.056163 230.53647 220.176309 232.212887 221.588321 233.624899 
C 223.000333 235.03691 224.67675 236.157056 226.521632 236.921232 
C 228.366514 237.685407 230.343983 238.07875 232.34087 238.07875 
C 234.337756 238.07875 236.315225 237.685407 238.160107 236.921232 
C 240.004989 236.157056 241.681406 235.03691 243.093418 233.624899 
C 244.50543 232.212887 245.625576 230.53647 246.389751 228.691587 
C 247.153927 226.846705 247.54727 224.869236 247.54727 222.87235 
M 232.34087 222.87235 
M 247.54727 222.87235 
z
" style="fill:#2ca02c;"/>
   </g>
   <g id="matplotlib.axis_19"/>
   <g id="matplotlib.axis_20"/>
  </g>
  <g id="axes_16">
   <g id="patch_81">
    <path d="M 340.709009 222.87235 
C 340.709009 220.875464 340.315666 218.897995 339.55149 217.053113 
C 338.787315 215.20823 337.667169 213.531813 336.255157 212.119801 
C 334.843146 210.70779 333.166728 209.587644 331.321846 208.823468 
C 329.476964 208.059293 327.499495 207.66595 325.502609 207.66595 
C 323.505723 207.66595 321.528254 208.059293 319.683371 208.823468 
C 317.838489 209.587644 316.162072 210.70779 314.75006 212.119801 
C 313.338048 213.531813 312.217902 215.20823 311.453727 217.053113 
C 310.689552 218.897995 310.296209 220.875464 310.296209 222.87235 
C 310.296209 224.869236 310.689552 226.846705 311.453727 228.691587 
C 312.217902 230.53647 313.338048 232.212887 314.75006 233.624899 
C 316.162072 235.03691 317.838489 236.157056 319.683371 236.921232 
C 321.528254 237.685407 323.505723 238.07875 325.502609 238.07875 
C 327.499495 238.07875 329.476964 237.685407 331.321846 236.921232 
C 333.166728 236.157056 334.843146 235.03691 336.255157 233.624899 
C 337.667169 232.212887 338.787315 230.53647 339.55149 228.691587 
C 340.315666 226.846705 340.709009 224.869236 340.709009 222.87235 
M 325.502609 222.87235 
M 340.709009 222.87235 
z
" style="fill:#2ca02c;"/>
   </g>
   <g id="matplotlib.axis_21"/>
   <g id="matplotlib.axis_22"/>
  </g>
  <g id="axes_17">
   <g id="patch_82">
    <path d="M 61.223791 268.49155 
C 61.223791 266.494664 60.830448 264.517195 60.066273 262.672313 
C 59.302098 260.82743 58.181952 259.151013 56.76994 257.739001 
C 55.357928 256.32699 53.681511 255.206844 51.836629 254.442668 
C 49.991746 253.678493 48.014277 253.28515 46.017391 253.28515 
C 44.020505 253.28515 42.043036 253.678493 40.198154 254.442668 
C 38.353272 255.206844 36.676854 256.32699 35.264843 257.739001 
C 33.852831 259.151013 32.732685 260.82743 31.96851 262.672313 
C 31.204334 264.517195 30.810991 266.494664 30.810991 268.49155 
C 30.810991 270.488436 31.204334 272.465905 31.96851 274.310787 
C 32.732685 276.15567 33.852831 277.832087 35.264843 279.244099 
C 36.676854 280.65611 38.353272 281.776256 40.198154 282.540432 
C 42.043036 283.304607 44.020505 283.69795 46.017391 283.69795 
C 48.014277 283.69795 49.991746 283.304607 51.836629 282.540432 
C 53.681511 281.776256 55.357928 280.65611 56.76994 279.244099 
C 58.181952 277.832087 59.302098 276.15567 60.066273 274.310787 
C 60.830448 272.465905 61.223791 270.488436 61.223791 268.49155 
M 46.017391 268.49155 
M 61.223791 268.49155 
z
" style="fill:#9467bd;"/>
   </g>
   <g id="matplotlib.axis_23"/>
   <g id="matplotlib.axis_24"/>
  </g>
  <g id="axes_18"/>
  <g id="axes_19">
   <g id="patch_83">
    <path d="M 247.54727 268.49155 
C 247.54727 267.162649 247.373069 265.839463 247.029124 264.555844 
C 246.685179 263.272224 246.174449 262.039212 245.509998 260.88835 
L 232.34087 268.49155 
L 247.54727 268.49155 
z
" style="fill:#7f7f7f;"/>
   </g>
   <g id="patch_84">
    <path d="M 245.509998 260.88835 
C 244.343812 258.868456 242.72839 257.143687 240.789093 255.84789 
C 238.849796 254.552094 236.638122 253.719679 234.325703 253.415243 
C 232.013285 253.110807 229.661527 253.342435 227.452933 254.092152 
C 225.244339 254.841868 223.237558 256.089765 221.588322 257.739001 
C 219.939085 259.388237 218.691188 261.395018 217.941472 263.603612 
C 217.191755 265.812206 216.960127 268.163964 217.264562 270.476382 
C 217.568998 272.788801 218.401413 275.000475 219.697209 276.939772 
C 220.993006 278.879069 222.717774 280.494491 224.737668 281.660678 
L 232.34087 268.49155 
L 245.509998 260.88835 
z
" style="fill:#c7c7c7;"/>
   </g>
   <g id="patch_85">
    <path d="M 224.737668 281.660678 
C 228.228998 283.676399 232.382501 284.223218 236.276574 283.179805 
C 240.170647 282.136392 243.494276 279.586082 245.509997 276.094751 
L 232.34087 268.49155 
L 224.737668 281.660678 
z
" style="fill:#98df8a;"/>
   </g>
   <g id="patch_86">
    <path d="M 245.509997 276.094751 
C 246.174448 274.94389 246.685179 273.710877 247.029124 272.427257 
C 247.373069 271.143638 247.547269 269.820452 247.54727 268.491551 
L 232.34087 268.49155 
L 245.509997 276.094751 
z
" style="fill:#2ca02c;"/>
   </g>
   <g id="matplotlib.axis_25"/>
   <g id="matplotlib.axis_26"/>
  </g>
  <g id="axes_20">
   <g id="patch_87">
    <path d="M 340.709009 268.49155 
C 340.709009 267.428974 340.597634 266.369318 340.376712 265.329962 
C 340.15579 264.290605 339.826535 263.277261 339.394346 262.30655 
L 325.502609 268.49155 
L 340.709009 268.49155 
z
" style="fill:#7f7f7f;"/>
   </g>
   <g id="patch_88">
    <path d="M 339.394346 262.30655 
C 337.86636 258.874636 335.119522 256.127798 331.687608 254.599812 
C 328.255695 253.071826 324.376403 252.868521 320.803572 254.029404 
C 317.230741 255.190288 314.211828 257.634955 312.33348 260.88835 
C 310.455131 264.141745 309.847444 267.978535 310.628505 271.653139 
L 325.502609 268.49155 
L 339.394346 262.30655 
z
" style="fill:#c7c7c7;"/>
   </g>
   <g id="patch_89">
    <path d="M 310.628505 271.653139 
C 311.296063 274.793753 312.941469 277.643679 315.327542 279.792108 
C 317.713614 281.940537 320.719919 283.27903 323.913108 283.614648 
L 325.502609 268.49155 
L 310.628505 271.653139 
z
" style="fill:#98df8a;"/>
   </g>
   <g id="patch_90">
    <path d="M 323.913108 283.614648 
C 327.106296 283.950265 330.325195 283.266067 333.10581 281.660678 
C 335.886424 280.055289 338.088406 277.60974 339.394347 274.676549 
L 325.502609 268.49155 
L 323.913108 283.614648 
z
" style="fill:#9467bd;"/>
   </g>
   <g id="patch_91">
    <path d="M 339.394347 274.676549 
C 339.826535 273.705837 340.155791 272.692494 340.376713 271.653137 
C 340.597635 270.613781 340.709009 269.554125 340.709009 268.491549 
L 325.502609 268.49155 
L 339.394347 274.676549 
z
" style="fill:#2ca02c;"/>
   </g>
   <g id="matplotlib.axis_27"/>
   <g id="matplotlib.axis_28"/>
  </g>
  <g id="axes_21">
   <g id="patch_92">
    <path d="M 61.223791 314.11075 
C 61.223791 311.282745 60.434886 308.51003 58.946133 306.105612 
C 57.45738 303.701194 55.326993 301.759089 52.795467 300.498539 
L 46.017391 314.11075 
L 61.223791 314.11075 
z
"/>
   </g>
   <g id="patch_93">
    <path d="M 52.795467 300.498539 
C 50.263941 299.237989 47.430262 298.708282 44.614321 298.969218 
C 41.79838 299.230153 39.110284 300.271528 36.853487 301.975781 
C 34.596691 303.680035 32.859438 305.98053 31.837845 308.617566 
C 30.816252 311.254602 30.550265 314.125068 31.069909 316.90492 
C 31.589554 319.684772 32.874513 322.265316 34.779727 324.355237 
C 36.684942 326.445157 39.135917 327.962736 41.855964 328.736656 
C 44.576011 329.510576 47.458775 329.510575 50.178822 328.736655 
C 52.898869 327.962734 55.349844 326.445155 57.255058 324.355234 
L 46.017391 314.11075 
L 52.795467 300.498539 
z
" style="fill:#1f77b4;"/>
   </g>
   <g id="patch_94">
    <path d="M 57.255058 324.355234 
C 57.381273 324.216782 57.504919 324.07601 57.625932 323.932989 
C 57.746945 323.789968 57.865305 323.644723 57.980951 323.497328 
L 46.017391 314.11075 
L 57.255058 324.355234 
z
"/>
   </g>
   <g id="patch_95">
    <path d="M 57.980951 323.497328 
C 58.212262 323.202513 58.432596 322.899248 58.641503 322.588156 
C 58.85041 322.277063 59.047745 321.958354 59.233107 321.632683 
L 46.017391 314.11075 
L 57.980951 323.497328 
z
" style="fill:#98df8a;"/>
   </g>
   <g id="patch_96">
    <path d="M 59.233107 321.632683 
C 59.511188 321.144106 59.761961 320.640484 59.984273 320.124137 
C 60.206584 319.60779 60.400091 319.079512 60.563901 318.541737 
L 46.017391 314.11075 
L 59.233107 321.632683 
z
" style="fill:#c7c7c7;"/>
   </g>
   <g id="patch_97">
    <path d="M 60.563901 318.541737 
C 60.618493 318.362519 60.669767 318.182308 60.717699 318.001195 
C 60.76563 317.820083 60.810211 317.6381 60.851417 317.45534 
L 46.017391 314.11075 
L 60.563901 318.541737 
z
"/>
   </g>
   <g id="patch_98">
    <path d="M 60.851417 317.45534 
C 60.975064 316.906935 61.068205 316.352096 61.130411 315.793377 
C 61.192617 315.234658 61.223791 314.672919 61.223791 314.110748 
L 46.017391 314.11075 
L 60.851417 317.45534 
z
" style="fill:#9467bd;"/>
   </g>
   <g id="matplotlib.axis_29"/>
   <g id="matplotlib.axis_30"/>
  </g>
  <g id="axes_22">
   <g id="patch_99">
    <path d="M 154.38553 314.11075 
C 154.38553 311.157052 153.524939 308.266375 151.909419 305.793638 
C 150.293899 303.3209 147.99239 301.371622 145.287472 300.185135 
C 142.582554 298.998647 139.589653 298.625583 136.67624 299.111745 
C 133.762826 299.597908 131.053223 300.922552 128.880116 302.923038 
C 126.70701 304.923523 125.163133 307.514483 124.438042 310.377799 
C 123.712952 313.241115 123.837591 316.2546 124.796655 319.048259 
C 125.755719 321.841918 127.508283 324.296537 129.839166 326.110736 
C 132.170049 327.924935 134.979785 329.021298 137.923395 329.265212 
L 139.17913 314.11075 
L 154.38553 314.11075 
z
" style="fill:#8c564b;"/>
   </g>
   <g id="patch_100">
    <path d="M 137.923395 329.265212 
C 141.294527 329.544553 144.664371 328.691192 147.496242 326.841039 
C 150.328114 324.990885 152.463249 322.247663 153.561605 319.048261 
L 139.17913 314.11075 
L 137.923395 329.265212 
z
" style="fill:#c7c7c7;"/>
   </g>
   <g id="patch_101">
    <path d="M 153.561605 319.048261 
C 153.833895 318.25511 154.040108 317.440793 154.178135 316.613642 
C 154.316162 315.786491 154.38553 314.949339 154.38553 314.110751 
L 139.17913 314.11075 
L 153.561605 319.048261 
z
" style="fill:#9467bd;"/>
   </g>
   <g id="matplotlib.axis_31"/>
   <g id="matplotlib.axis_32"/>
  </g>
  <g id="axes_23">
   <g id="patch_102">
    <path d="M 247.54727 314.11075 
C 247.54727 310.220585 246.054472 306.474972 243.378674 303.651235 
C 240.702877 300.827497 237.042938 299.135486 233.158399 298.926342 
L 232.34087 314.11075 
L 247.54727 314.11075 
z
" style="fill:#98df8a;"/>
   </g>
   <g id="patch_103">
    <path d="M 233.158399 298.926342 
C 230.306821 298.772813 227.468847 299.425619 224.97095 300.809664 
C 222.473054 302.193709 220.414836 304.253803 219.03307 306.752961 
L 232.34087 314.11075 
L 233.158399 298.926342 
z
" style="fill:#17becf;"/>
   </g>
   <g id="patch_104">
    <path d="M 219.03307 306.752961 
C 217.757139 309.060696 217.103168 311.661122 217.135621 314.297898 
C 217.168075 316.934674 217.885851 319.518215 219.218194 321.793848 
C 220.550537 324.06948 222.452181 325.959888 224.735668 327.278723 
C 227.019156 328.597558 229.606906 329.300012 232.243828 329.31684 
L 232.34087 314.11075 
L 219.03307 306.752961 
z
" style="fill:#9467bd;"/>
   </g>
   <g id="patch_105">
    <path d="M 232.243828 329.31684 
C 232.345489 329.317489 232.447155 329.317118 232.548809 329.315728 
C 232.650463 329.314338 232.752101 329.311928 232.853707 329.3085 
L 232.34087 314.11075 
L 232.243828 329.31684 
z
" style="fill:#aec7e8;"/>
   </g>
   <g id="patch_106">
    <path d="M 232.853707 329.3085 
C 233.343354 329.291977 233.831916 329.2518 234.317684 329.188111 
C 234.803452 329.124421 235.285859 329.037292 235.763215 328.92703 
L 232.34087 314.11075 
L 232.853707 329.3085 
z
" style="fill:#c7c7c7;"/>
   </g>
   <g id="patch_107">
    <path d="M 235.763215 328.92703 
C 238.651296 328.259925 241.282262 326.762712 243.330882 324.620471 
C 245.379501 322.47823 246.757731 319.783028 247.295199 316.868038 
L 232.34087 314.11075 
L 235.763215 328.92703 
z
" style="fill:#2ca02c;"/>
   </g>
   <g id="patch_108">
    <path d="M 247.295199 316.868038 
C 247.308605 316.795326 247.321482 316.722518 247.333826 316.649619 
C 247.346171 316.57672 247.357983 316.503732 247.369263 316.43066 
L 232.34087 314.11075 
L 247.295199 316.868038 
z
" style="fill:#ff7f0e;"/>
   </g>
   <g id="patch_109">
    <path d="M 247.369263 316.43066 
C 247.381953 316.348455 247.393968 316.266146 247.405308 316.183744 
C 247.416647 316.101341 247.42731 316.018847 247.437296 315.936269 
L 232.34087 314.11075 
L 247.369263 316.43066 
z
" style="fill:#ff9896;"/>
   </g>
   <g id="patch_110">
    <path d="M 247.437296 315.936269 
C 247.451165 315.821577 247.463726 315.706731 247.474978 315.591753 
C 247.486229 315.476775 247.49617 315.361673 247.504799 315.246468 
L 232.34087 314.11075 
L 247.437296 315.936269 
z
" style="fill:#7f7f7f;"/>
   </g>
   <g id="patch_111">
    <path d="M 247.504799 315.246468 
C 247.507905 315.204995 247.510841 315.163509 247.513607 315.122012 
C 247.516372 315.080514 247.518968 315.039006 247.521393 314.997487 
L 232.34087 314.11075 
L 247.504799 315.246468 
z
" style="fill:#dbdb8d;"/>
   </g>
   <g id="patch_112">
    <path d="M 247.521393 314.997487 
C 247.522741 314.974421 247.524035 314.951352 247.525278 314.92828 
C 247.52652 314.905209 247.527709 314.882134 247.528846 314.859057 
L 232.34087 314.11075 
L 247.521393 314.997487 
z
" style="fill:#1f77b4;"/>
   </g>
   <g id="patch_113">
    <path d="M 247.528846 314.859057 
C 247.530211 314.831364 247.531499 314.803668 247.532712 314.775968 
C 247.533925 314.748268 247.535062 314.720565 247.536124 314.692859 
L 232.34087 314.11075 
L 247.528846 314.859057 
z
"/>
   </g>
   <g id="patch_114">
    <path d="M 247.536124 314.692859 
C 247.536301 314.688242 247.536475 314.683624 247.536648 314.679006 
C 247.536821 314.674388 247.536991 314.669771 247.53716 314.665153 
L 232.34087 314.11075 
L 247.536124 314.692859 
z
" style="fill:#e377c2;"/>
   </g>
   <g id="patch_115">
    <path d="M 247.53716 314.665153 
C 247.538676 314.623591 247.540022 314.582023 247.541197 314.54045 
C 247.542372 314.498877 247.543377 314.4573 247.544211 314.415719 
L 232.34087 314.11075 
L 247.53716 314.665153 
z
" style="fill:#c49c94;"/>
   </g>
   <g id="patch_116">
    <path d="M 247.544211 314.415719 
C 247.544489 314.401859 247.544748 314.387998 247.544988 314.374137 
C 247.545228 314.360276 247.54545 314.346414 247.545652 314.332553 
L 232.34087 314.11075 
L 247.544211 314.415719 
z
" style="fill:#8c564b;"/>
   </g>
   <g id="patch_117">
    <path d="M 247.545652 314.332553 
C 247.545719 314.327932 247.545785 314.323312 247.545848 314.318691 
C 247.545911 314.31407 247.545972 314.30945 247.546031 314.304829 
L 232.34087 314.11075 
L 247.545652 314.332553 
z
"/>
   </g>
   <g id="patch_118">
    <path d="M 247.546031 314.304829 
C 247.54609 314.300208 247.546147 314.295588 247.546202 314.290967 
C 247.546256 314.286346 247.546309 314.281726 247.54636 314.277105 
L 232.34087 314.11075 
L 247.546031 314.304829 
z
"/>
   </g>
   <g id="patch_119">
    <path d="M 247.54636 314.277105 
C 247.546461 314.267863 247.546553 314.258622 247.546638 314.24938 
C 247.546722 314.240138 247.546798 314.230896 247.546865 314.221655 
L 232.34087 314.11075 
L 247.54636 314.277105 
z
"/>
   </g>
   <g id="patch_120">
    <path d="M 247.546865 314.221655 
C 247.546899 314.217034 247.54693 314.212413 247.54696 314.207792 
C 247.546989 314.203171 247.547017 314.19855 247.547042 314.193929 
L 232.34087 314.11075 
L 247.546865 314.221655 
z
"/>
   </g>
   <g id="patch_121">
    <path d="M 247.547042 314.193929 
C 247.547093 314.184687 247.547135 314.175445 247.547168 314.166203 
C 247.547202 314.156961 247.547227 314.147719 247.547244 314.138477 
L 232.34087 314.11075 
L 247.547042 314.193929 
z
"/>
   </g>
   <g id="patch_122">
    <path d="M 247.547244 314.138477 
C 247.547253 314.133856 247.547259 314.129235 247.547263 314.124614 
C 247.547267 314.119993 247.54727 314.115372 247.54727 314.110751 
L 232.34087 314.11075 
L 247.547244 314.138477 
z
"/>
   </g>
   <g id="matplotlib.axis_33"/>
   <g id="matplotlib.axis_34"/>
  </g>
  <g id="axes_24">
   <g id="legend_1">
    <g id="patch_123">
     <path d="M 369.425391 333.11875 
L 520.814454 333.11875 
Q 522.814454 333.11875 522.814454 331.11875 
L 522.814454 9.2 
Q 522.814454 7.2 520.814454 7.2 
L 369.425391 7.2 
Q 367.425391 7.2 367.425391 9.2 
L 367.425391 331.11875 
Q 367.425391 333.11875 369.425391 333.11875 
z
" style="fill:#ffffff;opacity:0.8;stroke:#cccccc;stroke-linejoin:miter;"/>
    </g>
    <g id="line2d_1"/>
    <g id="line2d_2">
     <defs>
      <path d="M 0 3 
C 0.795609 3 1.55874 2.683901 2.12132 2.12132 
C 2.683901 1.55874 3 0.795609 3 0 
C 3 -0.795609 2.683901 -1.55874 2.12132 -2.12132 
C 1.55874 -2.683901 0.795609 -3 0 -3 
C -0.795609 -3 -1.55874 -2.683901 -2.12132 -2.12132 
C -2.683901 -1.55874 -3 -0.795609 -3 0 
C -3 0.795609 -2.683901 1.55874 -2.12132 2.12132 
C -1.55874 2.683901 -0.795609 3 0 3 
z
" id="m996f245367" style="stroke:#1f77b4;"/>
     </defs>
     <g>
      <use style="fill:#1f77b4;stroke:#1f77b4;" x="381.425391" xlink:href="#m996f245367" y="15.298437"/>
     </g>
    </g>
    <g id="text_1">
     <!-- Aenigmarchaeota -->
     <g transform="translate(399.425391 18.798437)scale(0.1 -0.1)">
      <defs>
       <path d="M 2188 4044 
L 1331 1722 
L 3047 1722 
L 2188 4044 
z
M 1831 4666 
L 2547 4666 
L 4325 0 
L 3669 0 
L 3244 1197 
L 1141 1197 
L 716 0 
L 50 0 
L 1831 4666 
z
" id="DejaVuSans-41" transform="scale(0.015625)"/>
       <path d="M 3597 1894 
L 3597 1613 
L 953 1613 
Q 991 1019 1311 708 
Q 1631 397 2203 397 
Q 2534 397 2845 478 
Q 3156 559 3463 722 
L 3463 178 
Q 3153 47 2828 -22 
Q 2503 -91 2169 -91 
Q 1331 -91 842 396 
Q 353 884 353 1716 
Q 353 2575 817 3079 
Q 1281 3584 2069 3584 
Q 2775 3584 3186 3129 
Q 3597 2675 3597 1894 
z
M 3022 2063 
Q 3016 2534 2758 2815 
Q 2500 3097 2075 3097 
Q 1594 3097 1305 2825 
Q 1016 2553 972 2059 
L 3022 2063 
z
" id="DejaVuSans-65" transform="scale(0.015625)"/>
       <path d="M 3513 2113 
L 3513 0 
L 2938 0 
L 2938 2094 
Q 2938 2591 2744 2837 
Q 2550 3084 2163 3084 
Q 1697 3084 1428 2787 
Q 1159 2491 1159 1978 
L 1159 0 
L 581 0 
L 581 3500 
L 1159 3500 
L 1159 2956 
Q 1366 3272 1645 3428 
Q 1925 3584 2291 3584 
Q 2894 3584 3203 3211 
Q 3513 2838 3513 2113 
z
" id="DejaVuSans-6e" transform="scale(0.015625)"/>
       <path d="M 603 3500 
L 1178 3500 
L 1178 0 
L 603 0 
L 603 3500 
z
M 603 4863 
L 1178 4863 
L 1178 4134 
L 603 4134 
L 603 4863 
z
" id="DejaVuSans-69" transform="scale(0.015625)"/>
       <path d="M 2906 1791 
Q 2906 2416 2648 2759 
Q 2391 3103 1925 3103 
Q 1463 3103 1205 2759 
Q 947 2416 947 1791 
Q 947 1169 1205 825 
Q 1463 481 1925 481 
Q 2391 481 2648 825 
Q 2906 1169 2906 1791 
z
M 3481 434 
Q 3481 -459 3084 -895 
Q 2688 -1331 1869 -1331 
Q 1566 -1331 1297 -1286 
Q 1028 -1241 775 -1147 
L 775 -588 
Q 1028 -725 1275 -790 
Q 1522 -856 1778 -856 
Q 2344 -856 2625 -561 
Q 2906 -266 2906 331 
L 2906 616 
Q 2728 306 2450 153 
Q 2172 0 1784 0 
Q 1141 0 747 490 
Q 353 981 353 1791 
Q 353 2603 747 3093 
Q 1141 3584 1784 3584 
Q 2172 3584 2450 3431 
Q 2728 3278 2906 2969 
L 2906 3500 
L 3481 3500 
L 3481 434 
z
" id="DejaVuSans-67" transform="scale(0.015625)"/>
       <path d="M 3328 2828 
Q 3544 3216 3844 3400 
Q 4144 3584 4550 3584 
Q 5097 3584 5394 3201 
Q 5691 2819 5691 2113 
L 5691 0 
L 5113 0 
L 5113 2094 
Q 5113 2597 4934 2840 
Q 4756 3084 4391 3084 
Q 3944 3084 3684 2787 
Q 3425 2491 3425 1978 
L 3425 0 
L 2847 0 
L 2847 2094 
Q 2847 2600 2669 2842 
Q 2491 3084 2119 3084 
Q 1678 3084 1418 2786 
Q 1159 2488 1159 1978 
L 1159 0 
L 581 0 
L 581 3500 
L 1159 3500 
L 1159 2956 
Q 1356 3278 1631 3431 
Q 1906 3584 2284 3584 
Q 2666 3584 2933 3390 
Q 3200 3197 3328 2828 
z
" id="DejaVuSans-6d" transform="scale(0.015625)"/>
       <path d="M 2194 1759 
Q 1497 1759 1228 1600 
Q 959 1441 959 1056 
Q 959 750 1161 570 
Q 1363 391 1709 391 
Q 2188 391 2477 730 
Q 2766 1069 2766 1631 
L 2766 1759 
L 2194 1759 
z
M 3341 1997 
L 3341 0 
L 2766 0 
L 2766 531 
Q 2569 213 2275 61 
Q 1981 -91 1556 -91 
Q 1019 -91 701 211 
Q 384 513 384 1019 
Q 384 1609 779 1909 
Q 1175 2209 1959 2209 
L 2766 2209 
L 2766 2266 
Q 2766 2663 2505 2880 
Q 2244 3097 1772 3097 
Q 1472 3097 1187 3025 
Q 903 2953 641 2809 
L 641 3341 
Q 956 3463 1253 3523 
Q 1550 3584 1831 3584 
Q 2591 3584 2966 3190 
Q 3341 2797 3341 1997 
z
" id="DejaVuSans-61" transform="scale(0.015625)"/>
       <path d="M 2631 2963 
Q 2534 3019 2420 3045 
Q 2306 3072 2169 3072 
Q 1681 3072 1420 2755 
Q 1159 2438 1159 1844 
L 1159 0 
L 581 0 
L 581 3500 
L 1159 3500 
L 1159 2956 
Q 1341 3275 1631 3429 
Q 1922 3584 2338 3584 
Q 2397 3584 2469 3576 
Q 2541 3569 2628 3553 
L 2631 2963 
z
" id="DejaVuSans-72" transform="scale(0.015625)"/>
       <path d="M 3122 3366 
L 3122 2828 
Q 2878 2963 2633 3030 
Q 2388 3097 2138 3097 
Q 1578 3097 1268 2742 
Q 959 2388 959 1747 
Q 959 1106 1268 751 
Q 1578 397 2138 397 
Q 2388 397 2633 464 
Q 2878 531 3122 666 
L 3122 134 
Q 2881 22 2623 -34 
Q 2366 -91 2075 -91 
Q 1284 -91 818 406 
Q 353 903 353 1747 
Q 353 2603 823 3093 
Q 1294 3584 2113 3584 
Q 2378 3584 2631 3529 
Q 2884 3475 3122 3366 
z
" id="DejaVuSans-63" transform="scale(0.015625)"/>
       <path d="M 3513 2113 
L 3513 0 
L 2938 0 
L 2938 2094 
Q 2938 2591 2744 2837 
Q 2550 3084 2163 3084 
Q 1697 3084 1428 2787 
Q 1159 2491 1159 1978 
L 1159 0 
L 581 0 
L 581 4863 
L 1159 4863 
L 1159 2956 
Q 1366 3272 1645 3428 
Q 1925 3584 2291 3584 
Q 2894 3584 3203 3211 
Q 3513 2838 3513 2113 
z
" id="DejaVuSans-68" transform="scale(0.015625)"/>
       <path d="M 1959 3097 
Q 1497 3097 1228 2736 
Q 959 2375 959 1747 
Q 959 1119 1226 758 
Q 1494 397 1959 397 
Q 2419 397 2687 759 
Q 2956 1122 2956 1747 
Q 2956 2369 2687 2733 
Q 2419 3097 1959 3097 
z
M 1959 3584 
Q 2709 3584 3137 3096 
Q 3566 2609 3566 1747 
Q 3566 888 3137 398 
Q 2709 -91 1959 -91 
Q 1206 -91 779 398 
Q 353 888 353 1747 
Q 353 2609 779 3096 
Q 1206 3584 1959 3584 
z
" id="DejaVuSans-6f" transform="scale(0.015625)"/>
       <path d="M 1172 4494 
L 1172 3500 
L 2356 3500 
L 2356 3053 
L 1172 3053 
L 1172 1153 
Q 1172 725 1289 603 
Q 1406 481 1766 481 
L 2356 481 
L 2356 0 
L 1766 0 
Q 1100 0 847 248 
Q 594 497 594 1153 
L 594 3053 
L 172 3053 
L 172 3500 
L 594 3500 
L 594 4494 
L 1172 4494 
z
" id="DejaVuSans-74" transform="scale(0.015625)"/>
      </defs>
      <use xlink:href="#DejaVuSans-41"/>
      <use x="66.658203" xlink:href="#DejaVuSans-65"/>
      <use x="128.181641" xlink:href="#DejaVuSans-6e"/>
      <use x="191.560547" xlink:href="#DejaVuSans-69"/>
      <use x="219.34375" xlink:href="#DejaVuSans-67"/>
      <use x="282.820312" xlink:href="#DejaVuSans-6d"/>
      <use x="380.232422" xlink:href="#DejaVuSans-61"/>
      <use x="441.511719" xlink:href="#DejaVuSans-72"/>
      <use x="480.375" xlink:href="#DejaVuSans-63"/>
      <use x="535.355469" xlink:href="#DejaVuSans-68"/>
      <use x="598.734375" xlink:href="#DejaVuSans-61"/>
      <use x="660.013672" xlink:href="#DejaVuSans-65"/>
      <use x="721.537109" xlink:href="#DejaVuSans-6f"/>
      <use x="782.71875" xlink:href="#DejaVuSans-74"/>
      <use x="821.927734" xlink:href="#DejaVuSans-61"/>
     </g>
    </g>
    <g id="line2d_3"/>
    <g id="line2d_4">
     <defs>
      <path d="M 0 3 
C 0.795609 3 1.55874 2.683901 2.12132 2.12132 
C 2.683901 1.55874 3 0.795609 3 0 
C 3 -0.795609 2.683901 -1.55874 2.12132 -2.12132 
C 1.55874 -2.683901 0.795609 -3 0 -3 
C -0.795609 -3 -1.55874 -2.683901 -2.12132 -2.12132 
C -2.683901 -1.55874 -3 -0.795609 -3 0 
C -3 0.795609 -2.683901 1.55874 -2.12132 2.12132 
C -1.55874 2.683901 -0.795609 3 0 3 
z
" id="mafbc04f27a" style="stroke:#aec7e8;"/>
     </defs>
     <g>
      <use style="fill:#aec7e8;stroke:#aec7e8;" x="381.425391" xlink:href="#mafbc04f27a" y="29.976562"/>
     </g>
    </g>
    <g id="text_2">
     <!-- Altiarchaeota -->
     <g transform="translate(399.425391 33.476562)scale(0.1 -0.1)">
      <defs>
       <path d="M 603 4863 
L 1178 4863 
L 1178 0 
L 603 0 
L 603 4863 
z
" id="DejaVuSans-6c" transform="scale(0.015625)"/>
      </defs>
      <use xlink:href="#DejaVuSans-41"/>
      <use x="68.408203" xlink:href="#DejaVuSans-6c"/>
      <use x="96.191406" xlink:href="#DejaVuSans-74"/>
      <use x="135.400391" xlink:href="#DejaVuSans-69"/>
      <use x="163.183594" xlink:href="#DejaVuSans-61"/>
      <use x="224.462891" xlink:href="#DejaVuSans-72"/>
      <use x="263.326172" xlink:href="#DejaVuSans-63"/>
      <use x="318.306641" xlink:href="#DejaVuSans-68"/>
      <use x="381.685547" xlink:href="#DejaVuSans-61"/>
      <use x="442.964844" xlink:href="#DejaVuSans-65"/>
      <use x="504.488281" xlink:href="#DejaVuSans-6f"/>
      <use x="565.669922" xlink:href="#DejaVuSans-74"/>
      <use x="604.878906" xlink:href="#DejaVuSans-61"/>
     </g>
    </g>
    <g id="line2d_5"/>
    <g id="line2d_6">
     <defs>
      <path d="M 0 3 
C 0.795609 3 1.55874 2.683901 2.12132 2.12132 
C 2.683901 1.55874 3 0.795609 3 0 
C 3 -0.795609 2.683901 -1.55874 2.12132 -2.12132 
C 1.55874 -2.683901 0.795609 -3 0 -3 
C -0.795609 -3 -1.55874 -2.683901 -2.12132 -2.12132 
C -2.683901 -1.55874 -3 -0.795609 -3 0 
C -3 0.795609 -2.683901 1.55874 -2.12132 2.12132 
C -1.55874 2.683901 -0.795609 3 0 3 
z
" id="mab3370f574" style="stroke:#ff7f0e;"/>
     </defs>
     <g>
      <use style="fill:#ff7f0e;stroke:#ff7f0e;" x="381.425391" xlink:href="#mab3370f574" y="44.654687"/>
     </g>
    </g>
    <g id="text_3">
     <!-- Asgardarchaeota -->
     <g transform="translate(399.425391 48.154687)scale(0.1 -0.1)">
      <defs>
       <path d="M 2834 3397 
L 2834 2853 
Q 2591 2978 2328 3040 
Q 2066 3103 1784 3103 
Q 1356 3103 1142 2972 
Q 928 2841 928 2578 
Q 928 2378 1081 2264 
Q 1234 2150 1697 2047 
L 1894 2003 
Q 2506 1872 2764 1633 
Q 3022 1394 3022 966 
Q 3022 478 2636 193 
Q 2250 -91 1575 -91 
Q 1294 -91 989 -36 
Q 684 19 347 128 
L 347 722 
Q 666 556 975 473 
Q 1284 391 1588 391 
Q 1994 391 2212 530 
Q 2431 669 2431 922 
Q 2431 1156 2273 1281 
Q 2116 1406 1581 1522 
L 1381 1569 
Q 847 1681 609 1914 
Q 372 2147 372 2553 
Q 372 3047 722 3315 
Q 1072 3584 1716 3584 
Q 2034 3584 2315 3537 
Q 2597 3491 2834 3397 
z
" id="DejaVuSans-73" transform="scale(0.015625)"/>
       <path d="M 2906 2969 
L 2906 4863 
L 3481 4863 
L 3481 0 
L 2906 0 
L 2906 525 
Q 2725 213 2448 61 
Q 2172 -91 1784 -91 
Q 1150 -91 751 415 
Q 353 922 353 1747 
Q 353 2572 751 3078 
Q 1150 3584 1784 3584 
Q 2172 3584 2448 3432 
Q 2725 3281 2906 2969 
z
M 947 1747 
Q 947 1113 1208 752 
Q 1469 391 1925 391 
Q 2381 391 2643 752 
Q 2906 1113 2906 1747 
Q 2906 2381 2643 2742 
Q 2381 3103 1925 3103 
Q 1469 3103 1208 2742 
Q 947 2381 947 1747 
z
" id="DejaVuSans-64" transform="scale(0.015625)"/>
      </defs>
      <use xlink:href="#DejaVuSans-41"/>
      <use x="68.408203" xlink:href="#DejaVuSans-73"/>
      <use x="120.507812" xlink:href="#DejaVuSans-67"/>
      <use x="183.984375" xlink:href="#DejaVuSans-61"/>
      <use x="245.263672" xlink:href="#DejaVuSans-72"/>
      <use x="284.626953" xlink:href="#DejaVuSans-64"/>
      <use x="348.103516" xlink:href="#DejaVuSans-61"/>
      <use x="409.382812" xlink:href="#DejaVuSans-72"/>
      <use x="448.246094" xlink:href="#DejaVuSans-63"/>
      <use x="503.226562" xlink:href="#DejaVuSans-68"/>
      <use x="566.605469" xlink:href="#DejaVuSans-61"/>
      <use x="627.884766" xlink:href="#DejaVuSans-65"/>
      <use x="689.408203" xlink:href="#DejaVuSans-6f"/>
      <use x="750.589844" xlink:href="#DejaVuSans-74"/>
      <use x="789.798828" xlink:href="#DejaVuSans-61"/>
     </g>
    </g>
    <g id="line2d_7"/>
    <g id="line2d_8">
     <defs>
      <path d="M 0 3 
C 0.795609 3 1.55874 2.683901 2.12132 2.12132 
C 2.683901 1.55874 3 0.795609 3 0 
C 3 -0.795609 2.683901 -1.55874 2.12132 -2.12132 
C 1.55874 -2.683901 0.795609 -3 0 -3 
C -0.795609 -3 -1.55874 -2.683901 -2.12132 -2.12132 
C -2.683901 -1.55874 -3 -0.795609 -3 0 
C -3 0.795609 -2.683901 1.55874 -2.12132 2.12132 
C -1.55874 2.683901 -0.795609 3 0 3 
z
" id="m256da04024" style="stroke:#2ca02c;"/>
     </defs>
     <g>
      <use style="fill:#2ca02c;stroke:#2ca02c;" x="381.425391" xlink:href="#m256da04024" y="59.332812"/>
     </g>
    </g>
    <g id="text_4">
     <!-- Crenarchaeota -->
     <g transform="translate(399.425391 62.832812)scale(0.1 -0.1)">
      <defs>
       <path d="M 4122 4306 
L 4122 3641 
Q 3803 3938 3442 4084 
Q 3081 4231 2675 4231 
Q 1875 4231 1450 3742 
Q 1025 3253 1025 2328 
Q 1025 1406 1450 917 
Q 1875 428 2675 428 
Q 3081 428 3442 575 
Q 3803 722 4122 1019 
L 4122 359 
Q 3791 134 3420 21 
Q 3050 -91 2638 -91 
Q 1578 -91 968 557 
Q 359 1206 359 2328 
Q 359 3453 968 4101 
Q 1578 4750 2638 4750 
Q 3056 4750 3426 4639 
Q 3797 4528 4122 4306 
z
" id="DejaVuSans-43" transform="scale(0.015625)"/>
      </defs>
      <use xlink:href="#DejaVuSans-43"/>
      <use x="69.824219" xlink:href="#DejaVuSans-72"/>
      <use x="108.6875" xlink:href="#DejaVuSans-65"/>
      <use x="170.210938" xlink:href="#DejaVuSans-6e"/>
      <use x="233.589844" xlink:href="#DejaVuSans-61"/>
      <use x="294.869141" xlink:href="#DejaVuSans-72"/>
      <use x="333.732422" xlink:href="#DejaVuSans-63"/>
      <use x="388.712891" xlink:href="#DejaVuSans-68"/>
      <use x="452.091797" xlink:href="#DejaVuSans-61"/>
      <use x="513.371094" xlink:href="#DejaVuSans-65"/>
      <use x="574.894531" xlink:href="#DejaVuSans-6f"/>
      <use x="636.076172" xlink:href="#DejaVuSans-74"/>
      <use x="675.285156" xlink:href="#DejaVuSans-61"/>
     </g>
    </g>
    <g id="line2d_9"/>
    <g id="line2d_10">
     <defs>
      <path d="M 0 3 
C 0.795609 3 1.55874 2.683901 2.12132 2.12132 
C 2.683901 1.55874 3 0.795609 3 0 
C 3 -0.795609 2.683901 -1.55874 2.12132 -2.12132 
C 1.55874 -2.683901 0.795609 -3 0 -3 
C -0.795609 -3 -1.55874 -2.683901 -2.12132 -2.12132 
C -2.683901 -1.55874 -3 -0.795609 -3 0 
C -3 0.795609 -2.683901 1.55874 -2.12132 2.12132 
C -1.55874 2.683901 -0.795609 3 0 3 
z
" id="m89dcd215e1" style="stroke:#98df8a;"/>
     </defs>
     <g>
      <use style="fill:#98df8a;stroke:#98df8a;" x="381.425391" xlink:href="#m89dcd215e1" y="74.010938"/>
     </g>
    </g>
    <g id="text_5">
     <!-- Euryarchaeota -->
     <g transform="translate(399.425391 77.510938)scale(0.1 -0.1)">
      <defs>
       <path d="M 628 4666 
L 3578 4666 
L 3578 4134 
L 1259 4134 
L 1259 2753 
L 3481 2753 
L 3481 2222 
L 1259 2222 
L 1259 531 
L 3634 531 
L 3634 0 
L 628 0 
L 628 4666 
z
" id="DejaVuSans-45" transform="scale(0.015625)"/>
       <path d="M 544 1381 
L 544 3500 
L 1119 3500 
L 1119 1403 
Q 1119 906 1312 657 
Q 1506 409 1894 409 
Q 2359 409 2629 706 
Q 2900 1003 2900 1516 
L 2900 3500 
L 3475 3500 
L 3475 0 
L 2900 0 
L 2900 538 
Q 2691 219 2414 64 
Q 2138 -91 1772 -91 
Q 1169 -91 856 284 
Q 544 659 544 1381 
z
M 1991 3584 
L 1991 3584 
z
" id="DejaVuSans-75" transform="scale(0.015625)"/>
       <path d="M 2059 -325 
Q 1816 -950 1584 -1140 
Q 1353 -1331 966 -1331 
L 506 -1331 
L 506 -850 
L 844 -850 
Q 1081 -850 1212 -737 
Q 1344 -625 1503 -206 
L 1606 56 
L 191 3500 
L 800 3500 
L 1894 763 
L 2988 3500 
L 3597 3500 
L 2059 -325 
z
" id="DejaVuSans-79" transform="scale(0.015625)"/>
      </defs>
      <use xlink:href="#DejaVuSans-45"/>
      <use x="63.183594" xlink:href="#DejaVuSans-75"/>
      <use x="126.5625" xlink:href="#DejaVuSans-72"/>
      <use x="167.675781" xlink:href="#DejaVuSans-79"/>
      <use x="226.855469" xlink:href="#DejaVuSans-61"/>
      <use x="288.134766" xlink:href="#DejaVuSans-72"/>
      <use x="326.998047" xlink:href="#DejaVuSans-63"/>
      <use x="381.978516" xlink:href="#DejaVuSans-68"/>
      <use x="445.357422" xlink:href="#DejaVuSans-61"/>
      <use x="506.636719" xlink:href="#DejaVuSans-65"/>
      <use x="568.160156" xlink:href="#DejaVuSans-6f"/>
      <use x="629.341797" xlink:href="#DejaVuSans-74"/>
      <use x="668.550781" xlink:href="#DejaVuSans-61"/>
     </g>
    </g>
    <g id="line2d_11"/>
    <g id="line2d_12">
     <defs>
      <path d="M 0 3 
C 0.795609 3 1.55874 2.683901 2.12132 2.12132 
C 2.683901 1.55874 3 0.795609 3 0 
C 3 -0.795609 2.683901 -1.55874 2.12132 -2.12132 
C 1.55874 -2.683901 0.795609 -3 0 -3 
C -0.795609 -3 -1.55874 -2.683901 -2.12132 -2.12132 
C -2.683901 -1.55874 -3 -0.795609 -3 0 
C -3 0.795609 -2.683901 1.55874 -2.12132 2.12132 
C -1.55874 2.683901 -0.795609 3 0 3 
z
" id="m5540995c91" style="stroke:#ff9896;"/>
     </defs>
     <g>
      <use style="fill:#ff9896;stroke:#ff9896;" x="381.425391" xlink:href="#m5540995c91" y="88.689062"/>
     </g>
    </g>
    <g id="text_6">
     <!-- Hadarchaeota -->
     <g transform="translate(399.425391 92.189062)scale(0.1 -0.1)">
      <defs>
       <path d="M 628 4666 
L 1259 4666 
L 1259 2753 
L 3553 2753 
L 3553 4666 
L 4184 4666 
L 4184 0 
L 3553 0 
L 3553 2222 
L 1259 2222 
L 1259 0 
L 628 0 
L 628 4666 
z
" id="DejaVuSans-48" transform="scale(0.015625)"/>
      </defs>
      <use xlink:href="#DejaVuSans-48"/>
      <use x="75.195312" xlink:href="#DejaVuSans-61"/>
      <use x="136.474609" xlink:href="#DejaVuSans-64"/>
      <use x="199.951172" xlink:href="#DejaVuSans-61"/>
      <use x="261.230469" xlink:href="#DejaVuSans-72"/>
      <use x="300.09375" xlink:href="#DejaVuSans-63"/>
      <use x="355.074219" xlink:href="#DejaVuSans-68"/>
      <use x="418.453125" xlink:href="#DejaVuSans-61"/>
      <use x="479.732422" xlink:href="#DejaVuSans-65"/>
      <use x="541.255859" xlink:href="#DejaVuSans-6f"/>
      <use x="602.4375" xlink:href="#DejaVuSans-74"/>
      <use x="641.646484" xlink:href="#DejaVuSans-61"/>
     </g>
    </g>
    <g id="line2d_13"/>
    <g id="line2d_14">
     <defs>
      <path d="M 0 3 
C 0.795609 3 1.55874 2.683901 2.12132 2.12132 
C 2.683901 1.55874 3 0.795609 3 0 
C 3 -0.795609 2.683901 -1.55874 2.12132 -2.12132 
C 1.55874 -2.683901 0.795609 -3 0 -3 
C -0.795609 -3 -1.55874 -2.683901 -2.12132 -2.12132 
C -2.683901 -1.55874 -3 -0.795609 -3 0 
C -3 0.795609 -2.683901 1.55874 -2.12132 2.12132 
C -1.55874 2.683901 -0.795609 3 0 3 
z
" id="m2ad57b5530" style="stroke:#9467bd;"/>
     </defs>
     <g>
      <use style="fill:#9467bd;stroke:#9467bd;" x="381.425391" xlink:href="#m2ad57b5530" y="103.367188"/>
     </g>
    </g>
    <g id="text_7">
     <!-- Halobacterota -->
     <g transform="translate(399.425391 106.867188)scale(0.1 -0.1)">
      <defs>
       <path d="M 3116 1747 
Q 3116 2381 2855 2742 
Q 2594 3103 2138 3103 
Q 1681 3103 1420 2742 
Q 1159 2381 1159 1747 
Q 1159 1113 1420 752 
Q 1681 391 2138 391 
Q 2594 391 2855 752 
Q 3116 1113 3116 1747 
z
M 1159 2969 
Q 1341 3281 1617 3432 
Q 1894 3584 2278 3584 
Q 2916 3584 3314 3078 
Q 3713 2572 3713 1747 
Q 3713 922 3314 415 
Q 2916 -91 2278 -91 
Q 1894 -91 1617 61 
Q 1341 213 1159 525 
L 1159 0 
L 581 0 
L 581 4863 
L 1159 4863 
L 1159 2969 
z
" id="DejaVuSans-62" transform="scale(0.015625)"/>
      </defs>
      <use xlink:href="#DejaVuSans-48"/>
      <use x="75.195312" xlink:href="#DejaVuSans-61"/>
      <use x="136.474609" xlink:href="#DejaVuSans-6c"/>
      <use x="164.257812" xlink:href="#DejaVuSans-6f"/>
      <use x="225.439453" xlink:href="#DejaVuSans-62"/>
      <use x="288.916016" xlink:href="#DejaVuSans-61"/>
      <use x="350.195312" xlink:href="#DejaVuSans-63"/>
      <use x="405.175781" xlink:href="#DejaVuSans-74"/>
      <use x="444.384766" xlink:href="#DejaVuSans-65"/>
      <use x="505.908203" xlink:href="#DejaVuSans-72"/>
      <use x="544.771484" xlink:href="#DejaVuSans-6f"/>
      <use x="605.953125" xlink:href="#DejaVuSans-74"/>
      <use x="645.162109" xlink:href="#DejaVuSans-61"/>
     </g>
    </g>
    <g id="line2d_15"/>
    <g id="line2d_16">
     <defs>
      <path d="M 0 3 
C 0.795609 3 1.55874 2.683901 2.12132 2.12132 
C 2.683901 1.55874 3 0.795609 3 0 
C 3 -0.795609 2.683901 -1.55874 2.12132 -2.12132 
C 1.55874 -2.683901 0.795609 -3 0 -3 
C -0.795609 -3 -1.55874 -2.683901 -2.12132 -2.12132 
C -2.683901 -1.55874 -3 -0.795609 -3 0 
C -3 0.795609 -2.683901 1.55874 -2.12132 2.12132 
C -1.55874 2.683901 -0.795609 3 0 3 
z
" id="m9faa6fe788" style="stroke:#8c564b;"/>
     </defs>
     <g>
      <use style="fill:#8c564b;stroke:#8c564b;" x="381.425391" xlink:href="#m9faa6fe788" y="118.045312"/>
     </g>
    </g>
    <g id="text_8">
     <!-- Iainarchaeota -->
     <g transform="translate(399.425391 121.545312)scale(0.1 -0.1)">
      <defs>
       <path d="M 628 4666 
L 1259 4666 
L 1259 0 
L 628 0 
L 628 4666 
z
" id="DejaVuSans-49" transform="scale(0.015625)"/>
      </defs>
      <use xlink:href="#DejaVuSans-49"/>
      <use x="29.492188" xlink:href="#DejaVuSans-61"/>
      <use x="90.771484" xlink:href="#DejaVuSans-69"/>
      <use x="118.554688" xlink:href="#DejaVuSans-6e"/>
      <use x="181.933594" xlink:href="#DejaVuSans-61"/>
      <use x="243.212891" xlink:href="#DejaVuSans-72"/>
      <use x="282.076172" xlink:href="#DejaVuSans-63"/>
      <use x="337.056641" xlink:href="#DejaVuSans-68"/>
      <use x="400.435547" xlink:href="#DejaVuSans-61"/>
      <use x="461.714844" xlink:href="#DejaVuSans-65"/>
      <use x="523.238281" xlink:href="#DejaVuSans-6f"/>
      <use x="584.419922" xlink:href="#DejaVuSans-74"/>
      <use x="623.628906" xlink:href="#DejaVuSans-61"/>
     </g>
    </g>
    <g id="line2d_17"/>
    <g id="line2d_18">
     <defs>
      <path d="M 0 3 
C 0.795609 3 1.55874 2.683901 2.12132 2.12132 
C 2.683901 1.55874 3 0.795609 3 0 
C 3 -0.795609 2.683901 -1.55874 2.12132 -2.12132 
C 1.55874 -2.683901 0.795609 -3 0 -3 
C -0.795609 -3 -1.55874 -2.683901 -2.12132 -2.12132 
C -2.683901 -1.55874 -3 -0.795609 -3 0 
C -3 0.795609 -2.683901 1.55874 -2.12132 2.12132 
C -1.55874 2.683901 -0.795609 3 0 3 
z
" id="m167a928957" style="stroke:#c49c94;"/>
     </defs>
     <g>
      <use style="fill:#c49c94;stroke:#c49c94;" x="381.425391" xlink:href="#m167a928957" y="132.723437"/>
     </g>
    </g>
    <g id="text_9">
     <!-- Korarchaeota -->
     <g transform="translate(399.425391 136.223437)scale(0.1 -0.1)">
      <defs>
       <path d="M 628 4666 
L 1259 4666 
L 1259 2694 
L 3353 4666 
L 4166 4666 
L 1850 2491 
L 4331 0 
L 3500 0 
L 1259 2247 
L 1259 0 
L 628 0 
L 628 4666 
z
" id="DejaVuSans-4b" transform="scale(0.015625)"/>
      </defs>
      <use xlink:href="#DejaVuSans-4b"/>
      <use x="60.576172" xlink:href="#DejaVuSans-6f"/>
      <use x="121.757812" xlink:href="#DejaVuSans-72"/>
      <use x="162.871094" xlink:href="#DejaVuSans-61"/>
      <use x="224.150391" xlink:href="#DejaVuSans-72"/>
      <use x="263.013672" xlink:href="#DejaVuSans-63"/>
      <use x="317.994141" xlink:href="#DejaVuSans-68"/>
      <use x="381.373047" xlink:href="#DejaVuSans-61"/>
      <use x="442.652344" xlink:href="#DejaVuSans-65"/>
      <use x="504.175781" xlink:href="#DejaVuSans-6f"/>
      <use x="565.357422" xlink:href="#DejaVuSans-74"/>
      <use x="604.566406" xlink:href="#DejaVuSans-61"/>
     </g>
    </g>
    <g id="line2d_19"/>
    <g id="line2d_20">
     <defs>
      <path d="M 0 3 
C 0.795609 3 1.55874 2.683901 2.12132 2.12132 
C 2.683901 1.55874 3 0.795609 3 0 
C 3 -0.795609 2.683901 -1.55874 2.12132 -2.12132 
C 1.55874 -2.683901 0.795609 -3 0 -3 
C -0.795609 -3 -1.55874 -2.683901 -2.12132 -2.12132 
C -2.683901 -1.55874 -3 -0.795609 -3 0 
C -3 0.795609 -2.683901 1.55874 -2.12132 2.12132 
C -1.55874 2.683901 -0.795609 3 0 3 
z
" id="m55bf817ac3" style="stroke:#e377c2;"/>
     </defs>
     <g>
      <use style="fill:#e377c2;stroke:#e377c2;" x="381.425391" xlink:href="#m55bf817ac3" y="147.401562"/>
     </g>
    </g>
    <g id="text_10">
     <!-- Methanonatronarchaeia -->
     <g transform="translate(399.425391 150.901562)scale(0.1 -0.1)">
      <defs>
       <path d="M 628 4666 
L 1569 4666 
L 2759 1491 
L 3956 4666 
L 4897 4666 
L 4897 0 
L 4281 0 
L 4281 4097 
L 3078 897 
L 2444 897 
L 1241 4097 
L 1241 0 
L 628 0 
L 628 4666 
z
" id="DejaVuSans-4d" transform="scale(0.015625)"/>
      </defs>
      <use xlink:href="#DejaVuSans-4d"/>
      <use x="86.279297" xlink:href="#DejaVuSans-65"/>
      <use x="147.802734" xlink:href="#DejaVuSans-74"/>
      <use x="187.011719" xlink:href="#DejaVuSans-68"/>
      <use x="250.390625" xlink:href="#DejaVuSans-61"/>
      <use x="311.669922" xlink:href="#DejaVuSans-6e"/>
      <use x="375.048828" xlink:href="#DejaVuSans-6f"/>
      <use x="436.230469" xlink:href="#DejaVuSans-6e"/>
      <use x="499.609375" xlink:href="#DejaVuSans-61"/>
      <use x="560.888672" xlink:href="#DejaVuSans-74"/>
      <use x="600.097656" xlink:href="#DejaVuSans-72"/>
      <use x="638.960938" xlink:href="#DejaVuSans-6f"/>
      <use x="700.142578" xlink:href="#DejaVuSans-6e"/>
      <use x="763.521484" xlink:href="#DejaVuSans-61"/>
      <use x="824.800781" xlink:href="#DejaVuSans-72"/>
      <use x="863.664062" xlink:href="#DejaVuSans-63"/>
      <use x="918.644531" xlink:href="#DejaVuSans-68"/>
      <use x="982.023438" xlink:href="#DejaVuSans-61"/>
      <use x="1043.302734" xlink:href="#DejaVuSans-65"/>
      <use x="1104.826172" xlink:href="#DejaVuSans-69"/>
      <use x="1132.609375" xlink:href="#DejaVuSans-61"/>
     </g>
    </g>
    <g id="line2d_21"/>
    <g id="line2d_22">
     <defs>
      <path d="M 0 3 
C 0.795609 3 1.55874 2.683901 2.12132 2.12132 
C 2.683901 1.55874 3 0.795609 3 0 
C 3 -0.795609 2.683901 -1.55874 2.12132 -2.12132 
C 1.55874 -2.683901 0.795609 -3 0 -3 
C -0.795609 -3 -1.55874 -2.683901 -2.12132 -2.12132 
C -2.683901 -1.55874 -3 -0.795609 -3 0 
C -3 0.795609 -2.683901 1.55874 -2.12132 2.12132 
C -1.55874 2.683901 -0.795609 3 0 3 
z
" id="mc3134904e6" style="stroke:#7f7f7f;"/>
     </defs>
     <g>
      <use style="fill:#7f7f7f;stroke:#7f7f7f;" x="381.425391" xlink:href="#mc3134904e6" y="162.079687"/>
     </g>
    </g>
    <g id="text_11">
     <!-- Micrarchaeota -->
     <g transform="translate(399.425391 165.579687)scale(0.1 -0.1)">
      <use xlink:href="#DejaVuSans-4d"/>
      <use x="86.279297" xlink:href="#DejaVuSans-69"/>
      <use x="114.0625" xlink:href="#DejaVuSans-63"/>
      <use x="169.042969" xlink:href="#DejaVuSans-72"/>
      <use x="210.15625" xlink:href="#DejaVuSans-61"/>
      <use x="271.435547" xlink:href="#DejaVuSans-72"/>
      <use x="310.298828" xlink:href="#DejaVuSans-63"/>
      <use x="365.279297" xlink:href="#DejaVuSans-68"/>
      <use x="428.658203" xlink:href="#DejaVuSans-61"/>
      <use x="489.9375" xlink:href="#DejaVuSans-65"/>
      <use x="551.460938" xlink:href="#DejaVuSans-6f"/>
      <use x="612.642578" xlink:href="#DejaVuSans-74"/>
      <use x="651.851562" xlink:href="#DejaVuSans-61"/>
     </g>
    </g>
    <g id="line2d_23"/>
    <g id="line2d_24">
     <defs>
      <path d="M 0 3 
C 0.795609 3 1.55874 2.683901 2.12132 2.12132 
C 2.683901 1.55874 3 0.795609 3 0 
C 3 -0.795609 2.683901 -1.55874 2.12132 -2.12132 
C 1.55874 -2.683901 0.795609 -3 0 -3 
C -0.795609 -3 -1.55874 -2.683901 -2.12132 -2.12132 
C -2.683901 -1.55874 -3 -0.795609 -3 0 
C -3 0.795609 -2.683901 1.55874 -2.12132 2.12132 
C -1.55874 2.683901 -0.795609 3 0 3 
z
" id="maf0548020b" style="stroke:#c7c7c7;"/>
     </defs>
     <g>
      <use style="fill:#c7c7c7;stroke:#c7c7c7;" x="381.425391" xlink:href="#maf0548020b" y="176.757812"/>
     </g>
    </g>
    <g id="text_12">
     <!-- Nanoarchaeota -->
     <g transform="translate(399.425391 180.257812)scale(0.1 -0.1)">
      <defs>
       <path d="M 628 4666 
L 1478 4666 
L 3547 763 
L 3547 4666 
L 4159 4666 
L 4159 0 
L 3309 0 
L 1241 3903 
L 1241 0 
L 628 0 
L 628 4666 
z
" id="DejaVuSans-4e" transform="scale(0.015625)"/>
      </defs>
      <use xlink:href="#DejaVuSans-4e"/>
      <use x="74.804688" xlink:href="#DejaVuSans-61"/>
      <use x="136.083984" xlink:href="#DejaVuSans-6e"/>
      <use x="199.462891" xlink:href="#DejaVuSans-6f"/>
      <use x="260.644531" xlink:href="#DejaVuSans-61"/>
      <use x="321.923828" xlink:href="#DejaVuSans-72"/>
      <use x="360.787109" xlink:href="#DejaVuSans-63"/>
      <use x="415.767578" xlink:href="#DejaVuSans-68"/>
      <use x="479.146484" xlink:href="#DejaVuSans-61"/>
      <use x="540.425781" xlink:href="#DejaVuSans-65"/>
      <use x="601.949219" xlink:href="#DejaVuSans-6f"/>
      <use x="663.130859" xlink:href="#DejaVuSans-74"/>
      <use x="702.339844" xlink:href="#DejaVuSans-61"/>
     </g>
    </g>
    <g id="line2d_25"/>
    <g id="line2d_26">
     <defs>
      <path d="M 0 3 
C 0.795609 3 1.55874 2.683901 2.12132 2.12132 
C 2.683901 1.55874 3 0.795609 3 0 
C 3 -0.795609 2.683901 -1.55874 2.12132 -2.12132 
C 1.55874 -2.683901 0.795609 -3 0 -3 
C -0.795609 -3 -1.55874 -2.683901 -2.12132 -2.12132 
C -2.683901 -1.55874 -3 -0.795609 -3 0 
C -3 0.795609 -2.683901 1.55874 -2.12132 2.12132 
C -1.55874 2.683901 -0.795609 3 0 3 
z
" id="mbdba2346eb" style="stroke:#dbdb8d;"/>
     </defs>
     <g>
      <use style="fill:#dbdb8d;stroke:#dbdb8d;" x="381.425391" xlink:href="#mbdba2346eb" y="191.435937"/>
     </g>
    </g>
    <g id="text_13">
     <!-- Nanohaloarchaeota -->
     <g transform="translate(399.425391 194.935937)scale(0.1 -0.1)">
      <use xlink:href="#DejaVuSans-4e"/>
      <use x="74.804688" xlink:href="#DejaVuSans-61"/>
      <use x="136.083984" xlink:href="#DejaVuSans-6e"/>
      <use x="199.462891" xlink:href="#DejaVuSans-6f"/>
      <use x="260.644531" xlink:href="#DejaVuSans-68"/>
      <use x="324.023438" xlink:href="#DejaVuSans-61"/>
      <use x="385.302734" xlink:href="#DejaVuSans-6c"/>
      <use x="413.085938" xlink:href="#DejaVuSans-6f"/>
      <use x="474.267578" xlink:href="#DejaVuSans-61"/>
      <use x="535.546875" xlink:href="#DejaVuSans-72"/>
      <use x="574.410156" xlink:href="#DejaVuSans-63"/>
      <use x="629.390625" xlink:href="#DejaVuSans-68"/>
      <use x="692.769531" xlink:href="#DejaVuSans-61"/>
      <use x="754.048828" xlink:href="#DejaVuSans-65"/>
      <use x="815.572266" xlink:href="#DejaVuSans-6f"/>
      <use x="876.753906" xlink:href="#DejaVuSans-74"/>
      <use x="915.962891" xlink:href="#DejaVuSans-61"/>
     </g>
    </g>
    <g id="line2d_27"/>
    <g id="line2d_28">
     <defs>
      <path d="M 0 3 
C 0.795609 3 1.55874 2.683901 2.12132 2.12132 
C 2.683901 1.55874 3 0.795609 3 0 
C 3 -0.795609 2.683901 -1.55874 2.12132 -2.12132 
C 1.55874 -2.683901 0.795609 -3 0 -3 
C -0.795609 -3 -1.55874 -2.683901 -2.12132 -2.12132 
C -2.683901 -1.55874 -3 -0.795609 -3 0 
C -3 0.795609 -2.683901 1.55874 -2.12132 2.12132 
C -1.55874 2.683901 -0.795609 3 0 3 
z
" id="mf136ad49b9" style="stroke:#17becf;"/>
     </defs>
     <g>
      <use style="fill:#17becf;stroke:#17becf;" x="381.425391" xlink:href="#mf136ad49b9" y="206.114062"/>
     </g>
    </g>
    <g id="text_14">
     <!-- Thermoplasmatota -->
     <g transform="translate(399.425391 209.614062)scale(0.1 -0.1)">
      <defs>
       <path d="M -19 4666 
L 3928 4666 
L 3928 4134 
L 2272 4134 
L 2272 0 
L 1638 0 
L 1638 4134 
L -19 4134 
L -19 4666 
z
" id="DejaVuSans-54" transform="scale(0.015625)"/>
       <path d="M 1159 525 
L 1159 -1331 
L 581 -1331 
L 581 3500 
L 1159 3500 
L 1159 2969 
Q 1341 3281 1617 3432 
Q 1894 3584 2278 3584 
Q 2916 3584 3314 3078 
Q 3713 2572 3713 1747 
Q 3713 922 3314 415 
Q 2916 -91 2278 -91 
Q 1894 -91 1617 61 
Q 1341 213 1159 525 
z
M 3116 1747 
Q 3116 2381 2855 2742 
Q 2594 3103 2138 3103 
Q 1681 3103 1420 2742 
Q 1159 2381 1159 1747 
Q 1159 1113 1420 752 
Q 1681 391 2138 391 
Q 2594 391 2855 752 
Q 3116 1113 3116 1747 
z
" id="DejaVuSans-70" transform="scale(0.015625)"/>
      </defs>
      <use xlink:href="#DejaVuSans-54"/>
      <use x="61.083984" xlink:href="#DejaVuSans-68"/>
      <use x="124.462891" xlink:href="#DejaVuSans-65"/>
      <use x="185.986328" xlink:href="#DejaVuSans-72"/>
      <use x="225.349609" xlink:href="#DejaVuSans-6d"/>
      <use x="322.761719" xlink:href="#DejaVuSans-6f"/>
      <use x="383.943359" xlink:href="#DejaVuSans-70"/>
      <use x="447.419922" xlink:href="#DejaVuSans-6c"/>
      <use x="475.203125" xlink:href="#DejaVuSans-61"/>
      <use x="536.482422" xlink:href="#DejaVuSans-73"/>
      <use x="588.582031" xlink:href="#DejaVuSans-6d"/>
      <use x="685.994141" xlink:href="#DejaVuSans-61"/>
      <use x="747.273438" xlink:href="#DejaVuSans-74"/>
      <use x="786.482422" xlink:href="#DejaVuSans-6f"/>
      <use x="847.664062" xlink:href="#DejaVuSans-74"/>
      <use x="886.873047" xlink:href="#DejaVuSans-61"/>
     </g>
    </g>
    <g id="line2d_29"/>
    <g id="line2d_30">
     <defs>
      <path d="M 0 3 
C 0.795609 3 1.55874 2.683901 2.12132 2.12132 
C 2.683901 1.55874 3 0.795609 3 0 
C 3 -0.795609 2.683901 -1.55874 2.12132 -2.12132 
C 1.55874 -2.683901 0.795609 -3 0 -3 
C -0.795609 -3 -1.55874 -2.683901 -2.12132 -2.12132 
C -2.683901 -1.55874 -3 -0.795609 -3 0 
C -3 0.795609 -2.683901 1.55874 -2.12132 2.12132 
C -1.55874 2.683901 -0.795609 3 0 3 
z
" id="meb8d92895c" style="stroke:#000000;"/>
     </defs>
     <g>
      <use style="stroke:#000000;" x="381.425391" xlink:href="#meb8d92895c" y="220.792187"/>
     </g>
    </g>
    <g id="text_15">
     <!-- archaeon -->
     <g transform="translate(399.425391 224.292187)scale(0.1 -0.1)">
      <use xlink:href="#DejaVuSans-61"/>
      <use x="61.279297" xlink:href="#DejaVuSans-72"/>
      <use x="100.142578" xlink:href="#DejaVuSans-63"/>
      <use x="155.123047" xlink:href="#DejaVuSans-68"/>
      <use x="218.501953" xlink:href="#DejaVuSans-61"/>
      <use x="279.78125" xlink:href="#DejaVuSans-65"/>
      <use x="341.304688" xlink:href="#DejaVuSans-6f"/>
      <use x="402.486328" xlink:href="#DejaVuSans-6e"/>
     </g>
    </g>
    <g id="line2d_31"/>
    <g id="line2d_32">
     <g>
      <use style="stroke:#000000;" x="381.425391" xlink:href="#meb8d92895c" y="235.470312"/>
     </g>
    </g>
    <g id="text_16">
     <!-- groundwater -->
     <g transform="translate(399.425391 238.970312)scale(0.1 -0.1)">
      <defs>
       <path d="M 269 3500 
L 844 3500 
L 1563 769 
L 2278 3500 
L 2956 3500 
L 3675 769 
L 4391 3500 
L 4966 3500 
L 4050 0 
L 3372 0 
L 2619 2869 
L 1863 0 
L 1184 0 
L 269 3500 
z
" id="DejaVuSans-77" transform="scale(0.015625)"/>
      </defs>
      <use xlink:href="#DejaVuSans-67"/>
      <use x="63.476562" xlink:href="#DejaVuSans-72"/>
      <use x="102.339844" xlink:href="#DejaVuSans-6f"/>
      <use x="163.521484" xlink:href="#DejaVuSans-75"/>
      <use x="226.900391" xlink:href="#DejaVuSans-6e"/>
      <use x="290.279297" xlink:href="#DejaVuSans-64"/>
      <use x="353.755859" xlink:href="#DejaVuSans-77"/>
      <use x="435.542969" xlink:href="#DejaVuSans-61"/>
      <use x="496.822266" xlink:href="#DejaVuSans-74"/>
      <use x="536.03125" xlink:href="#DejaVuSans-65"/>
      <use x="597.554688" xlink:href="#DejaVuSans-72"/>
     </g>
    </g>
    <g id="line2d_33"/>
    <g id="line2d_34">
     <g>
      <use style="stroke:#000000;" x="381.425391" xlink:href="#meb8d92895c" y="250.148437"/>
     </g>
    </g>
    <g id="text_17">
     <!-- hydrothermal -->
     <g transform="translate(399.425391 253.648437)scale(0.1 -0.1)">
      <use xlink:href="#DejaVuSans-68"/>
      <use x="63.378906" xlink:href="#DejaVuSans-79"/>
      <use x="122.558594" xlink:href="#DejaVuSans-64"/>
      <use x="186.035156" xlink:href="#DejaVuSans-72"/>
      <use x="224.898438" xlink:href="#DejaVuSans-6f"/>
      <use x="286.080078" xlink:href="#DejaVuSans-74"/>
      <use x="325.289062" xlink:href="#DejaVuSans-68"/>
      <use x="388.667969" xlink:href="#DejaVuSans-65"/>
      <use x="450.191406" xlink:href="#DejaVuSans-72"/>
      <use x="489.554688" xlink:href="#DejaVuSans-6d"/>
      <use x="586.966797" xlink:href="#DejaVuSans-61"/>
      <use x="648.246094" xlink:href="#DejaVuSans-6c"/>
     </g>
    </g>
    <g id="line2d_35"/>
    <g id="line2d_36">
     <g>
      <use style="stroke:#000000;" x="381.425391" xlink:href="#meb8d92895c" y="264.826562"/>
     </g>
    </g>
    <g id="text_18">
     <!-- marine -->
     <g transform="translate(399.425391 268.326562)scale(0.1 -0.1)">
      <use xlink:href="#DejaVuSans-6d"/>
      <use x="97.412109" xlink:href="#DejaVuSans-61"/>
      <use x="158.691406" xlink:href="#DejaVuSans-72"/>
      <use x="199.804688" xlink:href="#DejaVuSans-69"/>
      <use x="227.587891" xlink:href="#DejaVuSans-6e"/>
      <use x="290.966797" xlink:href="#DejaVuSans-65"/>
     </g>
    </g>
    <g id="line2d_37"/>
    <g id="line2d_38">
     <g>
      <use style="stroke:#000000;" x="381.425391" xlink:href="#meb8d92895c" y="279.504687"/>
     </g>
    </g>
    <g id="text_19">
     <!-- sediment -->
     <g transform="translate(399.425391 283.004687)scale(0.1 -0.1)">
      <use xlink:href="#DejaVuSans-73"/>
      <use x="52.099609" xlink:href="#DejaVuSans-65"/>
      <use x="113.623047" xlink:href="#DejaVuSans-64"/>
      <use x="177.099609" xlink:href="#DejaVuSans-69"/>
      <use x="204.882812" xlink:href="#DejaVuSans-6d"/>
      <use x="302.294922" xlink:href="#DejaVuSans-65"/>
      <use x="363.818359" xlink:href="#DejaVuSans-6e"/>
      <use x="427.197266" xlink:href="#DejaVuSans-74"/>
     </g>
    </g>
    <g id="line2d_39"/>
    <g id="line2d_40">
     <g>
      <use style="stroke:#000000;" x="381.425391" xlink:href="#meb8d92895c" y="294.182812"/>
     </g>
    </g>
    <g id="text_20">
     <!-- uncultured -->
     <g transform="translate(399.425391 297.682812)scale(0.1 -0.1)">
      <use xlink:href="#DejaVuSans-75"/>
      <use x="63.378906" xlink:href="#DejaVuSans-6e"/>
      <use x="126.757812" xlink:href="#DejaVuSans-63"/>
      <use x="181.738281" xlink:href="#DejaVuSans-75"/>
      <use x="245.117188" xlink:href="#DejaVuSans-6c"/>
      <use x="272.900391" xlink:href="#DejaVuSans-74"/>
      <use x="312.109375" xlink:href="#DejaVuSans-75"/>
      <use x="375.488281" xlink:href="#DejaVuSans-72"/>
      <use x="414.351562" xlink:href="#DejaVuSans-65"/>
      <use x="475.875" xlink:href="#DejaVuSans-64"/>
     </g>
    </g>
    <g id="line2d_41"/>
    <g id="line2d_42">
     <g>
      <use style="stroke:#000000;" x="381.425391" xlink:href="#meb8d92895c" y="308.860937"/>
     </g>
    </g>
    <g id="text_21">
     <!-- Candidatus -->
     <g transform="translate(399.425391 312.360937)scale(0.1 -0.1)">
      <use xlink:href="#DejaVuSans-43"/>
      <use x="69.824219" xlink:href="#DejaVuSans-61"/>
      <use x="131.103516" xlink:href="#DejaVuSans-6e"/>
      <use x="194.482422" xlink:href="#DejaVuSans-64"/>
      <use x="257.958984" xlink:href="#DejaVuSans-69"/>
      <use x="285.742188" xlink:href="#DejaVuSans-64"/>
      <use x="349.21875" xlink:href="#DejaVuSans-61"/>
      <use x="410.498047" xlink:href="#DejaVuSans-74"/>
      <use x="449.707031" xlink:href="#DejaVuSans-75"/>
      <use x="513.085938" xlink:href="#DejaVuSans-73"/>
     </g>
    </g>
    <g id="line2d_43"/>
    <g id="line2d_44">
     <g>
      <use style="stroke:#000000;" x="381.425391" xlink:href="#meb8d92895c" y="323.539062"/>
     </g>
    </g>
    <g id="text_22">
     <!-- 1286008:1289191 -->
     <g transform="translate(399.425391 327.039062)scale(0.1 -0.1)">
      <defs>
       <path d="M 794 531 
L 1825 531 
L 1825 4091 
L 703 3866 
L 703 4441 
L 1819 4666 
L 2450 4666 
L 2450 531 
L 3481 531 
L 3481 0 
L 794 0 
L 794 531 
z
" id="DejaVuSans-31" transform="scale(0.015625)"/>
       <path d="M 1228 531 
L 3431 531 
L 3431 0 
L 469 0 
L 469 531 
Q 828 903 1448 1529 
Q 2069 2156 2228 2338 
Q 2531 2678 2651 2914 
Q 2772 3150 2772 3378 
Q 2772 3750 2511 3984 
Q 2250 4219 1831 4219 
Q 1534 4219 1204 4116 
Q 875 4013 500 3803 
L 500 4441 
Q 881 4594 1212 4672 
Q 1544 4750 1819 4750 
Q 2544 4750 2975 4387 
Q 3406 4025 3406 3419 
Q 3406 3131 3298 2873 
Q 3191 2616 2906 2266 
Q 2828 2175 2409 1742 
Q 1991 1309 1228 531 
z
" id="DejaVuSans-32" transform="scale(0.015625)"/>
       <path d="M 2034 2216 
Q 1584 2216 1326 1975 
Q 1069 1734 1069 1313 
Q 1069 891 1326 650 
Q 1584 409 2034 409 
Q 2484 409 2743 651 
Q 3003 894 3003 1313 
Q 3003 1734 2745 1975 
Q 2488 2216 2034 2216 
z
M 1403 2484 
Q 997 2584 770 2862 
Q 544 3141 544 3541 
Q 544 4100 942 4425 
Q 1341 4750 2034 4750 
Q 2731 4750 3128 4425 
Q 3525 4100 3525 3541 
Q 3525 3141 3298 2862 
Q 3072 2584 2669 2484 
Q 3125 2378 3379 2068 
Q 3634 1759 3634 1313 
Q 3634 634 3220 271 
Q 2806 -91 2034 -91 
Q 1263 -91 848 271 
Q 434 634 434 1313 
Q 434 1759 690 2068 
Q 947 2378 1403 2484 
z
M 1172 3481 
Q 1172 3119 1398 2916 
Q 1625 2713 2034 2713 
Q 2441 2713 2670 2916 
Q 2900 3119 2900 3481 
Q 2900 3844 2670 4047 
Q 2441 4250 2034 4250 
Q 1625 4250 1398 4047 
Q 1172 3844 1172 3481 
z
" id="DejaVuSans-38" transform="scale(0.015625)"/>
       <path d="M 2113 2584 
Q 1688 2584 1439 2293 
Q 1191 2003 1191 1497 
Q 1191 994 1439 701 
Q 1688 409 2113 409 
Q 2538 409 2786 701 
Q 3034 994 3034 1497 
Q 3034 2003 2786 2293 
Q 2538 2584 2113 2584 
z
M 3366 4563 
L 3366 3988 
Q 3128 4100 2886 4159 
Q 2644 4219 2406 4219 
Q 1781 4219 1451 3797 
Q 1122 3375 1075 2522 
Q 1259 2794 1537 2939 
Q 1816 3084 2150 3084 
Q 2853 3084 3261 2657 
Q 3669 2231 3669 1497 
Q 3669 778 3244 343 
Q 2819 -91 2113 -91 
Q 1303 -91 875 529 
Q 447 1150 447 2328 
Q 447 3434 972 4092 
Q 1497 4750 2381 4750 
Q 2619 4750 2861 4703 
Q 3103 4656 3366 4563 
z
" id="DejaVuSans-36" transform="scale(0.015625)"/>
       <path d="M 2034 4250 
Q 1547 4250 1301 3770 
Q 1056 3291 1056 2328 
Q 1056 1369 1301 889 
Q 1547 409 2034 409 
Q 2525 409 2770 889 
Q 3016 1369 3016 2328 
Q 3016 3291 2770 3770 
Q 2525 4250 2034 4250 
z
M 2034 4750 
Q 2819 4750 3233 4129 
Q 3647 3509 3647 2328 
Q 3647 1150 3233 529 
Q 2819 -91 2034 -91 
Q 1250 -91 836 529 
Q 422 1150 422 2328 
Q 422 3509 836 4129 
Q 1250 4750 2034 4750 
z
" id="DejaVuSans-30" transform="scale(0.015625)"/>
       <path d="M 750 794 
L 1409 794 
L 1409 0 
L 750 0 
L 750 794 
z
M 750 3309 
L 1409 3309 
L 1409 2516 
L 750 2516 
L 750 3309 
z
" id="DejaVuSans-3a" transform="scale(0.015625)"/>
       <path d="M 703 97 
L 703 672 
Q 941 559 1184 500 
Q 1428 441 1663 441 
Q 2288 441 2617 861 
Q 2947 1281 2994 2138 
Q 2813 1869 2534 1725 
Q 2256 1581 1919 1581 
Q 1219 1581 811 2004 
Q 403 2428 403 3163 
Q 403 3881 828 4315 
Q 1253 4750 1959 4750 
Q 2769 4750 3195 4129 
Q 3622 3509 3622 2328 
Q 3622 1225 3098 567 
Q 2575 -91 1691 -91 
Q 1453 -91 1209 -44 
Q 966 3 703 97 
z
M 1959 2075 
Q 2384 2075 2632 2365 
Q 2881 2656 2881 3163 
Q 2881 3666 2632 3958 
Q 2384 4250 1959 4250 
Q 1534 4250 1286 3958 
Q 1038 3666 1038 3163 
Q 1038 2656 1286 2365 
Q 1534 2075 1959 2075 
z
" id="DejaVuSans-39" transform="scale(0.015625)"/>
      </defs>
      <use xlink:href="#DejaVuSans-31"/>
      <use x="63.623047" xlink:href="#DejaVuSans-32"/>
      <use x="127.246094" xlink:href="#DejaVuSans-38"/>
      <use x="190.869141" xlink:href="#DejaVuSans-36"/>
      <use x="254.492188" xlink:href="#DejaVuSans-30"/>
      <use x="318.115234" xlink:href="#DejaVuSans-30"/>
      <use x="381.738281" xlink:href="#DejaVuSans-38"/>
      <use x="445.361328" xlink:href="#DejaVuSans-3a"/>
      <use x="479.052734" xlink:href="#DejaVuSans-31"/>
      <use x="542.675781" xlink:href="#DejaVuSans-32"/>
      <use x="606.298828" xlink:href="#DejaVuSans-38"/>
      <use x="669.921875" xlink:href="#DejaVuSans-39"/>
      <use x="733.544922" xlink:href="#DejaVuSans-31"/>
      <use x="797.167969" xlink:href="#DejaVuSans-39"/>
      <use x="860.791016" xlink:href="#DejaVuSans-31"/>
     </g>
    </g>
   </g>
  </g>
 </g>
</svg>
