<?xml version="1.0" encoding="utf-8" standalone="no"?>
<!DOCTYPE svg PUBLIC "-//W3C//DTD SVG 1.1//EN"
  "http://www.w3.org/Graphics/SVG/1.1/DTD/svg11.dtd">
<svg height="340.31875pt" version="1.1" viewBox="0 0 529.371959 340.31875" width="529.371959pt" xmlns="http://www.w3.org/2000/svg" xmlns:xlink="http://www.w3.org/1999/xlink">
 <metadata>
  <rdf:RDF xmlns:cc="http://creativecommons.org/ns#" xmlns:dc="http://purl.org/dc/elements/1.1/" xmlns:rdf="http://www.w3.org/1999/02/22-rdf-syntax-ns#">
   <cc:Work>
    <dc:type rdf:resource="http://purl.org/dc/dcmitype/StillImage"/>
    <dc:date>2021-10-20T18:07:50.446052</dc:date>
    <dc:format>image/svg+xml</dc:format>
    <dc:creator>
     <cc:Agent>
      <dc:title>Matplotlib v3.4.3, https://matplotlib.org/</dc:title>
     </cc:Agent>
    </dc:creator>
   </cc:Work>
  </rdf:RDF>
 </metadata>
 <defs>
  <style type="text/css">*{stroke-linecap:butt;stroke-linejoin:round;}</style>
 </defs>
 <g id="figure_1">
  <g id="patch_1">
   <path d="M 0 340.31875 
L 529.371959 340.31875 
L 529.371959 -0 
L 0 -0 
z
" style="fill:#ffffff;"/>
  </g>
  <g id="axes_1">
   <g id="patch_2">
    <path d="M 53.192607 86.01475 
C 53.192607 84.143391 52.847162 82.288007 52.173669 80.542042 
C 51.500176 78.796077 50.510134 77.189342 49.253406 75.802756 
C 47.996678 74.41617 46.49472 73.273408 44.823177 72.432024 
C 43.151633 71.59064 41.339043 71.064998 39.476695 70.881573 
C 37.614346 70.698148 35.734038 70.86007 33.930466 71.359186 
C 32.126895 71.858301 30.430855 72.686087 28.927765 73.800855 
C 27.424675 74.915623 26.140199 76.298337 25.139026 77.879362 
C 24.137853 79.460387 23.437078 81.212727 23.071994 83.048129 
C 22.706909 84.88353 22.68375 86.770656 23.003681 88.614465 
C 23.323612 90.458274 23.981172 92.227283 24.943243 93.832402 
C 25.905314 95.437521 27.15547 96.851342 28.630749 98.002661 
C 30.106029 99.153981 31.781243 100.023141 33.572022 100.566368 
C 35.362801 101.109595 37.23857 101.317613 39.104859 101.179948 
C 40.971148 101.042282 42.796092 100.561282 44.487781 99.761173 
C 46.17947 98.961064 47.709019 97.855506 48.999398 96.500179 
C 50.289776 95.144853 51.31895 93.562898 52.035089 91.833987 
L 37.986207 86.01475 
L 53.192607 86.01475 
z
" style="fill:#9467bd;"/>
   </g>
   <g id="patch_3">
    <path d="M 52.035089 91.833987 
C 52.416262 90.913752 52.706099 89.958288 52.90042 88.981371 
C 53.094741 88.004455 53.192607 87.010805 53.192607 86.01475 
L 37.986207 86.01475 
L 52.035089 91.833987 
z
" style="fill:#1f77b4;"/>
   </g>
   <g id="matplotlib.axis_1"/>
   <g id="matplotlib.axis_2"/>
  </g>
  <g id="axes_2">
   <g id="patch_4">
    <path d="M 127.079503 86.01475 
C 127.079503 83.538233 126.474514 81.098803 125.317316 78.909276 
C 124.160117 76.719749 122.485368 74.845704 120.439173 73.450632 
C 118.392979 72.055561 116.036625 71.181246 113.575679 70.903965 
C 111.114734 70.626683 108.622905 70.954738 106.317581 71.859512 
L 111.873103 86.01475 
L 127.079503 86.01475 
z
" style="fill:#17becf;"/>
   </g>
   <g id="patch_5">
    <path d="M 106.317581 71.859512 
C 104.903207 72.414613 103.579985 73.178575 102.392067 74.125908 
C 101.204149 75.073242 100.164896 76.19329 99.308985 77.448681 
L 111.873103 86.01475 
L 106.317581 71.859512 
z
" style="fill:#2ca02c;"/>
   </g>
   <g id="patch_6">
    <path d="M 99.308985 77.448681 
C 98.130168 79.177689 97.320847 81.131563 96.931804 83.187705 
C 96.542761 85.243848 96.582307 87.358336 97.04796 89.398494 
C 97.513613 91.438652 98.395426 93.360898 99.638069 95.044619 
C 100.880712 96.72834 102.457639 98.137568 104.269906 99.18388 
C 106.082172 100.230192 108.091063 100.891236 110.17053 101.125536 
C 112.249996 101.359835 114.355617 101.162384 116.355272 100.545571 
C 118.354927 99.928759 120.2059 98.905762 121.792049 97.540769 
C 123.378199 96.175776 124.665643 94.497946 125.573598 92.612556 
L 111.873103 86.01475 
L 99.308985 77.448681 
z
" style="fill:#9467bd;"/>
   </g>
   <g id="patch_7">
    <path d="M 125.573598 92.612556 
C 126.06763 91.586688 126.44488 90.508569 126.698248 89.398488 
C 126.951616 88.288408 127.079504 87.153374 127.079503 86.014746 
L 111.873103 86.01475 
L 125.573598 92.612556 
z
" style="fill:#7f7f7f;"/>
   </g>
   <g id="matplotlib.axis_3"/>
   <g id="matplotlib.axis_4"/>
  </g>
  <g id="axes_3">
   <g id="patch_8">
    <path d="M 200.9664 86.01475 
C 200.9664 83.007568 200.07436 80.066907 198.40366 77.566527 
C 196.732959 75.066147 194.357511 73.116667 191.579237 71.965868 
C 188.800964 70.81507 185.742778 70.513865 182.793379 71.100537 
C 179.843979 71.687209 177.13385 73.135803 175.007451 75.262201 
L 185.76 86.01475 
L 200.9664 86.01475 
z
" style="fill:#aec7e8;"/>
   </g>
   <g id="patch_9">
    <path d="M 175.007451 75.262201 
C 172.156792 78.112861 170.5536 81.983309 170.5536 86.01475 
C 170.5536 90.046191 172.156792 93.916639 175.007451 96.767299 
L 185.76 86.01475 
L 175.007451 75.262201 
z
" style="fill:#7f7f7f;"/>
   </g>
   <g id="patch_10">
    <path d="M 175.007451 96.767299 
C 176.656688 98.416535 178.663469 99.664432 180.872063 100.414148 
C 183.080656 101.163865 185.432414 101.395493 187.744833 101.091057 
C 190.057252 100.786622 192.268926 99.954207 194.208223 98.65841 
C 196.147519 97.362613 197.762942 95.637845 198.929128 93.617951 
L 185.76 86.01475 
L 175.007451 96.767299 
z
" style="fill:#98df8a;"/>
   </g>
   <g id="patch_11">
    <path d="M 198.929128 93.617951 
C 199.260999 93.043134 199.554879 92.447205 199.808881 91.833988 
C 200.062884 91.220771 200.276465 90.591581 200.448254 89.950457 
L 185.76 86.01475 
L 198.929128 93.617951 
z
" style="fill:#9467bd;"/>
   </g>
   <g id="patch_12">
    <path d="M 200.448254 89.950457 
C 200.620043 89.309332 200.749671 88.657647 200.836307 87.999584 
C 200.922943 87.341522 200.9664 86.678492 200.9664 86.014751 
L 185.76 86.01475 
L 200.448254 89.950457 
z
"/>
   </g>
   <g id="matplotlib.axis_5"/>
   <g id="matplotlib.axis_6"/>
  </g>
  <g id="axes_4">
   <g id="patch_13">
    <path d="M 274.853297 86.01475 
C 274.853297 83.647605 274.300565 81.312837 273.239253 79.196946 
C 272.177941 77.081055 270.637082 75.241923 268.739759 73.826458 
C 266.842435 72.410993 264.64055 71.457916 262.309988 71.043359 
C 259.979426 70.628802 257.583941 70.764104 255.314884 71.438459 
L 259.646897 86.01475 
L 274.853297 86.01475 
z
" style="fill:#98df8a;"/>
   </g>
   <g id="patch_14">
    <path d="M 255.314884 71.438459 
C 252.027902 72.415336 249.166055 74.475899 247.197107 77.28335 
C 245.22816 80.090801 244.265569 83.483368 244.466669 86.906538 
L 259.646897 86.01475 
L 255.314884 71.438459 
z
" style="fill:#17becf;"/>
   </g>
   <g id="patch_15">
    <path d="M 244.466669 86.906538 
C 244.473042 87.01503 244.480579 87.12345 244.489277 87.23178 
C 244.497975 87.340109 244.507834 87.448343 244.518852 87.556461 
L 259.646897 86.01475 
L 244.466669 86.906538 
z
"/>
   </g>
   <g id="patch_16">
    <path d="M 244.518852 87.556461 
C 244.839747 90.705246 246.135867 93.676635 248.225442 96.053922 
C 250.315017 98.431209 253.095577 100.097812 256.177176 100.820007 
C 259.258774 101.542202 262.490293 101.284574 265.418541 100.083251 
C 268.34679 98.881928 270.82817 96.795823 272.514692 94.117492 
L 259.646897 86.01475 
L 244.518852 87.556461 
z
" style="fill:#9467bd;"/>
   </g>
   <g id="patch_17">
    <path d="M 272.514692 94.117492 
C 272.709775 93.807686 272.893606 93.490935 273.065825 93.167859 
C 273.238044 92.844783 273.398539 92.515593 273.546997 92.180933 
L 259.646897 86.01475 
L 272.514692 94.117492 
z
" style="fill:#1f77b4;"/>
   </g>
   <g id="patch_18">
    <path d="M 273.546997 92.180933 
C 273.577149 92.112962 273.606803 92.044771 273.635955 91.976365 
C 273.665107 91.907959 273.693757 91.83934 273.721902 91.770514 
L 259.646897 86.01475 
L 273.546997 92.180933 
z
" style="fill:#aec7e8;"/>
   </g>
   <g id="patch_19">
    <path d="M 273.721902 91.770514 
C 273.942795 91.230347 274.13241 90.677912 274.289805 90.11595 
C 274.447199 89.553989 274.572114 88.983432 274.663927 88.407112 
L 259.646897 86.01475 
L 273.721902 91.770514 
z
" style="fill:#c7c7c7;"/>
   </g>
   <g id="patch_20">
    <path d="M 274.663927 88.407112 
C 274.664827 88.401464 274.665724 88.395814 274.666617 88.390165 
C 274.667511 88.384515 274.668401 88.378865 274.669288 88.373214 
L 259.646897 86.01475 
L 274.663927 88.407112 
z
"/>
   </g>
   <g id="patch_21">
    <path d="M 274.669288 88.373214 
C 274.684369 88.277152 274.698529 88.180948 274.711765 88.084615 
C 274.725001 87.988281 274.737312 87.891823 274.748698 87.795254 
L 259.646897 86.01475 
L 274.669288 88.373214 
z
" style="fill:#8c564b;"/>
   </g>
   <g id="patch_22">
    <path d="M 274.748698 87.795254 
C 274.753386 87.75549 274.757917 87.715708 274.762291 87.675908 
C 274.766665 87.636109 274.770882 87.596292 274.774941 87.55646 
L 259.646897 86.01475 
L 274.748698 87.795254 
z
" style="fill:#2ca02c;"/>
   </g>
   <g id="patch_23">
    <path d="M 274.774941 87.55646 
C 274.778421 87.522317 274.781784 87.488163 274.785033 87.453998 
C 274.788281 87.419833 274.791414 87.385657 274.79443 87.35147 
L 259.646897 86.01475 
L 274.774941 87.55646 
z
" style="fill:#ff7f0e;"/>
   </g>
   <g id="patch_24">
    <path d="M 274.79443 87.35147 
C 274.803481 87.24891 274.81149 87.146261 274.818455 87.043539 
C 274.825421 86.940816 274.831343 86.838025 274.836221 86.735183 
L 259.646897 86.01475 
L 274.79443 87.35147 
z
" style="fill:#ff9896;"/>
   </g>
   <g id="patch_25">
    <path d="M 274.836221 86.735183 
C 274.83866 86.683762 274.840838 86.632328 274.842754 86.580885 
C 274.844671 86.529442 274.846326 86.477989 274.84772 86.426529 
L 259.646897 86.01475 
L 274.836221 86.735183 
z
" style="fill:#dbdb8d;"/>
   </g>
   <g id="patch_26">
    <path d="M 274.84772 86.426529 
C 274.847875 86.420812 274.848027 86.415094 274.848175 86.409376 
C 274.848324 86.403658 274.848469 86.39794 274.848611 86.392222 
L 259.646897 86.01475 
L 274.84772 86.426529 
z
" style="fill:#e377c2;"/>
   </g>
   <g id="patch_27">
    <path d="M 274.848611 86.392222 
C 274.849321 86.363631 274.84995 86.335039 274.850499 86.306445 
C 274.851047 86.277851 274.851515 86.249255 274.851902 86.220658 
L 259.646897 86.01475 
L 274.848611 86.392222 
z
" style="fill:#c49c94;"/>
   </g>
   <g id="patch_28">
    <path d="M 274.851902 86.220658 
C 274.85198 86.214939 274.852054 86.209219 274.852125 86.2035 
C 274.852196 86.197781 274.852264 86.192061 274.852328 86.186342 
L 259.646897 86.01475 
L 274.851902 86.220658 
z
"/>
   </g>
   <g id="patch_29">
    <path d="M 274.852328 86.186342 
C 274.852393 86.180622 274.852454 86.174903 274.852512 86.169183 
C 274.85257 86.163464 274.852625 86.157744 274.852677 86.152024 
L 259.646897 86.01475 
L 274.852328 86.186342 
z
" style="fill:#7f7f7f;"/>
   </g>
   <g id="patch_30">
    <path d="M 274.852677 86.152024 
C 274.852729 86.146305 274.852777 86.140585 274.852822 86.134865 
C 274.852867 86.129146 274.852909 86.123426 274.852948 86.117706 
L 259.646897 86.01475 
L 274.852677 86.152024 
z
"/>
   </g>
   <g id="patch_31">
    <path d="M 274.852948 86.117706 
C 274.852987 86.111986 274.853022 86.106267 274.853055 86.100547 
C 274.853087 86.094827 274.853116 86.089107 274.853142 86.083388 
L 259.646897 86.01475 
L 274.852948 86.117706 
z
"/>
   </g>
   <g id="patch_32">
    <path d="M 274.853142 86.083388 
C 274.853193 86.071948 274.853232 86.060508 274.853258 86.049069 
C 274.853284 86.037629 274.853297 86.026189 274.853297 86.014749 
L 259.646897 86.01475 
L 274.853142 86.083388 
z
"/>
   </g>
   <g id="matplotlib.axis_7"/>
   <g id="matplotlib.axis_8"/>
  </g>
  <g id="axes_5">
   <g id="patch_33">
    <path d="M 348.740193 86.01475 
C 348.740193 83.706771 348.214747 81.428796 347.2038 79.354006 
C 346.192854 77.279216 344.722692 75.461556 342.905083 74.039211 
C 341.087474 72.616867 338.969675 71.626819 336.712691 71.144336 
C 334.455707 70.661853 332.11822 70.699479 329.877934 71.254354 
L 333.533793 86.01475 
L 348.740193 86.01475 
z
" style="fill:#98df8a;"/>
   </g>
   <g id="patch_34">
    <path d="M 329.877934 71.254354 
C 326.589529 72.068827 323.665762 73.959314 321.573609 76.623871 
C 319.481456 79.288429 318.338565 82.577221 318.327475 85.964971 
L 333.533793 86.01475 
L 329.877934 71.254354 
z
" style="fill:#17becf;"/>
   </g>
   <g id="patch_35">
    <path d="M 318.327475 85.964971 
C 318.327131 86.070063 318.327876 86.175155 318.329711 86.280231 
C 318.331545 86.385308 318.334469 86.490362 318.338482 86.595378 
L 333.533793 86.01475 
L 318.327475 85.964971 
z
"/>
   </g>
   <g id="patch_36">
    <path d="M 318.338482 86.595378 
C 318.459501 89.762498 319.567716 92.813912 321.507303 95.320562 
C 323.44689 97.827213 326.12247 99.665837 329.157832 100.577908 
C 332.193194 101.489978 335.439076 101.430644 338.439076 100.408248 
C 341.439077 99.385853 344.045672 97.450671 345.892352 94.874808 
L 333.533793 86.01475 
L 318.338482 86.595378 
z
" style="fill:#9467bd;"/>
   </g>
   <g id="patch_37">
    <path d="M 345.892352 94.874808 
C 346.105075 94.578089 346.307043 94.273805 346.497863 93.962548 
C 346.688683 93.651291 346.868232 93.333263 347.036161 93.009082 
L 333.533793 86.01475 
L 345.892352 94.874808 
z
" style="fill:#1f77b4;"/>
   </g>
   <g id="patch_38">
    <path d="M 347.036161 93.009082 
C 347.092131 92.901032 347.146803 92.792314 347.200164 92.682951 
C 347.253525 92.573589 347.305571 92.46359 347.356292 92.352978 
L 333.533793 86.01475 
L 347.036161 93.009082 
z
" style="fill:#aec7e8;"/>
   </g>
   <g id="patch_39">
    <path d="M 347.356292 92.352978 
C 347.609967 91.79976 347.830201 91.231811 348.015806 90.652197 
C 348.20141 90.072583 348.352051 89.482349 348.466914 88.88468 
L 333.533793 86.01475 
L 347.356292 92.352978 
z
" style="fill:#c7c7c7;"/>
   </g>
   <g id="patch_40">
    <path d="M 348.466914 88.88468 
C 348.467958 88.879248 348.468999 88.873816 348.470037 88.868383 
C 348.471075 88.86295 348.47211 88.857517 348.473142 88.852083 
L 333.533793 86.01475 
L 348.466914 88.88468 
z
"/>
   </g>
   <g id="patch_41">
    <path d="M 348.473142 88.852083 
C 348.490687 88.759705 348.507374 88.667165 348.523203 88.574477 
C 348.539031 88.481789 348.553999 88.388957 348.568105 88.295991 
L 333.533793 86.01475 
L 348.473142 88.852083 
z
" style="fill:#8c564b;"/>
   </g>
   <g id="patch_42">
    <path d="M 348.568105 88.295991 
C 348.579722 88.219431 348.590754 88.142784 348.6012 88.066055 
C 348.611646 87.989327 348.621506 87.91252 348.630778 87.835641 
L 333.533793 86.01475 
L 348.568105 88.295991 
z
" style="fill:#2ca02c;"/>
   </g>
   <g id="patch_43">
    <path d="M 348.630778 87.835641 
C 348.634752 87.802693 348.638618 87.769732 348.642376 87.736759 
C 348.646134 87.703786 348.649785 87.6708 348.653327 87.637803 
L 333.533793 86.01475 
L 348.630778 87.835641 
z
" style="fill:#ff7f0e;"/>
   </g>
   <g id="patch_44">
    <path d="M 348.653327 87.637803 
C 348.663953 87.538811 348.673608 87.439716 348.682288 87.340534 
C 348.690968 87.241353 348.698674 87.142088 348.705405 87.042755 
L 333.533793 86.01475 
L 348.653327 87.637803 
z
" style="fill:#ff9896;"/>
   </g>
   <g id="patch_45">
    <path d="M 348.705405 87.042755 
C 348.709144 86.98757 348.712582 86.932365 348.715719 86.877143 
C 348.718856 86.82192 348.721692 86.766681 348.724226 86.711428 
L 333.533793 86.01475 
L 348.705405 87.042755 
z
" style="fill:#7f7f7f;"/>
   </g>
   <g id="patch_46">
    <path d="M 348.724226 86.711428 
C 348.726506 86.6617 348.728543 86.611961 348.730335 86.562213 
C 348.732127 86.512465 348.733675 86.462709 348.734979 86.412946 
L 333.533793 86.01475 
L 348.724226 86.711428 
z
" style="fill:#dbdb8d;"/>
   </g>
   <g id="patch_47">
    <path d="M 348.734979 86.412946 
C 348.735123 86.407416 348.735265 86.401887 348.735404 86.396358 
C 348.735543 86.390828 348.735679 86.385299 348.735811 86.379769 
L 333.533793 86.01475 
L 348.734979 86.412946 
z
" style="fill:#e377c2;"/>
   </g>
   <g id="patch_48">
    <path d="M 348.735811 86.379769 
C 348.736475 86.352122 348.737064 86.324472 348.737577 86.296821 
C 348.73809 86.26917 348.738527 86.241518 348.738889 86.213865 
L 333.533793 86.01475 
L 348.735811 86.379769 
z
" style="fill:#c49c94;"/>
   </g>
   <g id="patch_49">
    <path d="M 348.738889 86.213865 
C 348.738962 86.208334 348.739031 86.202804 348.739098 86.197273 
C 348.739164 86.191742 348.739227 86.186211 348.739288 86.180681 
L 333.533793 86.01475 
L 348.738889 86.213865 
z
"/>
   </g>
   <g id="patch_50">
    <path d="M 348.739288 86.180681 
C 348.739348 86.17515 348.739405 86.169619 348.73946 86.164088 
C 348.739514 86.158557 348.739565 86.153026 348.739614 86.147495 
L 333.533793 86.01475 
L 348.739288 86.180681 
z
"/>
   </g>
   <g id="patch_51">
    <path d="M 348.739614 86.147495 
C 348.739662 86.141965 348.739707 86.136434 348.739749 86.130903 
C 348.739792 86.125372 348.739831 86.119841 348.739867 86.11431 
L 333.533793 86.01475 
L 348.739614 86.147495 
z
"/>
   </g>
   <g id="patch_52">
    <path d="M 348.739867 86.11431 
C 348.73994 86.103248 348.74 86.092186 348.740048 86.081123 
C 348.740097 86.070061 348.740133 86.058999 348.740157 86.047937 
L 333.533793 86.01475 
L 348.739867 86.11431 
z
"/>
   </g>
   <g id="patch_53">
    <path d="M 348.740157 86.047937 
C 348.740169 86.042406 348.740178 86.036875 348.740184 86.031344 
C 348.74019 86.025812 348.740193 86.020281 348.740193 86.01475 
L 333.533793 86.01475 
L 348.740157 86.047937 
z
"/>
   </g>
   <g id="matplotlib.axis_9"/>
   <g id="matplotlib.axis_10"/>
  </g>
  <g id="axes_6">
   <g id="patch_54">
    <path d="M 53.192607 131.63395 
C 53.192607 129.637064 52.799264 127.659595 52.035089 125.814713 
C 51.270913 123.96983 50.150767 122.293413 48.738755 120.881401 
C 47.326744 119.46939 45.650326 118.349244 43.805444 117.585068 
C 41.960562 116.820893 39.983093 116.42755 37.986207 116.42755 
C 35.989321 116.42755 34.011852 116.820893 32.16697 117.585068 
C 30.322087 118.349244 28.64567 119.46939 27.233658 120.881401 
C 25.821647 122.293413 24.7015 123.96983 23.937325 125.814713 
C 23.17315 127.659595 22.779807 129.637064 22.779807 131.63395 
C 22.779807 133.630836 23.17315 135.608305 23.937325 137.453187 
C 24.7015 139.29807 25.821647 140.974487 27.233658 142.386499 
C 28.64567 143.79851 30.322087 144.918656 32.16697 145.682832 
C 34.011852 146.447007 35.989321 146.84035 37.986207 146.84035 
C 39.983093 146.84035 41.960562 146.447007 43.805444 145.682832 
C 45.650326 144.918656 47.326744 143.79851 48.738755 142.386499 
C 50.150767 140.974487 51.270913 139.29807 52.035089 137.453187 
C 52.799264 135.608305 53.192607 133.630836 53.192607 131.63395 
M 37.986207 131.63395 
M 53.192607 131.63395 
z
" style="fill:#7f7f7f;"/>
   </g>
   <g id="matplotlib.axis_11"/>
   <g id="matplotlib.axis_12"/>
  </g>
  <g id="axes_7"/>
  <g id="axes_8"/>
  <g id="axes_9">
   <g id="patch_55">
    <path d="M 274.853297 131.63395 
C 274.853297 129.726122 274.494256 127.835224 273.794959 126.060177 
C 273.095661 124.285131 272.068517 122.657439 270.767262 121.262254 
C 269.466006 119.867069 267.913733 118.729152 266.19165 117.908033 
C 264.469567 117.086914 262.608236 116.597166 260.705032 116.46441 
C 258.801829 116.331654 256.89053 116.558246 255.071126 117.132332 
C 253.251722 117.706418 251.556501 118.617809 250.07415 119.818827 
C 248.591799 121.019844 247.348626 122.489173 246.409666 124.149944 
C 245.470707 125.810716 244.852626 127.633456 244.587757 129.522808 
C 244.322889 131.412161 244.415934 133.334593 244.862025 135.189535 
C 245.308117 137.044477 246.099337 138.799008 247.194294 140.361338 
C 248.289251 141.923669 249.668512 143.266072 251.259921 144.31832 
C 252.851329 145.370568 254.626642 146.113986 256.492984 146.509683 
C 258.359325 146.90538 260.283573 146.946332 262.16506 146.630398 
C 264.046547 146.314464 265.851881 145.64725 267.486617 144.663662 
C 269.121353 143.680073 270.556477 142.397567 271.716913 140.883237 
C 272.877349 139.368906 273.7425 137.649628 274.267107 135.815344 
L 259.646897 131.63395 
L 274.853297 131.63395 
z
" style="fill:#2ca02c;"/>
   </g>
   <g id="patch_56">
    <path d="M 274.267107 135.815344 
C 274.321034 135.626789 274.371308 135.437207 274.417902 135.246707 
C 274.464495 135.056206 274.507399 134.864822 274.546589 134.672662 
L 259.646897 131.63395 
L 274.267107 135.815344 
z
" style="fill:#c7c7c7;"/>
   </g>
   <g id="patch_57">
    <path d="M 274.546589 134.672662 
C 274.570102 134.557368 274.592277 134.441805 274.613108 134.325997 
C 274.633939 134.210188 274.653425 134.094142 274.671563 133.977881 
L 259.646897 131.63395 
L 274.546589 134.672662 
z
" style="fill:#ff7f0e;"/>
   </g>
   <g id="patch_58">
    <path d="M 274.671563 133.977881 
C 274.677608 133.939128 274.683504 133.900351 274.68925 133.861552 
C 274.694995 133.822754 274.700591 133.783933 274.706036 133.74509 
L 259.646897 131.63395 
L 274.671563 133.977881 
z
" style="fill:#9467bd;"/>
   </g>
   <g id="patch_59">
    <path d="M 274.706036 133.74509 
C 274.716927 133.667406 274.727216 133.589638 274.736903 133.511794 
C 274.74659 133.433951 274.755675 133.356033 274.764156 133.278048 
L 259.646897 131.63395 
L 274.706036 133.74509 
z
" style="fill:#7f7f7f;"/>
   </g>
   <g id="patch_60">
    <path d="M 274.764156 133.278048 
C 274.772638 133.200064 274.780515 133.122015 274.787789 133.043909 
C 274.795062 132.965803 274.801731 132.887641 274.807795 132.809432 
L 259.646897 131.63395 
L 274.764156 133.278048 
z
"/>
   </g>
   <g id="patch_61">
    <path d="M 274.807795 132.809432 
C 274.816891 132.692117 274.824625 132.5747 274.830995 132.457205 
C 274.837366 132.339711 274.842372 132.222146 274.846013 132.104535 
L 259.646897 131.63395 
L 274.807795 132.809432 
z
" style="fill:#c49c94;"/>
   </g>
   <g id="patch_62">
    <path d="M 274.846013 132.104535 
C 274.847227 132.065332 274.848289 132.026125 274.8492 131.986913 
C 274.85011 131.947702 274.850869 131.908487 274.851476 131.86927 
L 259.646897 131.63395 
L 274.846013 132.104535 
z
"/>
   </g>
   <g id="patch_63">
    <path d="M 274.851476 131.86927 
C 274.852083 131.830052 274.852538 131.790833 274.852841 131.751612 
C 274.853145 131.712391 274.853297 131.673169 274.853297 131.633947 
L 259.646897 131.63395 
L 274.851476 131.86927 
z
"/>
   </g>
   <g id="matplotlib.axis_13"/>
   <g id="matplotlib.axis_14"/>
  </g>
  <g id="axes_10">
   <g id="patch_64">
    <path d="M 348.740193 131.63395 
C 348.740193 129.740196 348.386431 127.863 347.697145 126.099144 
C 347.007859 124.335289 345.995102 122.715616 344.711091 121.323634 
C 343.427079 119.931651 341.894264 118.791698 340.191674 117.962548 
C 338.489084 117.133398 336.64649 116.62955 334.758893 116.47698 
C 332.871295 116.32441 330.9717 116.525787 329.158046 117.070728 
C 327.344392 117.615669 325.648392 118.494644 324.157488 119.662338 
C 322.666584 120.830031 321.406846 122.266023 320.443222 123.896279 
C 319.479599 125.526534 318.82894 127.322545 318.524793 129.191715 
C 318.220645 131.060885 318.268327 132.970529 318.66538 134.822191 
C 319.062432 136.673853 319.801913 138.435154 320.845696 140.015287 
C 321.88948 141.595419 323.219314 142.966753 324.766636 144.058585 
C 326.313957 145.150417 328.051711 145.943656 329.890301 146.397404 
C 331.728892 146.851152 333.636169 146.957475 335.513801 146.710892 
C 337.391432 146.464308 339.206584 145.86913 340.865672 144.956043 
C 342.52476 144.042955 343.998774 142.827925 345.211716 141.373596 
C 346.424659 139.919267 347.355321 138.25107 347.955719 136.455012 
L 333.533793 131.63395 
L 348.740193 131.63395 
z
" style="fill:#2ca02c;"/>
   </g>
   <g id="patch_65">
    <path d="M 347.955719 136.455012 
C 348.01744 136.270378 348.07561 136.084576 348.130196 135.897708 
C 348.184782 135.71084 348.235774 135.522941 348.283145 135.334115 
L 333.533793 131.63395 
L 347.955719 136.455012 
z
" style="fill:#c7c7c7;"/>
   </g>
   <g id="patch_66">
    <path d="M 348.283145 135.334115 
C 348.311567 135.220822 348.338682 135.107205 348.364486 134.993287 
C 348.39029 134.879369 348.41478 134.765157 348.437953 134.650675 
L 333.533793 131.63395 
L 348.283145 135.334115 
z
" style="fill:#ff7f0e;"/>
   </g>
   <g id="patch_67">
    <path d="M 348.437953 134.650675 
C 348.445677 134.612514 348.453254 134.574324 348.460685 134.536106 
C 348.468115 134.497887 348.475399 134.45964 348.482536 134.421365 
L 333.533793 131.63395 
L 348.437953 134.650675 
z
" style="fill:#9467bd;"/>
   </g>
   <g id="patch_68">
    <path d="M 348.482536 134.421365 
C 348.511084 134.268264 348.537278 134.114734 348.56111 133.960828 
C 348.584941 133.806922 348.606406 133.652659 348.625498 133.498093 
L 333.533793 131.63395 
L 348.482536 134.421365 
z
" style="fill:#7f7f7f;"/>
   </g>
   <g id="patch_69">
    <path d="M 348.625498 133.498093 
C 348.635044 133.420812 348.643996 133.343458 348.652354 133.266039 
C 348.660712 133.18862 348.668474 133.111138 348.675642 133.0336 
L 333.533793 131.63395 
L 348.625498 133.498093 
z
"/>
   </g>
   <g id="patch_70">
    <path d="M 348.675642 133.0336 
C 348.689977 132.878521 348.701928 132.723231 348.711492 132.567785 
C 348.721056 132.412339 348.728232 132.256755 348.733016 132.101088 
L 333.533793 131.63395 
L 348.675642 133.0336 
z
" style="fill:#c49c94;"/>
   </g>
   <g id="patch_71">
    <path d="M 348.733016 132.101088 
C 348.734212 132.062172 348.735259 132.023252 348.736156 131.984328 
C 348.737053 131.945404 348.737801 131.906477 348.738399 131.867547 
L 333.533793 131.63395 
L 348.733016 132.101088 
z
"/>
   </g>
   <g id="patch_72">
    <path d="M 348.738399 131.867547 
C 348.738997 131.828617 348.739445 131.789685 348.739745 131.750752 
C 348.740044 131.711819 348.740193 131.672885 348.740193 131.633951 
L 333.533793 131.63395 
L 348.738399 131.867547 
z
"/>
   </g>
   <g id="matplotlib.axis_15"/>
   <g id="matplotlib.axis_16"/>
  </g>
  <g id="axes_11"/>
  <g id="axes_12"/>
  <g id="axes_13"/>
  <g id="axes_14">
   <g id="patch_73">
    <path d="M 274.853297 177.25315 
C 274.853297 173.363975 273.361258 169.619241 270.686675 166.795717 
C 268.012091 163.972193 264.353627 162.279607 260.470155 162.069052 
L 259.646897 177.25315 
L 274.853297 177.25315 
z
" style="fill:#ff7f0e;"/>
   </g>
   <g id="patch_74">
    <path d="M 260.470155 162.069052 
C 257.432373 161.904348 254.413947 162.654996 251.807179 164.223437 
C 249.200411 165.791877 247.123347 168.107082 245.845942 170.868148 
C 244.568537 173.629213 244.148638 176.711104 244.640818 179.713271 
C 245.132998 182.715438 246.514969 185.501927 248.607118 187.710582 
L 259.646897 177.25315 
L 260.470155 162.069052 
z
" style="fill:#7f7f7f;"/>
   </g>
   <g id="patch_75">
    <path d="M 248.607118 187.710582 
C 250.89259 190.123326 253.907196 191.721569 257.186774 192.259229 
C 260.466352 192.796888 263.833475 192.244877 266.769702 190.688188 
L 259.646897 177.25315 
L 248.607118 187.710582 
z
" style="fill:#17becf;"/>
   </g>
   <g id="patch_76">
    <path d="M 266.769702 190.688188 
C 268.228326 189.914875 269.551325 188.909156 270.686674 187.710583 
C 271.822023 186.51201 272.754641 185.136502 273.447851 183.638152 
L 259.646897 177.25315 
L 266.769702 190.688188 
z
" style="fill:#98df8a;"/>
   </g>
   <g id="patch_77">
    <path d="M 273.447851 183.638152 
C 273.678472 183.139674 273.881916 182.629067 274.05729 182.108577 
C 274.232663 181.588087 274.379709 181.058477 274.497779 180.522076 
L 259.646897 177.25315 
L 273.447851 183.638152 
z
" style="fill:#9467bd;"/>
   </g>
   <g id="patch_78">
    <path d="M 274.497779 180.522076 
C 274.61585 179.985676 274.704773 179.443273 274.764156 178.897251 
C 274.823539 178.351229 274.853297 177.802391 274.853297 177.25315 
L 259.646897 177.25315 
L 274.497779 180.522076 
z
"/>
   </g>
   <g id="matplotlib.axis_17"/>
   <g id="matplotlib.axis_18"/>
  </g>
  <g id="axes_15">
   <g id="patch_79">
    <path d="M 348.740193 177.25315 
C 348.740193 173.363975 347.248155 169.619241 344.573571 166.795717 
C 341.898987 163.972193 338.240523 162.279607 334.357051 162.069052 
L 333.533793 177.25315 
L 348.740193 177.25315 
z
" style="fill:#ff7f0e;"/>
   </g>
   <g id="patch_80">
    <path d="M 334.357051 162.069052 
C 331.31927 161.904348 328.300844 162.654996 325.694075 164.223437 
C 323.087307 165.791877 321.010244 168.107082 319.732839 170.868148 
C 318.455433 173.629213 318.035534 176.711104 318.527714 179.713271 
C 319.019894 182.715438 320.401865 185.501927 322.494015 187.710582 
L 333.533793 177.25315 
L 334.357051 162.069052 
z
" style="fill:#7f7f7f;"/>
   </g>
   <g id="patch_81">
    <path d="M 322.494015 187.710582 
C 324.779486 190.123326 327.794093 191.721569 331.073671 192.259229 
C 334.353249 192.796888 337.720372 192.244877 340.656599 190.688188 
L 333.533793 177.25315 
L 322.494015 187.710582 
z
" style="fill:#17becf;"/>
   </g>
   <g id="patch_82">
    <path d="M 340.656599 190.688188 
C 342.115222 189.914875 343.438222 188.909156 344.573571 187.710583 
C 345.70892 186.51201 346.641537 185.136502 347.334748 183.638152 
L 333.533793 177.25315 
L 340.656599 190.688188 
z
" style="fill:#98df8a;"/>
   </g>
   <g id="patch_83">
    <path d="M 347.334748 183.638152 
C 347.565368 183.139674 347.768813 182.629067 347.944186 182.108577 
C 348.11956 181.588087 348.266605 181.058477 348.384676 180.522076 
L 333.533793 177.25315 
L 347.334748 183.638152 
z
" style="fill:#9467bd;"/>
   </g>
   <g id="patch_84">
    <path d="M 348.384676 180.522076 
C 348.502747 179.985676 348.591669 179.443273 348.651053 178.897251 
C 348.710436 178.351229 348.740193 177.802391 348.740193 177.25315 
L 333.533793 177.25315 
L 348.384676 180.522076 
z
"/>
   </g>
   <g id="matplotlib.axis_19"/>
   <g id="matplotlib.axis_20"/>
  </g>
  <g id="axes_16">
   <g id="patch_85">
    <path d="M 53.192607 222.87235 
C 53.192607 220.875464 52.799264 218.897995 52.035089 217.053113 
C 51.270913 215.20823 50.150767 213.531813 48.738755 212.119801 
C 47.326744 210.70779 45.650326 209.587644 43.805444 208.823468 
C 41.960562 208.059293 39.983093 207.66595 37.986207 207.66595 
C 35.989321 207.66595 34.011852 208.059293 32.16697 208.823468 
C 30.322087 209.587644 28.64567 210.70779 27.233658 212.119801 
C 25.821647 213.531813 24.7015 215.20823 23.937325 217.053113 
C 23.17315 218.897995 22.779807 220.875464 22.779807 222.87235 
C 22.779807 224.869236 23.17315 226.846705 23.937325 228.691587 
C 24.7015 230.53647 25.821647 232.212887 27.233658 233.624899 
C 28.64567 235.03691 30.322087 236.157056 32.16697 236.921232 
C 34.011852 237.685407 35.989321 238.07875 37.986207 238.07875 
C 39.983093 238.07875 41.960562 237.685407 43.805444 236.921232 
C 45.650326 236.157056 47.326744 235.03691 48.738755 233.624899 
C 50.150767 232.212887 51.270913 230.53647 52.035089 228.691587 
C 52.799264 226.846705 53.192607 224.869236 53.192607 222.87235 
M 37.986207 222.87235 
M 53.192607 222.87235 
z
" style="fill:#2ca02c;"/>
   </g>
   <g id="matplotlib.axis_21"/>
   <g id="matplotlib.axis_22"/>
  </g>
  <g id="axes_17"/>
  <g id="axes_18"/>
  <g id="axes_19">
   <g id="patch_86">
    <path d="M 274.853297 222.87235 
C 274.853297 220.875464 274.459954 218.897995 273.695778 217.053113 
C 272.931603 215.20823 271.811457 213.531813 270.399445 212.119801 
C 268.987433 210.70779 267.311016 209.587644 265.466134 208.823468 
C 263.621252 208.059293 261.643783 207.66595 259.646897 207.66595 
C 257.65001 207.66595 255.672541 208.059293 253.827659 208.823468 
C 251.982777 209.587644 250.30636 210.70779 248.894348 212.119801 
C 247.482336 213.531813 246.36219 215.20823 245.598015 217.053113 
C 244.83384 218.897995 244.440497 220.875464 244.440497 222.87235 
C 244.440497 224.869236 244.83384 226.846705 245.598015 228.691587 
C 246.36219 230.53647 247.482336 232.212887 248.894348 233.624899 
C 250.30636 235.03691 251.982777 236.157056 253.827659 236.921232 
C 255.672541 237.685407 257.65001 238.07875 259.646897 238.07875 
C 261.643783 238.07875 263.621252 237.685407 265.466134 236.921232 
C 267.311016 236.157056 268.987433 235.03691 270.399445 233.624899 
C 271.811457 232.212887 272.931603 230.53647 273.695778 228.691587 
C 274.459954 226.846705 274.853297 224.869236 274.853297 222.87235 
M 259.646897 222.87235 
M 274.853297 222.87235 
z
" style="fill:#2ca02c;"/>
   </g>
   <g id="matplotlib.axis_23"/>
   <g id="matplotlib.axis_24"/>
  </g>
  <g id="axes_20">
   <g id="patch_87">
    <path d="M 348.740193 222.87235 
C 348.740193 220.875464 348.34685 218.897995 347.582675 217.053113 
C 346.8185 215.20823 345.698353 213.531813 344.286342 212.119801 
C 342.87433 210.70779 341.197913 209.587644 339.35303 208.823468 
C 337.508148 208.059293 335.530679 207.66595 333.533793 207.66595 
C 331.536907 207.66595 329.559438 208.059293 327.714556 208.823468 
C 325.869674 209.587644 324.193256 210.70779 322.781245 212.119801 
C 321.369233 213.531813 320.249087 215.20823 319.484911 217.053113 
C 318.720736 218.897995 318.327393 220.875464 318.327393 222.87235 
C 318.327393 224.869236 318.720736 226.846705 319.484911 228.691587 
C 320.249087 230.53647 321.369233 232.212887 322.781245 233.624899 
C 324.193256 235.03691 325.869674 236.157056 327.714556 236.921232 
C 329.559438 237.685407 331.536907 238.07875 333.533793 238.07875 
C 335.530679 238.07875 337.508148 237.685407 339.35303 236.921232 
C 341.197913 236.157056 342.87433 235.03691 344.286342 233.624899 
C 345.698353 232.212887 346.8185 230.53647 347.582675 228.691587 
C 348.34685 226.846705 348.740193 224.869236 348.740193 222.87235 
M 333.533793 222.87235 
M 348.740193 222.87235 
z
" style="fill:#2ca02c;"/>
   </g>
   <g id="matplotlib.axis_25"/>
   <g id="matplotlib.axis_26"/>
  </g>
  <g id="axes_21"/>
  <g id="axes_22"/>
  <g id="axes_23"/>
  <g id="axes_24">
   <g id="patch_88">
    <path d="M 274.853297 268.49155 
C 274.853297 266.94037 274.615947 265.398284 274.149498 263.918897 
C 273.683049 262.439511 272.99297 261.040169 272.10325 259.769517 
C 271.21353 258.498865 270.1346 257.3718 268.903966 256.427502 
C 267.673333 255.483203 266.305423 254.732743 264.847791 254.202208 
C 263.390159 253.671673 261.859893 253.367285 260.31019 253.299623 
C 258.760487 253.231962 257.209515 253.401821 255.71119 253.803296 
C 254.212866 254.204771 252.784755 254.833154 251.476503 255.666603 
C 250.168252 256.500051 248.995197 257.528792 247.998118 258.717065 
C 247.001039 259.905338 246.191625 261.23921 245.598015 262.672313 
C 245.004404 264.105416 244.633556 265.620949 244.498361 267.166226 
C 244.363167 268.711503 244.465212 270.268408 244.800949 271.782818 
C 245.136686 273.297229 245.702178 274.75139 246.477768 276.094751 
C 247.253358 277.438112 248.229953 278.654923 249.373602 279.702885 
C 250.517252 280.750846 251.814549 281.617672 253.220395 282.273229 
C 254.626241 282.928786 256.124155 283.365388 257.662064 283.567857 
C 259.199973 283.770327 260.759848 283.73629 262.287461 283.46693 
L 259.646897 268.49155 
L 274.853297 268.49155 
z
" style="fill:#c7c7c7;"/>
   </g>
   <g id="patch_89">
    <path d="M 262.287461 283.46693 
C 265.807375 282.846274 268.998215 281.004042 271.295676 278.266034 
C 273.593136 275.528027 274.853297 272.065763 274.853297 268.491549 
L 259.646897 268.49155 
L 262.287461 283.46693 
z
" style="fill:#98df8a;"/>
   </g>
   <g id="matplotlib.axis_27"/>
   <g id="matplotlib.axis_28"/>
  </g>
  <g id="axes_25">
   <g id="patch_90">
    <path d="M 348.740193 268.49155 
C 348.740193 267.428974 348.628819 266.369318 348.407897 265.329962 
C 348.186975 264.290605 347.857719 263.277261 347.425531 262.30655 
L 333.533793 268.49155 
L 348.740193 268.49155 
z
" style="fill:#7f7f7f;"/>
   </g>
   <g id="patch_91">
    <path d="M 347.425531 262.30655 
C 345.897544 258.874636 343.150706 256.127798 339.718793 254.599812 
C 336.286879 253.071826 332.407588 252.868521 328.834757 254.029404 
C 325.261926 255.190288 322.243013 257.634955 320.364664 260.88835 
C 318.486316 264.141745 317.878628 267.978535 318.65969 271.653139 
L 333.533793 268.49155 
L 347.425531 262.30655 
z
" style="fill:#c7c7c7;"/>
   </g>
   <g id="patch_92">
    <path d="M 318.65969 271.653139 
C 319.327248 274.793753 320.972653 277.643679 323.358726 279.792108 
C 325.744799 281.940537 328.751104 283.27903 331.944292 283.614648 
L 333.533793 268.49155 
L 318.65969 271.653139 
z
" style="fill:#98df8a;"/>
   </g>
   <g id="patch_93">
    <path d="M 331.944292 283.614648 
C 335.137481 283.950265 338.356379 283.266067 341.136994 281.660678 
C 343.917609 280.055289 346.119591 277.60974 347.425531 274.676549 
L 333.533793 268.49155 
L 331.944292 283.614648 
z
" style="fill:#9467bd;"/>
   </g>
   <g id="patch_94">
    <path d="M 347.425531 274.676549 
C 347.85772 273.705837 348.186975 272.692494 348.407897 271.653137 
C 348.628819 270.613781 348.740193 269.554125 348.740193 268.491549 
L 333.533793 268.49155 
L 347.425531 274.676549 
z
" style="fill:#2ca02c;"/>
   </g>
   <g id="matplotlib.axis_29"/>
   <g id="matplotlib.axis_30"/>
  </g>
  <g id="axes_26">
   <g id="patch_95">
    <path d="M 53.192607 314.11075 
C 53.192607 312.536152 52.948036 310.971066 52.467653 309.471536 
C 51.98727 307.972006 51.276878 306.556148 50.361916 305.274663 
C 49.446954 303.993179 48.338475 302.861549 47.076173 301.920298 
C 45.813872 300.979047 44.412998 300.239545 42.923716 299.728274 
C 41.434435 299.217003 39.874737 298.94014 38.300475 298.907598 
C 36.726214 298.875056 35.156407 299.087229 33.647269 299.536519 
C 32.138131 299.985809 30.707894 300.666788 29.407774 301.55507 
C 28.107654 302.443353 26.953358 303.528208 25.98622 304.770787 
C 25.019082 306.013366 24.250787 307.398657 23.708846 308.877055 
C 23.166905 310.355452 22.857867 311.909095 22.792797 313.482348 
C 22.727727 315.0556 22.907411 316.629457 23.325416 318.147558 
C 23.743421 319.665658 24.394696 321.109664 25.25592 322.427864 
C 26.117143 323.746065 27.177911 324.922535 28.400237 325.915147 
C 29.622563 326.907758 30.99168 327.704519 32.458561 328.276898 
C 33.925443 328.849276 35.472367 329.190358 37.043939 329.287928 
C 38.615511 329.385498 40.192745 329.238379 41.71916 328.851838 
L 37.986207 314.11075 
L 53.192607 314.11075 
z
" style="fill:#9467bd;"/>
   </g>
   <g id="patch_96">
    <path d="M 41.71916 328.851838 
C 42.532087 328.645976 43.326594 328.373221 44.094551 328.036364 
C 44.862507 327.699507 45.601284 327.299701 46.303322 326.841037 
L 37.986207 314.11075 
L 41.71916 328.851838 
z
" style="fill:#1f77b4;"/>
   </g>
   <g id="patch_97">
    <path d="M 46.303322 326.841037 
C 47.709787 325.922147 48.954299 324.776493 49.986195 323.450712 
C 51.018091 322.124931 51.823178 320.63726 52.368683 319.048257 
L 37.986207 314.11075 
L 46.303322 326.841037 
z
" style="fill:#7f7f7f;"/>
   </g>
   <g id="patch_98">
    <path d="M 52.368683 319.048257 
C 52.640972 318.255106 52.847185 317.440789 52.985212 316.613638 
C 53.123239 315.786488 53.192607 314.949335 53.192607 314.110747 
L 37.986207 314.11075 
L 52.368683 319.048257 
z
" style="fill:#2ca02c;"/>
   </g>
   <g id="matplotlib.axis_31"/>
   <g id="matplotlib.axis_32"/>
  </g>
  <g id="axes_27">
   <g id="patch_99">
    <path d="M 127.079503 314.11075 
C 127.079503 311.504412 126.409424 308.941322 125.133835 306.668466 
C 123.858247 304.395611 122.019483 302.488419 119.79473 301.130672 
C 117.569978 299.772925 115.033071 299.009684 112.428471 298.914495 
C 109.823872 298.819306 107.23802 299.39533 104.920093 300.587058 
L 111.873103 314.11075 
L 127.079503 314.11075 
z
" style="fill:#17becf;"/>
   </g>
   <g id="patch_100">
    <path d="M 104.920093 300.587058 
C 103.60036 301.265579 102.387029 302.133644 101.318733 303.16361 
C 100.250438 304.193577 99.338639 305.374396 98.612371 306.668467 
L 111.873103 314.11075 
L 104.920093 300.587058 
z
" style="fill:#2ca02c;"/>
   </g>
   <g id="patch_101">
    <path d="M 98.612371 306.668467 
C 97.612182 308.450614 96.981441 310.416237 96.757927 312.447608 
C 96.534413 314.47898 96.722678 316.534718 97.311446 318.491701 
C 97.900214 320.448683 98.877492 322.267043 100.184748 323.837874 
C 101.492004 325.408706 103.102607 326.700008 104.920095 327.634443 
C 106.737582 328.568877 108.724929 329.127408 110.763108 329.276584 
C 112.801288 329.425759 114.848779 329.16254 116.782953 328.502691 
C 118.717127 327.842843 120.498581 326.799807 122.020621 325.436053 
C 123.54266 324.072299 124.774279 322.41561 125.641712 320.565207 
L 111.873103 314.11075 
L 98.612371 306.668467 
z
" style="fill:#9467bd;"/>
   </g>
   <g id="patch_102">
    <path d="M 125.641712 320.565207 
C 126.113748 319.558263 126.473901 318.502568 126.715704 317.417079 
C 126.957507 316.33159 127.079504 315.222843 127.079503 314.110749 
L 111.873103 314.11075 
L 125.641712 320.565207 
z
" style="fill:#7f7f7f;"/>
   </g>
   <g id="matplotlib.axis_33"/>
   <g id="matplotlib.axis_34"/>
  </g>
  <g id="axes_28">
   <g id="patch_103">
    <path d="M 200.9664 314.11075 
C 200.9664 311.103568 200.07436 308.162907 198.40366 305.662527 
C 196.732959 303.162147 194.357511 301.212667 191.579237 300.061868 
C 188.800964 298.91107 185.742778 298.609865 182.793379 299.196537 
C 179.843979 299.783209 177.13385 301.231803 175.007451 303.358201 
L 185.76 314.11075 
L 200.9664 314.11075 
z
" style="fill:#aec7e8;"/>
   </g>
   <g id="patch_104">
    <path d="M 175.007451 303.358201 
C 172.156792 306.208861 170.5536 310.079309 170.5536 314.11075 
C 170.5536 318.142191 172.156792 322.012639 175.007451 324.863299 
L 185.76 314.11075 
L 175.007451 303.358201 
z
" style="fill:#7f7f7f;"/>
   </g>
   <g id="patch_105">
    <path d="M 175.007451 324.863299 
C 176.656688 326.512535 178.663469 327.760432 180.872063 328.510148 
C 183.080656 329.259865 185.432414 329.491493 187.744833 329.187057 
C 190.057252 328.882622 192.268926 328.050207 194.208223 326.75441 
C 196.147519 325.458613 197.762942 323.733845 198.929128 321.713951 
L 185.76 314.11075 
L 175.007451 324.863299 
z
" style="fill:#98df8a;"/>
   </g>
   <g id="patch_106">
    <path d="M 198.929128 321.713951 
C 199.260999 321.139134 199.554879 320.543205 199.808881 319.929988 
C 200.062884 319.316771 200.276465 318.687581 200.448254 318.046457 
L 185.76 314.11075 
L 198.929128 321.713951 
z
" style="fill:#9467bd;"/>
   </g>
   <g id="patch_107">
    <path d="M 200.448254 318.046457 
C 200.620043 317.405332 200.749671 316.753647 200.836307 316.095584 
C 200.922943 315.437522 200.9664 314.774492 200.9664 314.110751 
L 185.76 314.11075 
L 200.448254 318.046457 
z
"/>
   </g>
   <g id="matplotlib.axis_35"/>
   <g id="matplotlib.axis_36"/>
  </g>
  <g id="axes_29">
   <g id="patch_108">
    <path d="M 274.853297 314.11075 
C 274.853297 310.25553 273.387198 306.540979 270.754139 303.725002 
C 268.121081 300.909026 264.513211 299.197122 260.66667 298.938583 
L 259.646897 314.11075 
L 274.853297 314.11075 
z
" style="fill:#98df8a;"/>
   </g>
   <g id="patch_109">
    <path d="M 260.66667 298.938583 
C 257.8978 298.752477 255.130102 299.327839 252.664809 300.602047 
C 250.199516 301.876255 248.129434 303.80134 246.679868 306.16778 
L 259.646897 314.11075 
L 260.66667 298.938583 
z
" style="fill:#17becf;"/>
   </g>
   <g id="patch_110">
    <path d="M 246.679868 306.16778 
C 246.629442 306.250102 246.579801 306.332902 246.530951 306.416169 
C 246.482102 306.499436 246.434047 306.583166 246.386792 306.667348 
L 259.646897 314.11075 
L 246.679868 306.16778 
z
"/>
   </g>
   <g id="patch_111">
    <path d="M 246.386792 306.667348 
C 245.1428 308.883468 244.473989 311.376488 244.441722 313.917681 
C 244.409455 316.458874 245.014749 318.968072 246.202071 321.215063 
C 247.389392 323.462054 249.121284 325.375953 251.238851 326.781163 
C 253.356417 328.186373 255.792854 329.038565 258.324626 329.259552 
L 259.646897 314.11075 
L 246.386792 306.667348 
z
" style="fill:#9467bd;"/>
   </g>
   <g id="patch_112">
    <path d="M 258.324626 329.259552 
C 258.622322 329.285537 258.92072 329.30274 259.21943 329.311141 
C 259.518141 329.319541 259.817034 329.319134 260.11572 329.309921 
L 259.646897 314.11075 
L 258.324626 329.259552 
z
" style="fill:#1f77b4;"/>
   </g>
   <g id="patch_113">
    <path d="M 260.11572 329.309921 
C 260.175453 329.308079 260.235175 329.305884 260.294882 329.303338 
C 260.35459 329.300791 260.414281 329.297892 260.473954 329.294642 
L 259.646897 314.11075 
L 260.11572 329.309921 
z
" style="fill:#aec7e8;"/>
   </g>
   <g id="patch_114">
    <path d="M 260.473954 329.294642 
C 260.997356 329.266133 261.518934 329.210579 262.036599 329.128204 
C 262.554264 329.045829 263.067323 328.936742 263.573722 328.801381 
L 259.646897 314.11075 
L 260.473954 329.294642 
z
" style="fill:#c7c7c7;"/>
   </g>
   <g id="patch_115">
    <path d="M 263.573722 328.801381 
C 263.587045 328.79782 263.600364 328.79424 263.613677 328.790643 
C 263.626991 328.787045 263.6403 328.783429 263.653603 328.779796 
L 259.646897 314.11075 
L 263.573722 328.801381 
z
"/>
   </g>
   <g id="patch_116">
    <path d="M 263.653603 328.779796 
C 263.728992 328.759204 263.80422 328.738032 263.879282 328.71628 
C 263.954344 328.694529 264.029237 328.672199 264.103954 328.649293 
L 259.646897 314.11075 
L 263.653603 328.779796 
z
" style="fill:#8c564b;"/>
   </g>
   <g id="patch_117">
    <path d="M 264.103954 328.649293 
C 266.891577 327.794696 269.375461 326.156115 271.258161 323.929769 
C 273.140862 321.703423 274.344105 318.981874 274.723803 316.091025 
L 259.646897 314.11075 
L 264.103954 328.649293 
z
" style="fill:#2ca02c;"/>
   </g>
   <g id="patch_118">
    <path d="M 274.723803 316.091025 
C 274.733382 316.018098 274.742431 315.945103 274.75095 315.872046 
C 274.75947 315.798988 274.767459 315.725869 274.774917 315.652696 
L 259.646897 314.11075 
L 274.723803 316.091025 
z
" style="fill:#ff7f0e;"/>
   </g>
   <g id="patch_119">
    <path d="M 274.774917 315.652696 
C 274.783308 315.570375 274.791026 315.487988 274.798072 315.405541 
C 274.805118 315.323095 274.81149 315.240592 274.817189 315.158042 
L 259.646897 314.11075 
L 274.774917 315.652696 
z
" style="fill:#ff9896;"/>
   </g>
   <g id="patch_120">
    <path d="M 274.817189 315.158042 
C 274.820039 315.116767 274.82272 315.07548 274.825232 315.034183 
C 274.827745 314.992886 274.830089 314.951579 274.832264 314.910263 
L 259.646897 314.11075 
L 274.817189 315.158042 
z
" style="fill:#dbdb8d;"/>
   </g>
   <g id="patch_121">
    <path d="M 274.832264 314.910263 
C 274.832506 314.905672 274.832745 314.901082 274.832983 314.896491 
C 274.83322 314.8919 274.833456 314.887309 274.833689 314.882718 
L 259.646897 314.11075 
L 274.832264 314.910263 
z
" style="fill:#e377c2;"/>
   </g>
   <g id="patch_122">
    <path d="M 274.833689 314.882718 
C 274.835556 314.845989 274.83729 314.809253 274.83889 314.772512 
C 274.840491 314.735771 274.841958 314.699023 274.843292 314.662271 
L 259.646897 314.11075 
L 274.833689 314.882718 
z
" style="fill:#c49c94;"/>
   </g>
   <g id="patch_123">
    <path d="M 274.843292 314.662271 
C 274.843458 314.657677 274.843623 314.653083 274.843786 314.648489 
C 274.843948 314.643895 274.844109 314.639301 274.844267 314.634706 
L 259.646897 314.11075 
L 274.843292 314.662271 
z
"/>
   </g>
   <g id="patch_124">
    <path d="M 274.844267 314.634706 
C 274.846485 314.570386 274.848294 314.506052 274.849695 314.441709 
C 274.851095 314.377366 274.852088 314.313014 274.852671 314.248658 
L 259.646897 314.11075 
L 274.844267 314.634706 
z
" style="fill:#7f7f7f;"/>
   </g>
   <g id="patch_125">
    <path d="M 274.852671 314.248658 
C 274.852713 314.244061 274.852752 314.239464 274.85279 314.234867 
C 274.852828 314.230271 274.852863 314.225674 274.852896 314.221077 
L 259.646897 314.11075 
L 274.852671 314.248658 
z
"/>
   </g>
   <g id="patch_126">
    <path d="M 274.852896 314.221077 
C 274.85293 314.21648 274.852961 314.211883 274.85299 314.207286 
C 274.853019 314.202689 274.853046 314.198092 274.853071 314.193495 
L 259.646897 314.11075 
L 274.852896 314.221077 
z
"/>
   </g>
   <g id="patch_127">
    <path d="M 274.853071 314.193495 
C 274.853121 314.184301 274.853163 314.175107 274.853196 314.165913 
C 274.85323 314.156719 274.853255 314.147525 274.853272 314.138331 
L 259.646897 314.11075 
L 274.853071 314.193495 
z
"/>
   </g>
   <g id="patch_128">
    <path d="M 274.853272 314.138331 
C 274.85328 314.133734 274.853286 314.129137 274.85329 314.12454 
C 274.853294 314.119943 274.853297 314.115346 274.853297 314.110749 
L 259.646897 314.11075 
L 274.853272 314.138331 
z
"/>
   </g>
   <g id="matplotlib.axis_37"/>
   <g id="matplotlib.axis_38"/>
  </g>
  <g id="axes_30">
   <g id="legend_1">
    <g id="patch_129">
     <path d="M 368.782897 333.11875 
L 520.171959 333.11875 
Q 522.171959 333.11875 522.171959 331.11875 
L 522.171959 9.2 
Q 522.171959 7.2 520.171959 7.2 
L 368.782897 7.2 
Q 366.782897 7.2 366.782897 9.2 
L 366.782897 331.11875 
Q 366.782897 333.11875 368.782897 333.11875 
z
" style="fill:#ffffff;opacity:0.8;stroke:#cccccc;stroke-linejoin:miter;"/>
    </g>
    <g id="line2d_1"/>
    <g id="line2d_2">
     <defs>
      <path d="M 0 3 
C 0.795609 3 1.55874 2.683901 2.12132 2.12132 
C 2.683901 1.55874 3 0.795609 3 0 
C 3 -0.795609 2.683901 -1.55874 2.12132 -2.12132 
C 1.55874 -2.683901 0.795609 -3 0 -3 
C -0.795609 -3 -1.55874 -2.683901 -2.12132 -2.12132 
C -2.683901 -1.55874 -3 -0.795609 -3 0 
C -3 0.795609 -2.683901 1.55874 -2.12132 2.12132 
C -1.55874 2.683901 -0.795609 3 0 3 
z
" id="m436ee106e7" style="stroke:#1f77b4;"/>
     </defs>
     <g>
      <use style="fill:#1f77b4;stroke:#1f77b4;" x="380.782897" xlink:href="#m436ee106e7" y="15.298437"/>
     </g>
    </g>
    <g id="text_1">
     <!-- Aenigmarchaeota -->
     <g transform="translate(398.782897 18.798437)scale(0.1 -0.1)">
      <defs>
       <path d="M 2188 4044 
L 1331 1722 
L 3047 1722 
L 2188 4044 
z
M 1831 4666 
L 2547 4666 
L 4325 0 
L 3669 0 
L 3244 1197 
L 1141 1197 
L 716 0 
L 50 0 
L 1831 4666 
z
" id="DejaVuSans-41" transform="scale(0.015625)"/>
       <path d="M 3597 1894 
L 3597 1613 
L 953 1613 
Q 991 1019 1311 708 
Q 1631 397 2203 397 
Q 2534 397 2845 478 
Q 3156 559 3463 722 
L 3463 178 
Q 3153 47 2828 -22 
Q 2503 -91 2169 -91 
Q 1331 -91 842 396 
Q 353 884 353 1716 
Q 353 2575 817 3079 
Q 1281 3584 2069 3584 
Q 2775 3584 3186 3129 
Q 3597 2675 3597 1894 
z
M 3022 2063 
Q 3016 2534 2758 2815 
Q 2500 3097 2075 3097 
Q 1594 3097 1305 2825 
Q 1016 2553 972 2059 
L 3022 2063 
z
" id="DejaVuSans-65" transform="scale(0.015625)"/>
       <path d="M 3513 2113 
L 3513 0 
L 2938 0 
L 2938 2094 
Q 2938 2591 2744 2837 
Q 2550 3084 2163 3084 
Q 1697 3084 1428 2787 
Q 1159 2491 1159 1978 
L 1159 0 
L 581 0 
L 581 3500 
L 1159 3500 
L 1159 2956 
Q 1366 3272 1645 3428 
Q 1925 3584 2291 3584 
Q 2894 3584 3203 3211 
Q 3513 2838 3513 2113 
z
" id="DejaVuSans-6e" transform="scale(0.015625)"/>
       <path d="M 603 3500 
L 1178 3500 
L 1178 0 
L 603 0 
L 603 3500 
z
M 603 4863 
L 1178 4863 
L 1178 4134 
L 603 4134 
L 603 4863 
z
" id="DejaVuSans-69" transform="scale(0.015625)"/>
       <path d="M 2906 1791 
Q 2906 2416 2648 2759 
Q 2391 3103 1925 3103 
Q 1463 3103 1205 2759 
Q 947 2416 947 1791 
Q 947 1169 1205 825 
Q 1463 481 1925 481 
Q 2391 481 2648 825 
Q 2906 1169 2906 1791 
z
M 3481 434 
Q 3481 -459 3084 -895 
Q 2688 -1331 1869 -1331 
Q 1566 -1331 1297 -1286 
Q 1028 -1241 775 -1147 
L 775 -588 
Q 1028 -725 1275 -790 
Q 1522 -856 1778 -856 
Q 2344 -856 2625 -561 
Q 2906 -266 2906 331 
L 2906 616 
Q 2728 306 2450 153 
Q 2172 0 1784 0 
Q 1141 0 747 490 
Q 353 981 353 1791 
Q 353 2603 747 3093 
Q 1141 3584 1784 3584 
Q 2172 3584 2450 3431 
Q 2728 3278 2906 2969 
L 2906 3500 
L 3481 3500 
L 3481 434 
z
" id="DejaVuSans-67" transform="scale(0.015625)"/>
       <path d="M 3328 2828 
Q 3544 3216 3844 3400 
Q 4144 3584 4550 3584 
Q 5097 3584 5394 3201 
Q 5691 2819 5691 2113 
L 5691 0 
L 5113 0 
L 5113 2094 
Q 5113 2597 4934 2840 
Q 4756 3084 4391 3084 
Q 3944 3084 3684 2787 
Q 3425 2491 3425 1978 
L 3425 0 
L 2847 0 
L 2847 2094 
Q 2847 2600 2669 2842 
Q 2491 3084 2119 3084 
Q 1678 3084 1418 2786 
Q 1159 2488 1159 1978 
L 1159 0 
L 581 0 
L 581 3500 
L 1159 3500 
L 1159 2956 
Q 1356 3278 1631 3431 
Q 1906 3584 2284 3584 
Q 2666 3584 2933 3390 
Q 3200 3197 3328 2828 
z
" id="DejaVuSans-6d" transform="scale(0.015625)"/>
       <path d="M 2194 1759 
Q 1497 1759 1228 1600 
Q 959 1441 959 1056 
Q 959 750 1161 570 
Q 1363 391 1709 391 
Q 2188 391 2477 730 
Q 2766 1069 2766 1631 
L 2766 1759 
L 2194 1759 
z
M 3341 1997 
L 3341 0 
L 2766 0 
L 2766 531 
Q 2569 213 2275 61 
Q 1981 -91 1556 -91 
Q 1019 -91 701 211 
Q 384 513 384 1019 
Q 384 1609 779 1909 
Q 1175 2209 1959 2209 
L 2766 2209 
L 2766 2266 
Q 2766 2663 2505 2880 
Q 2244 3097 1772 3097 
Q 1472 3097 1187 3025 
Q 903 2953 641 2809 
L 641 3341 
Q 956 3463 1253 3523 
Q 1550 3584 1831 3584 
Q 2591 3584 2966 3190 
Q 3341 2797 3341 1997 
z
" id="DejaVuSans-61" transform="scale(0.015625)"/>
       <path d="M 2631 2963 
Q 2534 3019 2420 3045 
Q 2306 3072 2169 3072 
Q 1681 3072 1420 2755 
Q 1159 2438 1159 1844 
L 1159 0 
L 581 0 
L 581 3500 
L 1159 3500 
L 1159 2956 
Q 1341 3275 1631 3429 
Q 1922 3584 2338 3584 
Q 2397 3584 2469 3576 
Q 2541 3569 2628 3553 
L 2631 2963 
z
" id="DejaVuSans-72" transform="scale(0.015625)"/>
       <path d="M 3122 3366 
L 3122 2828 
Q 2878 2963 2633 3030 
Q 2388 3097 2138 3097 
Q 1578 3097 1268 2742 
Q 959 2388 959 1747 
Q 959 1106 1268 751 
Q 1578 397 2138 397 
Q 2388 397 2633 464 
Q 2878 531 3122 666 
L 3122 134 
Q 2881 22 2623 -34 
Q 2366 -91 2075 -91 
Q 1284 -91 818 406 
Q 353 903 353 1747 
Q 353 2603 823 3093 
Q 1294 3584 2113 3584 
Q 2378 3584 2631 3529 
Q 2884 3475 3122 3366 
z
" id="DejaVuSans-63" transform="scale(0.015625)"/>
       <path d="M 3513 2113 
L 3513 0 
L 2938 0 
L 2938 2094 
Q 2938 2591 2744 2837 
Q 2550 3084 2163 3084 
Q 1697 3084 1428 2787 
Q 1159 2491 1159 1978 
L 1159 0 
L 581 0 
L 581 4863 
L 1159 4863 
L 1159 2956 
Q 1366 3272 1645 3428 
Q 1925 3584 2291 3584 
Q 2894 3584 3203 3211 
Q 3513 2838 3513 2113 
z
" id="DejaVuSans-68" transform="scale(0.015625)"/>
       <path d="M 1959 3097 
Q 1497 3097 1228 2736 
Q 959 2375 959 1747 
Q 959 1119 1226 758 
Q 1494 397 1959 397 
Q 2419 397 2687 759 
Q 2956 1122 2956 1747 
Q 2956 2369 2687 2733 
Q 2419 3097 1959 3097 
z
M 1959 3584 
Q 2709 3584 3137 3096 
Q 3566 2609 3566 1747 
Q 3566 888 3137 398 
Q 2709 -91 1959 -91 
Q 1206 -91 779 398 
Q 353 888 353 1747 
Q 353 2609 779 3096 
Q 1206 3584 1959 3584 
z
" id="DejaVuSans-6f" transform="scale(0.015625)"/>
       <path d="M 1172 4494 
L 1172 3500 
L 2356 3500 
L 2356 3053 
L 1172 3053 
L 1172 1153 
Q 1172 725 1289 603 
Q 1406 481 1766 481 
L 2356 481 
L 2356 0 
L 1766 0 
Q 1100 0 847 248 
Q 594 497 594 1153 
L 594 3053 
L 172 3053 
L 172 3500 
L 594 3500 
L 594 4494 
L 1172 4494 
z
" id="DejaVuSans-74" transform="scale(0.015625)"/>
      </defs>
      <use xlink:href="#DejaVuSans-41"/>
      <use x="66.658203" xlink:href="#DejaVuSans-65"/>
      <use x="128.181641" xlink:href="#DejaVuSans-6e"/>
      <use x="191.560547" xlink:href="#DejaVuSans-69"/>
      <use x="219.34375" xlink:href="#DejaVuSans-67"/>
      <use x="282.820312" xlink:href="#DejaVuSans-6d"/>
      <use x="380.232422" xlink:href="#DejaVuSans-61"/>
      <use x="441.511719" xlink:href="#DejaVuSans-72"/>
      <use x="480.375" xlink:href="#DejaVuSans-63"/>
      <use x="535.355469" xlink:href="#DejaVuSans-68"/>
      <use x="598.734375" xlink:href="#DejaVuSans-61"/>
      <use x="660.013672" xlink:href="#DejaVuSans-65"/>
      <use x="721.537109" xlink:href="#DejaVuSans-6f"/>
      <use x="782.71875" xlink:href="#DejaVuSans-74"/>
      <use x="821.927734" xlink:href="#DejaVuSans-61"/>
     </g>
    </g>
    <g id="line2d_3"/>
    <g id="line2d_4">
     <defs>
      <path d="M 0 3 
C 0.795609 3 1.55874 2.683901 2.12132 2.12132 
C 2.683901 1.55874 3 0.795609 3 0 
C 3 -0.795609 2.683901 -1.55874 2.12132 -2.12132 
C 1.55874 -2.683901 0.795609 -3 0 -3 
C -0.795609 -3 -1.55874 -2.683901 -2.12132 -2.12132 
C -2.683901 -1.55874 -3 -0.795609 -3 0 
C -3 0.795609 -2.683901 1.55874 -2.12132 2.12132 
C -1.55874 2.683901 -0.795609 3 0 3 
z
" id="mb1bd7ed049" style="stroke:#aec7e8;"/>
     </defs>
     <g>
      <use style="fill:#aec7e8;stroke:#aec7e8;" x="380.782897" xlink:href="#mb1bd7ed049" y="29.976562"/>
     </g>
    </g>
    <g id="text_2">
     <!-- Altiarchaeota -->
     <g transform="translate(398.782897 33.476562)scale(0.1 -0.1)">
      <defs>
       <path d="M 603 4863 
L 1178 4863 
L 1178 0 
L 603 0 
L 603 4863 
z
" id="DejaVuSans-6c" transform="scale(0.015625)"/>
      </defs>
      <use xlink:href="#DejaVuSans-41"/>
      <use x="68.408203" xlink:href="#DejaVuSans-6c"/>
      <use x="96.191406" xlink:href="#DejaVuSans-74"/>
      <use x="135.400391" xlink:href="#DejaVuSans-69"/>
      <use x="163.183594" xlink:href="#DejaVuSans-61"/>
      <use x="224.462891" xlink:href="#DejaVuSans-72"/>
      <use x="263.326172" xlink:href="#DejaVuSans-63"/>
      <use x="318.306641" xlink:href="#DejaVuSans-68"/>
      <use x="381.685547" xlink:href="#DejaVuSans-61"/>
      <use x="442.964844" xlink:href="#DejaVuSans-65"/>
      <use x="504.488281" xlink:href="#DejaVuSans-6f"/>
      <use x="565.669922" xlink:href="#DejaVuSans-74"/>
      <use x="604.878906" xlink:href="#DejaVuSans-61"/>
     </g>
    </g>
    <g id="line2d_5"/>
    <g id="line2d_6">
     <defs>
      <path d="M 0 3 
C 0.795609 3 1.55874 2.683901 2.12132 2.12132 
C 2.683901 1.55874 3 0.795609 3 0 
C 3 -0.795609 2.683901 -1.55874 2.12132 -2.12132 
C 1.55874 -2.683901 0.795609 -3 0 -3 
C -0.795609 -3 -1.55874 -2.683901 -2.12132 -2.12132 
C -2.683901 -1.55874 -3 -0.795609 -3 0 
C -3 0.795609 -2.683901 1.55874 -2.12132 2.12132 
C -1.55874 2.683901 -0.795609 3 0 3 
z
" id="m7d0bf47e1d" style="stroke:#ff7f0e;"/>
     </defs>
     <g>
      <use style="fill:#ff7f0e;stroke:#ff7f0e;" x="380.782897" xlink:href="#m7d0bf47e1d" y="44.654687"/>
     </g>
    </g>
    <g id="text_3">
     <!-- Asgardarchaeota -->
     <g transform="translate(398.782897 48.154687)scale(0.1 -0.1)">
      <defs>
       <path d="M 2834 3397 
L 2834 2853 
Q 2591 2978 2328 3040 
Q 2066 3103 1784 3103 
Q 1356 3103 1142 2972 
Q 928 2841 928 2578 
Q 928 2378 1081 2264 
Q 1234 2150 1697 2047 
L 1894 2003 
Q 2506 1872 2764 1633 
Q 3022 1394 3022 966 
Q 3022 478 2636 193 
Q 2250 -91 1575 -91 
Q 1294 -91 989 -36 
Q 684 19 347 128 
L 347 722 
Q 666 556 975 473 
Q 1284 391 1588 391 
Q 1994 391 2212 530 
Q 2431 669 2431 922 
Q 2431 1156 2273 1281 
Q 2116 1406 1581 1522 
L 1381 1569 
Q 847 1681 609 1914 
Q 372 2147 372 2553 
Q 372 3047 722 3315 
Q 1072 3584 1716 3584 
Q 2034 3584 2315 3537 
Q 2597 3491 2834 3397 
z
" id="DejaVuSans-73" transform="scale(0.015625)"/>
       <path d="M 2906 2969 
L 2906 4863 
L 3481 4863 
L 3481 0 
L 2906 0 
L 2906 525 
Q 2725 213 2448 61 
Q 2172 -91 1784 -91 
Q 1150 -91 751 415 
Q 353 922 353 1747 
Q 353 2572 751 3078 
Q 1150 3584 1784 3584 
Q 2172 3584 2448 3432 
Q 2725 3281 2906 2969 
z
M 947 1747 
Q 947 1113 1208 752 
Q 1469 391 1925 391 
Q 2381 391 2643 752 
Q 2906 1113 2906 1747 
Q 2906 2381 2643 2742 
Q 2381 3103 1925 3103 
Q 1469 3103 1208 2742 
Q 947 2381 947 1747 
z
" id="DejaVuSans-64" transform="scale(0.015625)"/>
      </defs>
      <use xlink:href="#DejaVuSans-41"/>
      <use x="68.408203" xlink:href="#DejaVuSans-73"/>
      <use x="120.507812" xlink:href="#DejaVuSans-67"/>
      <use x="183.984375" xlink:href="#DejaVuSans-61"/>
      <use x="245.263672" xlink:href="#DejaVuSans-72"/>
      <use x="284.626953" xlink:href="#DejaVuSans-64"/>
      <use x="348.103516" xlink:href="#DejaVuSans-61"/>
      <use x="409.382812" xlink:href="#DejaVuSans-72"/>
      <use x="448.246094" xlink:href="#DejaVuSans-63"/>
      <use x="503.226562" xlink:href="#DejaVuSans-68"/>
      <use x="566.605469" xlink:href="#DejaVuSans-61"/>
      <use x="627.884766" xlink:href="#DejaVuSans-65"/>
      <use x="689.408203" xlink:href="#DejaVuSans-6f"/>
      <use x="750.589844" xlink:href="#DejaVuSans-74"/>
      <use x="789.798828" xlink:href="#DejaVuSans-61"/>
     </g>
    </g>
    <g id="line2d_7"/>
    <g id="line2d_8">
     <defs>
      <path d="M 0 3 
C 0.795609 3 1.55874 2.683901 2.12132 2.12132 
C 2.683901 1.55874 3 0.795609 3 0 
C 3 -0.795609 2.683901 -1.55874 2.12132 -2.12132 
C 1.55874 -2.683901 0.795609 -3 0 -3 
C -0.795609 -3 -1.55874 -2.683901 -2.12132 -2.12132 
C -2.683901 -1.55874 -3 -0.795609 -3 0 
C -3 0.795609 -2.683901 1.55874 -2.12132 2.12132 
C -1.55874 2.683901 -0.795609 3 0 3 
z
" id="md5a30c1a21" style="stroke:#2ca02c;"/>
     </defs>
     <g>
      <use style="fill:#2ca02c;stroke:#2ca02c;" x="380.782897" xlink:href="#md5a30c1a21" y="59.332812"/>
     </g>
    </g>
    <g id="text_4">
     <!-- Crenarchaeota -->
     <g transform="translate(398.782897 62.832812)scale(0.1 -0.1)">
      <defs>
       <path d="M 4122 4306 
L 4122 3641 
Q 3803 3938 3442 4084 
Q 3081 4231 2675 4231 
Q 1875 4231 1450 3742 
Q 1025 3253 1025 2328 
Q 1025 1406 1450 917 
Q 1875 428 2675 428 
Q 3081 428 3442 575 
Q 3803 722 4122 1019 
L 4122 359 
Q 3791 134 3420 21 
Q 3050 -91 2638 -91 
Q 1578 -91 968 557 
Q 359 1206 359 2328 
Q 359 3453 968 4101 
Q 1578 4750 2638 4750 
Q 3056 4750 3426 4639 
Q 3797 4528 4122 4306 
z
" id="DejaVuSans-43" transform="scale(0.015625)"/>
      </defs>
      <use xlink:href="#DejaVuSans-43"/>
      <use x="69.824219" xlink:href="#DejaVuSans-72"/>
      <use x="108.6875" xlink:href="#DejaVuSans-65"/>
      <use x="170.210938" xlink:href="#DejaVuSans-6e"/>
      <use x="233.589844" xlink:href="#DejaVuSans-61"/>
      <use x="294.869141" xlink:href="#DejaVuSans-72"/>
      <use x="333.732422" xlink:href="#DejaVuSans-63"/>
      <use x="388.712891" xlink:href="#DejaVuSans-68"/>
      <use x="452.091797" xlink:href="#DejaVuSans-61"/>
      <use x="513.371094" xlink:href="#DejaVuSans-65"/>
      <use x="574.894531" xlink:href="#DejaVuSans-6f"/>
      <use x="636.076172" xlink:href="#DejaVuSans-74"/>
      <use x="675.285156" xlink:href="#DejaVuSans-61"/>
     </g>
    </g>
    <g id="line2d_9"/>
    <g id="line2d_10">
     <defs>
      <path d="M 0 3 
C 0.795609 3 1.55874 2.683901 2.12132 2.12132 
C 2.683901 1.55874 3 0.795609 3 0 
C 3 -0.795609 2.683901 -1.55874 2.12132 -2.12132 
C 1.55874 -2.683901 0.795609 -3 0 -3 
C -0.795609 -3 -1.55874 -2.683901 -2.12132 -2.12132 
C -2.683901 -1.55874 -3 -0.795609 -3 0 
C -3 0.795609 -2.683901 1.55874 -2.12132 2.12132 
C -1.55874 2.683901 -0.795609 3 0 3 
z
" id="ma098dcf0c0" style="stroke:#98df8a;"/>
     </defs>
     <g>
      <use style="fill:#98df8a;stroke:#98df8a;" x="380.782897" xlink:href="#ma098dcf0c0" y="74.010938"/>
     </g>
    </g>
    <g id="text_5">
     <!-- Euryarchaeota -->
     <g transform="translate(398.782897 77.510938)scale(0.1 -0.1)">
      <defs>
       <path d="M 628 4666 
L 3578 4666 
L 3578 4134 
L 1259 4134 
L 1259 2753 
L 3481 2753 
L 3481 2222 
L 1259 2222 
L 1259 531 
L 3634 531 
L 3634 0 
L 628 0 
L 628 4666 
z
" id="DejaVuSans-45" transform="scale(0.015625)"/>
       <path d="M 544 1381 
L 544 3500 
L 1119 3500 
L 1119 1403 
Q 1119 906 1312 657 
Q 1506 409 1894 409 
Q 2359 409 2629 706 
Q 2900 1003 2900 1516 
L 2900 3500 
L 3475 3500 
L 3475 0 
L 2900 0 
L 2900 538 
Q 2691 219 2414 64 
Q 2138 -91 1772 -91 
Q 1169 -91 856 284 
Q 544 659 544 1381 
z
M 1991 3584 
L 1991 3584 
z
" id="DejaVuSans-75" transform="scale(0.015625)"/>
       <path d="M 2059 -325 
Q 1816 -950 1584 -1140 
Q 1353 -1331 966 -1331 
L 506 -1331 
L 506 -850 
L 844 -850 
Q 1081 -850 1212 -737 
Q 1344 -625 1503 -206 
L 1606 56 
L 191 3500 
L 800 3500 
L 1894 763 
L 2988 3500 
L 3597 3500 
L 2059 -325 
z
" id="DejaVuSans-79" transform="scale(0.015625)"/>
      </defs>
      <use xlink:href="#DejaVuSans-45"/>
      <use x="63.183594" xlink:href="#DejaVuSans-75"/>
      <use x="126.5625" xlink:href="#DejaVuSans-72"/>
      <use x="167.675781" xlink:href="#DejaVuSans-79"/>
      <use x="226.855469" xlink:href="#DejaVuSans-61"/>
      <use x="288.134766" xlink:href="#DejaVuSans-72"/>
      <use x="326.998047" xlink:href="#DejaVuSans-63"/>
      <use x="381.978516" xlink:href="#DejaVuSans-68"/>
      <use x="445.357422" xlink:href="#DejaVuSans-61"/>
      <use x="506.636719" xlink:href="#DejaVuSans-65"/>
      <use x="568.160156" xlink:href="#DejaVuSans-6f"/>
      <use x="629.341797" xlink:href="#DejaVuSans-74"/>
      <use x="668.550781" xlink:href="#DejaVuSans-61"/>
     </g>
    </g>
    <g id="line2d_11"/>
    <g id="line2d_12">
     <defs>
      <path d="M 0 3 
C 0.795609 3 1.55874 2.683901 2.12132 2.12132 
C 2.683901 1.55874 3 0.795609 3 0 
C 3 -0.795609 2.683901 -1.55874 2.12132 -2.12132 
C 1.55874 -2.683901 0.795609 -3 0 -3 
C -0.795609 -3 -1.55874 -2.683901 -2.12132 -2.12132 
C -2.683901 -1.55874 -3 -0.795609 -3 0 
C -3 0.795609 -2.683901 1.55874 -2.12132 2.12132 
C -1.55874 2.683901 -0.795609 3 0 3 
z
" id="ma677feceac" style="stroke:#ff9896;"/>
     </defs>
     <g>
      <use style="fill:#ff9896;stroke:#ff9896;" x="380.782897" xlink:href="#ma677feceac" y="88.689062"/>
     </g>
    </g>
    <g id="text_6">
     <!-- Hadarchaeota -->
     <g transform="translate(398.782897 92.189062)scale(0.1 -0.1)">
      <defs>
       <path d="M 628 4666 
L 1259 4666 
L 1259 2753 
L 3553 2753 
L 3553 4666 
L 4184 4666 
L 4184 0 
L 3553 0 
L 3553 2222 
L 1259 2222 
L 1259 0 
L 628 0 
L 628 4666 
z
" id="DejaVuSans-48" transform="scale(0.015625)"/>
      </defs>
      <use xlink:href="#DejaVuSans-48"/>
      <use x="75.195312" xlink:href="#DejaVuSans-61"/>
      <use x="136.474609" xlink:href="#DejaVuSans-64"/>
      <use x="199.951172" xlink:href="#DejaVuSans-61"/>
      <use x="261.230469" xlink:href="#DejaVuSans-72"/>
      <use x="300.09375" xlink:href="#DejaVuSans-63"/>
      <use x="355.074219" xlink:href="#DejaVuSans-68"/>
      <use x="418.453125" xlink:href="#DejaVuSans-61"/>
      <use x="479.732422" xlink:href="#DejaVuSans-65"/>
      <use x="541.255859" xlink:href="#DejaVuSans-6f"/>
      <use x="602.4375" xlink:href="#DejaVuSans-74"/>
      <use x="641.646484" xlink:href="#DejaVuSans-61"/>
     </g>
    </g>
    <g id="line2d_13"/>
    <g id="line2d_14">
     <defs>
      <path d="M 0 3 
C 0.795609 3 1.55874 2.683901 2.12132 2.12132 
C 2.683901 1.55874 3 0.795609 3 0 
C 3 -0.795609 2.683901 -1.55874 2.12132 -2.12132 
C 1.55874 -2.683901 0.795609 -3 0 -3 
C -0.795609 -3 -1.55874 -2.683901 -2.12132 -2.12132 
C -2.683901 -1.55874 -3 -0.795609 -3 0 
C -3 0.795609 -2.683901 1.55874 -2.12132 2.12132 
C -1.55874 2.683901 -0.795609 3 0 3 
z
" id="m6d4a10f707" style="stroke:#9467bd;"/>
     </defs>
     <g>
      <use style="fill:#9467bd;stroke:#9467bd;" x="380.782897" xlink:href="#m6d4a10f707" y="103.367188"/>
     </g>
    </g>
    <g id="text_7">
     <!-- Halobacterota -->
     <g transform="translate(398.782897 106.867188)scale(0.1 -0.1)">
      <defs>
       <path d="M 3116 1747 
Q 3116 2381 2855 2742 
Q 2594 3103 2138 3103 
Q 1681 3103 1420 2742 
Q 1159 2381 1159 1747 
Q 1159 1113 1420 752 
Q 1681 391 2138 391 
Q 2594 391 2855 752 
Q 3116 1113 3116 1747 
z
M 1159 2969 
Q 1341 3281 1617 3432 
Q 1894 3584 2278 3584 
Q 2916 3584 3314 3078 
Q 3713 2572 3713 1747 
Q 3713 922 3314 415 
Q 2916 -91 2278 -91 
Q 1894 -91 1617 61 
Q 1341 213 1159 525 
L 1159 0 
L 581 0 
L 581 4863 
L 1159 4863 
L 1159 2969 
z
" id="DejaVuSans-62" transform="scale(0.015625)"/>
      </defs>
      <use xlink:href="#DejaVuSans-48"/>
      <use x="75.195312" xlink:href="#DejaVuSans-61"/>
      <use x="136.474609" xlink:href="#DejaVuSans-6c"/>
      <use x="164.257812" xlink:href="#DejaVuSans-6f"/>
      <use x="225.439453" xlink:href="#DejaVuSans-62"/>
      <use x="288.916016" xlink:href="#DejaVuSans-61"/>
      <use x="350.195312" xlink:href="#DejaVuSans-63"/>
      <use x="405.175781" xlink:href="#DejaVuSans-74"/>
      <use x="444.384766" xlink:href="#DejaVuSans-65"/>
      <use x="505.908203" xlink:href="#DejaVuSans-72"/>
      <use x="544.771484" xlink:href="#DejaVuSans-6f"/>
      <use x="605.953125" xlink:href="#DejaVuSans-74"/>
      <use x="645.162109" xlink:href="#DejaVuSans-61"/>
     </g>
    </g>
    <g id="line2d_15"/>
    <g id="line2d_16">
     <defs>
      <path d="M 0 3 
C 0.795609 3 1.55874 2.683901 2.12132 2.12132 
C 2.683901 1.55874 3 0.795609 3 0 
C 3 -0.795609 2.683901 -1.55874 2.12132 -2.12132 
C 1.55874 -2.683901 0.795609 -3 0 -3 
C -0.795609 -3 -1.55874 -2.683901 -2.12132 -2.12132 
C -2.683901 -1.55874 -3 -0.795609 -3 0 
C -3 0.795609 -2.683901 1.55874 -2.12132 2.12132 
C -1.55874 2.683901 -0.795609 3 0 3 
z
" id="m4fb79ac041" style="stroke:#8c564b;"/>
     </defs>
     <g>
      <use style="fill:#8c564b;stroke:#8c564b;" x="380.782897" xlink:href="#m4fb79ac041" y="118.045312"/>
     </g>
    </g>
    <g id="text_8">
     <!-- Iainarchaeota -->
     <g transform="translate(398.782897 121.545312)scale(0.1 -0.1)">
      <defs>
       <path d="M 628 4666 
L 1259 4666 
L 1259 0 
L 628 0 
L 628 4666 
z
" id="DejaVuSans-49" transform="scale(0.015625)"/>
      </defs>
      <use xlink:href="#DejaVuSans-49"/>
      <use x="29.492188" xlink:href="#DejaVuSans-61"/>
      <use x="90.771484" xlink:href="#DejaVuSans-69"/>
      <use x="118.554688" xlink:href="#DejaVuSans-6e"/>
      <use x="181.933594" xlink:href="#DejaVuSans-61"/>
      <use x="243.212891" xlink:href="#DejaVuSans-72"/>
      <use x="282.076172" xlink:href="#DejaVuSans-63"/>
      <use x="337.056641" xlink:href="#DejaVuSans-68"/>
      <use x="400.435547" xlink:href="#DejaVuSans-61"/>
      <use x="461.714844" xlink:href="#DejaVuSans-65"/>
      <use x="523.238281" xlink:href="#DejaVuSans-6f"/>
      <use x="584.419922" xlink:href="#DejaVuSans-74"/>
      <use x="623.628906" xlink:href="#DejaVuSans-61"/>
     </g>
    </g>
    <g id="line2d_17"/>
    <g id="line2d_18">
     <defs>
      <path d="M 0 3 
C 0.795609 3 1.55874 2.683901 2.12132 2.12132 
C 2.683901 1.55874 3 0.795609 3 0 
C 3 -0.795609 2.683901 -1.55874 2.12132 -2.12132 
C 1.55874 -2.683901 0.795609 -3 0 -3 
C -0.795609 -3 -1.55874 -2.683901 -2.12132 -2.12132 
C -2.683901 -1.55874 -3 -0.795609 -3 0 
C -3 0.795609 -2.683901 1.55874 -2.12132 2.12132 
C -1.55874 2.683901 -0.795609 3 0 3 
z
" id="m164e457e97" style="stroke:#c49c94;"/>
     </defs>
     <g>
      <use style="fill:#c49c94;stroke:#c49c94;" x="380.782897" xlink:href="#m164e457e97" y="132.723437"/>
     </g>
    </g>
    <g id="text_9">
     <!-- Korarchaeota -->
     <g transform="translate(398.782897 136.223437)scale(0.1 -0.1)">
      <defs>
       <path d="M 628 4666 
L 1259 4666 
L 1259 2694 
L 3353 4666 
L 4166 4666 
L 1850 2491 
L 4331 0 
L 3500 0 
L 1259 2247 
L 1259 0 
L 628 0 
L 628 4666 
z
" id="DejaVuSans-4b" transform="scale(0.015625)"/>
      </defs>
      <use xlink:href="#DejaVuSans-4b"/>
      <use x="60.576172" xlink:href="#DejaVuSans-6f"/>
      <use x="121.757812" xlink:href="#DejaVuSans-72"/>
      <use x="162.871094" xlink:href="#DejaVuSans-61"/>
      <use x="224.150391" xlink:href="#DejaVuSans-72"/>
      <use x="263.013672" xlink:href="#DejaVuSans-63"/>
      <use x="317.994141" xlink:href="#DejaVuSans-68"/>
      <use x="381.373047" xlink:href="#DejaVuSans-61"/>
      <use x="442.652344" xlink:href="#DejaVuSans-65"/>
      <use x="504.175781" xlink:href="#DejaVuSans-6f"/>
      <use x="565.357422" xlink:href="#DejaVuSans-74"/>
      <use x="604.566406" xlink:href="#DejaVuSans-61"/>
     </g>
    </g>
    <g id="line2d_19"/>
    <g id="line2d_20">
     <defs>
      <path d="M 0 3 
C 0.795609 3 1.55874 2.683901 2.12132 2.12132 
C 2.683901 1.55874 3 0.795609 3 0 
C 3 -0.795609 2.683901 -1.55874 2.12132 -2.12132 
C 1.55874 -2.683901 0.795609 -3 0 -3 
C -0.795609 -3 -1.55874 -2.683901 -2.12132 -2.12132 
C -2.683901 -1.55874 -3 -0.795609 -3 0 
C -3 0.795609 -2.683901 1.55874 -2.12132 2.12132 
C -1.55874 2.683901 -0.795609 3 0 3 
z
" id="m328326196e" style="stroke:#e377c2;"/>
     </defs>
     <g>
      <use style="fill:#e377c2;stroke:#e377c2;" x="380.782897" xlink:href="#m328326196e" y="147.401562"/>
     </g>
    </g>
    <g id="text_10">
     <!-- Methanonatronarchaeia -->
     <g transform="translate(398.782897 150.901562)scale(0.1 -0.1)">
      <defs>
       <path d="M 628 4666 
L 1569 4666 
L 2759 1491 
L 3956 4666 
L 4897 4666 
L 4897 0 
L 4281 0 
L 4281 4097 
L 3078 897 
L 2444 897 
L 1241 4097 
L 1241 0 
L 628 0 
L 628 4666 
z
" id="DejaVuSans-4d" transform="scale(0.015625)"/>
      </defs>
      <use xlink:href="#DejaVuSans-4d"/>
      <use x="86.279297" xlink:href="#DejaVuSans-65"/>
      <use x="147.802734" xlink:href="#DejaVuSans-74"/>
      <use x="187.011719" xlink:href="#DejaVuSans-68"/>
      <use x="250.390625" xlink:href="#DejaVuSans-61"/>
      <use x="311.669922" xlink:href="#DejaVuSans-6e"/>
      <use x="375.048828" xlink:href="#DejaVuSans-6f"/>
      <use x="436.230469" xlink:href="#DejaVuSans-6e"/>
      <use x="499.609375" xlink:href="#DejaVuSans-61"/>
      <use x="560.888672" xlink:href="#DejaVuSans-74"/>
      <use x="600.097656" xlink:href="#DejaVuSans-72"/>
      <use x="638.960938" xlink:href="#DejaVuSans-6f"/>
      <use x="700.142578" xlink:href="#DejaVuSans-6e"/>
      <use x="763.521484" xlink:href="#DejaVuSans-61"/>
      <use x="824.800781" xlink:href="#DejaVuSans-72"/>
      <use x="863.664062" xlink:href="#DejaVuSans-63"/>
      <use x="918.644531" xlink:href="#DejaVuSans-68"/>
      <use x="982.023438" xlink:href="#DejaVuSans-61"/>
      <use x="1043.302734" xlink:href="#DejaVuSans-65"/>
      <use x="1104.826172" xlink:href="#DejaVuSans-69"/>
      <use x="1132.609375" xlink:href="#DejaVuSans-61"/>
     </g>
    </g>
    <g id="line2d_21"/>
    <g id="line2d_22">
     <defs>
      <path d="M 0 3 
C 0.795609 3 1.55874 2.683901 2.12132 2.12132 
C 2.683901 1.55874 3 0.795609 3 0 
C 3 -0.795609 2.683901 -1.55874 2.12132 -2.12132 
C 1.55874 -2.683901 0.795609 -3 0 -3 
C -0.795609 -3 -1.55874 -2.683901 -2.12132 -2.12132 
C -2.683901 -1.55874 -3 -0.795609 -3 0 
C -3 0.795609 -2.683901 1.55874 -2.12132 2.12132 
C -1.55874 2.683901 -0.795609 3 0 3 
z
" id="md1a3d9c1b9" style="stroke:#7f7f7f;"/>
     </defs>
     <g>
      <use style="fill:#7f7f7f;stroke:#7f7f7f;" x="380.782897" xlink:href="#md1a3d9c1b9" y="162.079687"/>
     </g>
    </g>
    <g id="text_11">
     <!-- Micrarchaeota -->
     <g transform="translate(398.782897 165.579687)scale(0.1 -0.1)">
      <use xlink:href="#DejaVuSans-4d"/>
      <use x="86.279297" xlink:href="#DejaVuSans-69"/>
      <use x="114.0625" xlink:href="#DejaVuSans-63"/>
      <use x="169.042969" xlink:href="#DejaVuSans-72"/>
      <use x="210.15625" xlink:href="#DejaVuSans-61"/>
      <use x="271.435547" xlink:href="#DejaVuSans-72"/>
      <use x="310.298828" xlink:href="#DejaVuSans-63"/>
      <use x="365.279297" xlink:href="#DejaVuSans-68"/>
      <use x="428.658203" xlink:href="#DejaVuSans-61"/>
      <use x="489.9375" xlink:href="#DejaVuSans-65"/>
      <use x="551.460938" xlink:href="#DejaVuSans-6f"/>
      <use x="612.642578" xlink:href="#DejaVuSans-74"/>
      <use x="651.851562" xlink:href="#DejaVuSans-61"/>
     </g>
    </g>
    <g id="line2d_23"/>
    <g id="line2d_24">
     <defs>
      <path d="M 0 3 
C 0.795609 3 1.55874 2.683901 2.12132 2.12132 
C 2.683901 1.55874 3 0.795609 3 0 
C 3 -0.795609 2.683901 -1.55874 2.12132 -2.12132 
C 1.55874 -2.683901 0.795609 -3 0 -3 
C -0.795609 -3 -1.55874 -2.683901 -2.12132 -2.12132 
C -2.683901 -1.55874 -3 -0.795609 -3 0 
C -3 0.795609 -2.683901 1.55874 -2.12132 2.12132 
C -1.55874 2.683901 -0.795609 3 0 3 
z
" id="m817f5e1d03" style="stroke:#c7c7c7;"/>
     </defs>
     <g>
      <use style="fill:#c7c7c7;stroke:#c7c7c7;" x="380.782897" xlink:href="#m817f5e1d03" y="176.757812"/>
     </g>
    </g>
    <g id="text_12">
     <!-- Nanoarchaeota -->
     <g transform="translate(398.782897 180.257812)scale(0.1 -0.1)">
      <defs>
       <path d="M 628 4666 
L 1478 4666 
L 3547 763 
L 3547 4666 
L 4159 4666 
L 4159 0 
L 3309 0 
L 1241 3903 
L 1241 0 
L 628 0 
L 628 4666 
z
" id="DejaVuSans-4e" transform="scale(0.015625)"/>
      </defs>
      <use xlink:href="#DejaVuSans-4e"/>
      <use x="74.804688" xlink:href="#DejaVuSans-61"/>
      <use x="136.083984" xlink:href="#DejaVuSans-6e"/>
      <use x="199.462891" xlink:href="#DejaVuSans-6f"/>
      <use x="260.644531" xlink:href="#DejaVuSans-61"/>
      <use x="321.923828" xlink:href="#DejaVuSans-72"/>
      <use x="360.787109" xlink:href="#DejaVuSans-63"/>
      <use x="415.767578" xlink:href="#DejaVuSans-68"/>
      <use x="479.146484" xlink:href="#DejaVuSans-61"/>
      <use x="540.425781" xlink:href="#DejaVuSans-65"/>
      <use x="601.949219" xlink:href="#DejaVuSans-6f"/>
      <use x="663.130859" xlink:href="#DejaVuSans-74"/>
      <use x="702.339844" xlink:href="#DejaVuSans-61"/>
     </g>
    </g>
    <g id="line2d_25"/>
    <g id="line2d_26">
     <defs>
      <path d="M 0 3 
C 0.795609 3 1.55874 2.683901 2.12132 2.12132 
C 2.683901 1.55874 3 0.795609 3 0 
C 3 -0.795609 2.683901 -1.55874 2.12132 -2.12132 
C 1.55874 -2.683901 0.795609 -3 0 -3 
C -0.795609 -3 -1.55874 -2.683901 -2.12132 -2.12132 
C -2.683901 -1.55874 -3 -0.795609 -3 0 
C -3 0.795609 -2.683901 1.55874 -2.12132 2.12132 
C -1.55874 2.683901 -0.795609 3 0 3 
z
" id="m3b7648ce8d" style="stroke:#dbdb8d;"/>
     </defs>
     <g>
      <use style="fill:#dbdb8d;stroke:#dbdb8d;" x="380.782897" xlink:href="#m3b7648ce8d" y="191.435937"/>
     </g>
    </g>
    <g id="text_13">
     <!-- Nanohaloarchaeota -->
     <g transform="translate(398.782897 194.935937)scale(0.1 -0.1)">
      <use xlink:href="#DejaVuSans-4e"/>
      <use x="74.804688" xlink:href="#DejaVuSans-61"/>
      <use x="136.083984" xlink:href="#DejaVuSans-6e"/>
      <use x="199.462891" xlink:href="#DejaVuSans-6f"/>
      <use x="260.644531" xlink:href="#DejaVuSans-68"/>
      <use x="324.023438" xlink:href="#DejaVuSans-61"/>
      <use x="385.302734" xlink:href="#DejaVuSans-6c"/>
      <use x="413.085938" xlink:href="#DejaVuSans-6f"/>
      <use x="474.267578" xlink:href="#DejaVuSans-61"/>
      <use x="535.546875" xlink:href="#DejaVuSans-72"/>
      <use x="574.410156" xlink:href="#DejaVuSans-63"/>
      <use x="629.390625" xlink:href="#DejaVuSans-68"/>
      <use x="692.769531" xlink:href="#DejaVuSans-61"/>
      <use x="754.048828" xlink:href="#DejaVuSans-65"/>
      <use x="815.572266" xlink:href="#DejaVuSans-6f"/>
      <use x="876.753906" xlink:href="#DejaVuSans-74"/>
      <use x="915.962891" xlink:href="#DejaVuSans-61"/>
     </g>
    </g>
    <g id="line2d_27"/>
    <g id="line2d_28">
     <defs>
      <path d="M 0 3 
C 0.795609 3 1.55874 2.683901 2.12132 2.12132 
C 2.683901 1.55874 3 0.795609 3 0 
C 3 -0.795609 2.683901 -1.55874 2.12132 -2.12132 
C 1.55874 -2.683901 0.795609 -3 0 -3 
C -0.795609 -3 -1.55874 -2.683901 -2.12132 -2.12132 
C -2.683901 -1.55874 -3 -0.795609 -3 0 
C -3 0.795609 -2.683901 1.55874 -2.12132 2.12132 
C -1.55874 2.683901 -0.795609 3 0 3 
z
" id="mfab5020f33" style="stroke:#17becf;"/>
     </defs>
     <g>
      <use style="fill:#17becf;stroke:#17becf;" x="380.782897" xlink:href="#mfab5020f33" y="206.114062"/>
     </g>
    </g>
    <g id="text_14">
     <!-- Thermoplasmatota -->
     <g transform="translate(398.782897 209.614062)scale(0.1 -0.1)">
      <defs>
       <path d="M -19 4666 
L 3928 4666 
L 3928 4134 
L 2272 4134 
L 2272 0 
L 1638 0 
L 1638 4134 
L -19 4134 
L -19 4666 
z
" id="DejaVuSans-54" transform="scale(0.015625)"/>
       <path d="M 1159 525 
L 1159 -1331 
L 581 -1331 
L 581 3500 
L 1159 3500 
L 1159 2969 
Q 1341 3281 1617 3432 
Q 1894 3584 2278 3584 
Q 2916 3584 3314 3078 
Q 3713 2572 3713 1747 
Q 3713 922 3314 415 
Q 2916 -91 2278 -91 
Q 1894 -91 1617 61 
Q 1341 213 1159 525 
z
M 3116 1747 
Q 3116 2381 2855 2742 
Q 2594 3103 2138 3103 
Q 1681 3103 1420 2742 
Q 1159 2381 1159 1747 
Q 1159 1113 1420 752 
Q 1681 391 2138 391 
Q 2594 391 2855 752 
Q 3116 1113 3116 1747 
z
" id="DejaVuSans-70" transform="scale(0.015625)"/>
      </defs>
      <use xlink:href="#DejaVuSans-54"/>
      <use x="61.083984" xlink:href="#DejaVuSans-68"/>
      <use x="124.462891" xlink:href="#DejaVuSans-65"/>
      <use x="185.986328" xlink:href="#DejaVuSans-72"/>
      <use x="225.349609" xlink:href="#DejaVuSans-6d"/>
      <use x="322.761719" xlink:href="#DejaVuSans-6f"/>
      <use x="383.943359" xlink:href="#DejaVuSans-70"/>
      <use x="447.419922" xlink:href="#DejaVuSans-6c"/>
      <use x="475.203125" xlink:href="#DejaVuSans-61"/>
      <use x="536.482422" xlink:href="#DejaVuSans-73"/>
      <use x="588.582031" xlink:href="#DejaVuSans-6d"/>
      <use x="685.994141" xlink:href="#DejaVuSans-61"/>
      <use x="747.273438" xlink:href="#DejaVuSans-74"/>
      <use x="786.482422" xlink:href="#DejaVuSans-6f"/>
      <use x="847.664062" xlink:href="#DejaVuSans-74"/>
      <use x="886.873047" xlink:href="#DejaVuSans-61"/>
     </g>
    </g>
    <g id="line2d_29"/>
    <g id="line2d_30">
     <defs>
      <path d="M 0 3 
C 0.795609 3 1.55874 2.683901 2.12132 2.12132 
C 2.683901 1.55874 3 0.795609 3 0 
C 3 -0.795609 2.683901 -1.55874 2.12132 -2.12132 
C 1.55874 -2.683901 0.795609 -3 0 -3 
C -0.795609 -3 -1.55874 -2.683901 -2.12132 -2.12132 
C -2.683901 -1.55874 -3 -0.795609 -3 0 
C -3 0.795609 -2.683901 1.55874 -2.12132 2.12132 
C -1.55874 2.683901 -0.795609 3 0 3 
z
" id="me1006ad1cb" style="stroke:#000000;"/>
     </defs>
     <g>
      <use style="stroke:#000000;" x="380.782897" xlink:href="#me1006ad1cb" y="220.792187"/>
     </g>
    </g>
    <g id="text_15">
     <!-- archaeon -->
     <g transform="translate(398.782897 224.292187)scale(0.1 -0.1)">
      <use xlink:href="#DejaVuSans-61"/>
      <use x="61.279297" xlink:href="#DejaVuSans-72"/>
      <use x="100.142578" xlink:href="#DejaVuSans-63"/>
      <use x="155.123047" xlink:href="#DejaVuSans-68"/>
      <use x="218.501953" xlink:href="#DejaVuSans-61"/>
      <use x="279.78125" xlink:href="#DejaVuSans-65"/>
      <use x="341.304688" xlink:href="#DejaVuSans-6f"/>
      <use x="402.486328" xlink:href="#DejaVuSans-6e"/>
     </g>
    </g>
    <g id="line2d_31"/>
    <g id="line2d_32">
     <g>
      <use style="stroke:#000000;" x="380.782897" xlink:href="#me1006ad1cb" y="235.470312"/>
     </g>
    </g>
    <g id="text_16">
     <!-- groundwater -->
     <g transform="translate(398.782897 238.970312)scale(0.1 -0.1)">
      <defs>
       <path d="M 269 3500 
L 844 3500 
L 1563 769 
L 2278 3500 
L 2956 3500 
L 3675 769 
L 4391 3500 
L 4966 3500 
L 4050 0 
L 3372 0 
L 2619 2869 
L 1863 0 
L 1184 0 
L 269 3500 
z
" id="DejaVuSans-77" transform="scale(0.015625)"/>
      </defs>
      <use xlink:href="#DejaVuSans-67"/>
      <use x="63.476562" xlink:href="#DejaVuSans-72"/>
      <use x="102.339844" xlink:href="#DejaVuSans-6f"/>
      <use x="163.521484" xlink:href="#DejaVuSans-75"/>
      <use x="226.900391" xlink:href="#DejaVuSans-6e"/>
      <use x="290.279297" xlink:href="#DejaVuSans-64"/>
      <use x="353.755859" xlink:href="#DejaVuSans-77"/>
      <use x="435.542969" xlink:href="#DejaVuSans-61"/>
      <use x="496.822266" xlink:href="#DejaVuSans-74"/>
      <use x="536.03125" xlink:href="#DejaVuSans-65"/>
      <use x="597.554688" xlink:href="#DejaVuSans-72"/>
     </g>
    </g>
    <g id="line2d_33"/>
    <g id="line2d_34">
     <g>
      <use style="stroke:#000000;" x="380.782897" xlink:href="#me1006ad1cb" y="250.148437"/>
     </g>
    </g>
    <g id="text_17">
     <!-- hydrothermal -->
     <g transform="translate(398.782897 253.648437)scale(0.1 -0.1)">
      <use xlink:href="#DejaVuSans-68"/>
      <use x="63.378906" xlink:href="#DejaVuSans-79"/>
      <use x="122.558594" xlink:href="#DejaVuSans-64"/>
      <use x="186.035156" xlink:href="#DejaVuSans-72"/>
      <use x="224.898438" xlink:href="#DejaVuSans-6f"/>
      <use x="286.080078" xlink:href="#DejaVuSans-74"/>
      <use x="325.289062" xlink:href="#DejaVuSans-68"/>
      <use x="388.667969" xlink:href="#DejaVuSans-65"/>
      <use x="450.191406" xlink:href="#DejaVuSans-72"/>
      <use x="489.554688" xlink:href="#DejaVuSans-6d"/>
      <use x="586.966797" xlink:href="#DejaVuSans-61"/>
      <use x="648.246094" xlink:href="#DejaVuSans-6c"/>
     </g>
    </g>
    <g id="line2d_35"/>
    <g id="line2d_36">
     <g>
      <use style="stroke:#000000;" x="380.782897" xlink:href="#me1006ad1cb" y="264.826562"/>
     </g>
    </g>
    <g id="text_18">
     <!-- marine -->
     <g transform="translate(398.782897 268.326562)scale(0.1 -0.1)">
      <use xlink:href="#DejaVuSans-6d"/>
      <use x="97.412109" xlink:href="#DejaVuSans-61"/>
      <use x="158.691406" xlink:href="#DejaVuSans-72"/>
      <use x="199.804688" xlink:href="#DejaVuSans-69"/>
      <use x="227.587891" xlink:href="#DejaVuSans-6e"/>
      <use x="290.966797" xlink:href="#DejaVuSans-65"/>
     </g>
    </g>
    <g id="line2d_37"/>
    <g id="line2d_38">
     <g>
      <use style="stroke:#000000;" x="380.782897" xlink:href="#me1006ad1cb" y="279.504687"/>
     </g>
    </g>
    <g id="text_19">
     <!-- sediment -->
     <g transform="translate(398.782897 283.004687)scale(0.1 -0.1)">
      <use xlink:href="#DejaVuSans-73"/>
      <use x="52.099609" xlink:href="#DejaVuSans-65"/>
      <use x="113.623047" xlink:href="#DejaVuSans-64"/>
      <use x="177.099609" xlink:href="#DejaVuSans-69"/>
      <use x="204.882812" xlink:href="#DejaVuSans-6d"/>
      <use x="302.294922" xlink:href="#DejaVuSans-65"/>
      <use x="363.818359" xlink:href="#DejaVuSans-6e"/>
      <use x="427.197266" xlink:href="#DejaVuSans-74"/>
     </g>
    </g>
    <g id="line2d_39"/>
    <g id="line2d_40">
     <g>
      <use style="stroke:#000000;" x="380.782897" xlink:href="#me1006ad1cb" y="294.182812"/>
     </g>
    </g>
    <g id="text_20">
     <!-- uncultured -->
     <g transform="translate(398.782897 297.682812)scale(0.1 -0.1)">
      <use xlink:href="#DejaVuSans-75"/>
      <use x="63.378906" xlink:href="#DejaVuSans-6e"/>
      <use x="126.757812" xlink:href="#DejaVuSans-63"/>
      <use x="181.738281" xlink:href="#DejaVuSans-75"/>
      <use x="245.117188" xlink:href="#DejaVuSans-6c"/>
      <use x="272.900391" xlink:href="#DejaVuSans-74"/>
      <use x="312.109375" xlink:href="#DejaVuSans-75"/>
      <use x="375.488281" xlink:href="#DejaVuSans-72"/>
      <use x="414.351562" xlink:href="#DejaVuSans-65"/>
      <use x="475.875" xlink:href="#DejaVuSans-64"/>
     </g>
    </g>
    <g id="line2d_41"/>
    <g id="line2d_42">
     <g>
      <use style="stroke:#000000;" x="380.782897" xlink:href="#me1006ad1cb" y="308.860937"/>
     </g>
    </g>
    <g id="text_21">
     <!-- Candidatus -->
     <g transform="translate(398.782897 312.360937)scale(0.1 -0.1)">
      <use xlink:href="#DejaVuSans-43"/>
      <use x="69.824219" xlink:href="#DejaVuSans-61"/>
      <use x="131.103516" xlink:href="#DejaVuSans-6e"/>
      <use x="194.482422" xlink:href="#DejaVuSans-64"/>
      <use x="257.958984" xlink:href="#DejaVuSans-69"/>
      <use x="285.742188" xlink:href="#DejaVuSans-64"/>
      <use x="349.21875" xlink:href="#DejaVuSans-61"/>
      <use x="410.498047" xlink:href="#DejaVuSans-74"/>
      <use x="449.707031" xlink:href="#DejaVuSans-75"/>
      <use x="513.085938" xlink:href="#DejaVuSans-73"/>
     </g>
    </g>
    <g id="line2d_43"/>
    <g id="line2d_44">
     <g>
      <use style="stroke:#000000;" x="380.782897" xlink:href="#me1006ad1cb" y="323.539062"/>
     </g>
    </g>
    <g id="text_22">
     <!-- 1286008:1289191 -->
     <g transform="translate(398.782897 327.039062)scale(0.1 -0.1)">
      <defs>
       <path d="M 794 531 
L 1825 531 
L 1825 4091 
L 703 3866 
L 703 4441 
L 1819 4666 
L 2450 4666 
L 2450 531 
L 3481 531 
L 3481 0 
L 794 0 
L 794 531 
z
" id="DejaVuSans-31" transform="scale(0.015625)"/>
       <path d="M 1228 531 
L 3431 531 
L 3431 0 
L 469 0 
L 469 531 
Q 828 903 1448 1529 
Q 2069 2156 2228 2338 
Q 2531 2678 2651 2914 
Q 2772 3150 2772 3378 
Q 2772 3750 2511 3984 
Q 2250 4219 1831 4219 
Q 1534 4219 1204 4116 
Q 875 4013 500 3803 
L 500 4441 
Q 881 4594 1212 4672 
Q 1544 4750 1819 4750 
Q 2544 4750 2975 4387 
Q 3406 4025 3406 3419 
Q 3406 3131 3298 2873 
Q 3191 2616 2906 2266 
Q 2828 2175 2409 1742 
Q 1991 1309 1228 531 
z
" id="DejaVuSans-32" transform="scale(0.015625)"/>
       <path d="M 2034 2216 
Q 1584 2216 1326 1975 
Q 1069 1734 1069 1313 
Q 1069 891 1326 650 
Q 1584 409 2034 409 
Q 2484 409 2743 651 
Q 3003 894 3003 1313 
Q 3003 1734 2745 1975 
Q 2488 2216 2034 2216 
z
M 1403 2484 
Q 997 2584 770 2862 
Q 544 3141 544 3541 
Q 544 4100 942 4425 
Q 1341 4750 2034 4750 
Q 2731 4750 3128 4425 
Q 3525 4100 3525 3541 
Q 3525 3141 3298 2862 
Q 3072 2584 2669 2484 
Q 3125 2378 3379 2068 
Q 3634 1759 3634 1313 
Q 3634 634 3220 271 
Q 2806 -91 2034 -91 
Q 1263 -91 848 271 
Q 434 634 434 1313 
Q 434 1759 690 2068 
Q 947 2378 1403 2484 
z
M 1172 3481 
Q 1172 3119 1398 2916 
Q 1625 2713 2034 2713 
Q 2441 2713 2670 2916 
Q 2900 3119 2900 3481 
Q 2900 3844 2670 4047 
Q 2441 4250 2034 4250 
Q 1625 4250 1398 4047 
Q 1172 3844 1172 3481 
z
" id="DejaVuSans-38" transform="scale(0.015625)"/>
       <path d="M 2113 2584 
Q 1688 2584 1439 2293 
Q 1191 2003 1191 1497 
Q 1191 994 1439 701 
Q 1688 409 2113 409 
Q 2538 409 2786 701 
Q 3034 994 3034 1497 
Q 3034 2003 2786 2293 
Q 2538 2584 2113 2584 
z
M 3366 4563 
L 3366 3988 
Q 3128 4100 2886 4159 
Q 2644 4219 2406 4219 
Q 1781 4219 1451 3797 
Q 1122 3375 1075 2522 
Q 1259 2794 1537 2939 
Q 1816 3084 2150 3084 
Q 2853 3084 3261 2657 
Q 3669 2231 3669 1497 
Q 3669 778 3244 343 
Q 2819 -91 2113 -91 
Q 1303 -91 875 529 
Q 447 1150 447 2328 
Q 447 3434 972 4092 
Q 1497 4750 2381 4750 
Q 2619 4750 2861 4703 
Q 3103 4656 3366 4563 
z
" id="DejaVuSans-36" transform="scale(0.015625)"/>
       <path d="M 2034 4250 
Q 1547 4250 1301 3770 
Q 1056 3291 1056 2328 
Q 1056 1369 1301 889 
Q 1547 409 2034 409 
Q 2525 409 2770 889 
Q 3016 1369 3016 2328 
Q 3016 3291 2770 3770 
Q 2525 4250 2034 4250 
z
M 2034 4750 
Q 2819 4750 3233 4129 
Q 3647 3509 3647 2328 
Q 3647 1150 3233 529 
Q 2819 -91 2034 -91 
Q 1250 -91 836 529 
Q 422 1150 422 2328 
Q 422 3509 836 4129 
Q 1250 4750 2034 4750 
z
" id="DejaVuSans-30" transform="scale(0.015625)"/>
       <path d="M 750 794 
L 1409 794 
L 1409 0 
L 750 0 
L 750 794 
z
M 750 3309 
L 1409 3309 
L 1409 2516 
L 750 2516 
L 750 3309 
z
" id="DejaVuSans-3a" transform="scale(0.015625)"/>
       <path d="M 703 97 
L 703 672 
Q 941 559 1184 500 
Q 1428 441 1663 441 
Q 2288 441 2617 861 
Q 2947 1281 2994 2138 
Q 2813 1869 2534 1725 
Q 2256 1581 1919 1581 
Q 1219 1581 811 2004 
Q 403 2428 403 3163 
Q 403 3881 828 4315 
Q 1253 4750 1959 4750 
Q 2769 4750 3195 4129 
Q 3622 3509 3622 2328 
Q 3622 1225 3098 567 
Q 2575 -91 1691 -91 
Q 1453 -91 1209 -44 
Q 966 3 703 97 
z
M 1959 2075 
Q 2384 2075 2632 2365 
Q 2881 2656 2881 3163 
Q 2881 3666 2632 3958 
Q 2384 4250 1959 4250 
Q 1534 4250 1286 3958 
Q 1038 3666 1038 3163 
Q 1038 2656 1286 2365 
Q 1534 2075 1959 2075 
z
" id="DejaVuSans-39" transform="scale(0.015625)"/>
      </defs>
      <use xlink:href="#DejaVuSans-31"/>
      <use x="63.623047" xlink:href="#DejaVuSans-32"/>
      <use x="127.246094" xlink:href="#DejaVuSans-38"/>
      <use x="190.869141" xlink:href="#DejaVuSans-36"/>
      <use x="254.492188" xlink:href="#DejaVuSans-30"/>
      <use x="318.115234" xlink:href="#DejaVuSans-30"/>
      <use x="381.738281" xlink:href="#DejaVuSans-38"/>
      <use x="445.361328" xlink:href="#DejaVuSans-3a"/>
      <use x="479.052734" xlink:href="#DejaVuSans-31"/>
      <use x="542.675781" xlink:href="#DejaVuSans-32"/>
      <use x="606.298828" xlink:href="#DejaVuSans-38"/>
      <use x="669.921875" xlink:href="#DejaVuSans-39"/>
      <use x="733.544922" xlink:href="#DejaVuSans-31"/>
      <use x="797.167969" xlink:href="#DejaVuSans-39"/>
      <use x="860.791016" xlink:href="#DejaVuSans-31"/>
     </g>
    </g>
   </g>
  </g>
 </g>
</svg>
